<svg id="svg2" xmlns:rdf="http://www.w3.org/1999/02/22-rdf-syntax-ns#" xmlns="http://www.w3.org/2000/svg" height="35.666mm" width="33.118mm" version="1.1" xmlns:cc="http://creativecommons.org/ns#" xmlns:dc="http://purl.org/dc/elements/1.1/" viewBox="0 0 117.34766 126.37439">
 <g id="layer1" transform="translate(2.8798e-7 -.000061422)">
  <g id="flowRoot14256" transform="matrix(1.0519 0 0 1.0519 758.68 -175.26)">
   <path id="path14341" d="m-712.67 278.17v-68.651h94.395v68.651h-94.395zm25.744-81.523c0 1.2068-0.93859 2.1453-2.1453 2.1453h-4.2907c-1.2068 0-2.1453-0.93858-2.1453-2.1453v-19.308c0-1.2068 0.93858-2.1453 2.1453-2.1453h4.2907c1.2068 0 2.1453 0.93858 2.1453 2.1453v19.308zm51.488 0c0 1.2068-0.93858 2.1453-2.1453 2.1453h-4.2907c-1.2068 0-2.1453-0.93858-2.1453-2.1453v-19.308c0-1.2068 0.93858-2.1453 2.1453-2.1453h4.2907c1.2068 0 2.1453 0.93858 2.1453 2.1453v19.308zm25.744-4.2907c0-4.6929-3.8884-8.5813-8.5813-8.5813h-8.5813v-6.436c0-5.8997-4.827-10.727-10.727-10.727h-4.2907c-5.8997 0-10.727 4.827-10.727 10.727v6.436h-25.744v-6.436c0-5.8997-4.827-10.727-10.727-10.727h-4.2907c-5.8997 0-10.727 4.827-10.727 10.727v6.436h-8.5813c-4.6929 0-8.5813 3.8884-8.5813 8.5813v85.813c0 4.6929 3.8884 8.5813 8.5813 8.5813h94.395c4.6929 0 8.5813-3.8884 8.5813-8.5813v-85.813z"/>
  </g>
 </g>
</svg>
