<svg id="svg2" xmlns:rdf="http://www.w3.org/1999/02/22-rdf-syntax-ns#" xmlns="http://www.w3.org/2000/svg" height="29.919mm" width="39.891mm" version="1.1" xmlns:cc="http://creativecommons.org/ns#" xmlns:dc="http://purl.org/dc/elements/1.1/" viewBox="0 0 141.34767 106.01075">
 <g id="layer1">
  <g id="flowRoot14264" transform="matrix(1.0295 0 0 1.0295 742.5 -180.35)">
   <path id="path14344" d="m-652.6 242.43c0 5.8326-3.8214 9.9892-8.5813 9.9892h-34.325c-4.76 0-8.5814-4.1566-8.5814-9.9892 0-10.391 2.5476-21.923 13.14-21.923 3.285 1.8772 7.7098 5.0952 12.604 5.0952 4.894 0 9.3188-3.218 12.604-5.0952 10.593 0 13.14 11.531 13.14 21.923zm-10.526-34.862c0 8.4473-6.8383 15.218-15.218 15.218-8.3802 0-15.218-6.7712-15.218-15.218 0-8.3802 6.8382-15.218 15.218-15.218 8.3802 0 15.218 6.8383 15.218 15.218zm62.014 34.124c0 1.2068-0.93858 2.1453-2.1453 2.1453h-38.616c-1.2068 0-2.1453-0.93858-2.1453-2.1453v-4.2907c0-1.2068 0.93858-2.1453 2.1453-2.1453h38.616c1.2068 0 2.1453 0.93859 2.1453 2.1453v4.2907zm0-17.431c0 1.3408-1.0727 2.4135-2.4135 2.4135h-38.08c-1.3408 0-2.4135-1.0727-2.4135-2.4135v-3.7543c0-1.3408 1.0727-2.4135 2.4135-2.4135h38.08c1.3408 0 2.4135 1.0727 2.4135 2.4135v3.7543zm0-16.895c0 1.2068-0.93858 2.1453-2.1453 2.1453h-38.616c-1.2068 0-2.1453-0.93858-2.1453-2.1453v-4.2907c0-1.2068 0.93858-2.1453 2.1453-2.1453h38.616c1.2068 0 2.1453 0.93858 2.1453 2.1453v4.2907zm17.163-21.453c0-5.8997-4.827-10.727-10.727-10.727h-115.85c-5.8997 0-10.727 4.827-10.727 10.727v81.523c0 5.8997 4.827 10.727 10.727 10.727h23.599v-6.436c0-1.2068 0.93858-2.1453 2.1453-2.1453h4.2907c1.2068 0 2.1453 0.93858 2.1453 2.1453v6.436h51.488v-6.436c0-1.2068 0.93859-2.1453 2.1453-2.1453h4.2907c1.2068 0 2.1453 0.93858 2.1453 2.1453v6.436h23.599c5.8997 0 10.727-4.827 10.727-10.727v-81.523z"/>
  </g>
 </g>
</svg>
