<svg id="svg2" xmlns:rdf="http://www.w3.org/1999/02/22-rdf-syntax-ns#" xmlns="http://www.w3.org/2000/svg" height="34.943mm" width="47.649mm" version="1.1" xmlns:cc="http://creativecommons.org/ns#" xmlns:dc="http://purl.org/dc/elements/1.1/" viewBox="0 0 168.83516 123.8141">
 <g id="layer1">
  <path id="flowRoot14288" d="m67.534-0.0000038147c-24.885 0-45.023 20.138-45.023 45.024 0 1.2311 0.0893 2.5506 0.17729 3.7816-13.366 6.243-22.688 19.871-22.688 35.612 0 21.722 17.674 39.392 39.394 39.392h95.674c18.642 0 33.767-15.125 33.767-33.767 0-16.004-11.168-29.37-26.117-32.888 2.2863-3.5175 3.6044-7.6514 3.6044-12.136 0-12.399-10.112-22.511-22.511-22.511-5.6278 0-10.728 2.0226-14.597 5.4521-6.78-16.441-22.868-27.962-41.686-27.962zm12.493 40.542h8.7789c0.71181 0 1.3463 0.5152 1.4254 1.1875l1.1058 7.2764c1.2259 0.3955 2.4133 0.8696 3.5601 1.4628l5.6154-4.232c0.23726-0.2373 0.5936-0.3546 0.9495-0.3546 0.35591 0 0.71003 0.157 0.98683 0.3942 2.0959 1.9378 4.8644 4.3904 6.5252 6.7236 0.19773 0.2373 0.27763 0.5538 0.27763 0.8702 0 0.3559-0.11955 0.633-0.31729 0.9099-1.3445 1.819-2.8081 3.5584-4.1526 5.417 0.67227 1.2655 1.2259 2.57 1.6214 3.8751l7.2368 1.1081c0.67227 0.1183 1.1478 0.7508 1.1478 1.4231v8.7788c0 0.5932-0.47542 1.3045-1.1081 1.4231l-7.3161 1.1083c-0.435 1.2654-0.90936 2.4505-1.5421 3.5973 1.3445 1.9377 2.7688 3.6772 4.232 5.4567 0.23727 0.2769 0.3966 0.6333 0.3966 0.9893 0 0.3558-0.11966 0.6329-0.35694 0.9098-0.94908 1.2654-6.2865 7.0782-7.6311 7.0782-0.3559 0-0.71246-0.157-1.0288-0.3547l-5.4568-4.2716c-1.1468 0.5932-2.3738 1.107-3.5997 1.5024-0.27682 2.4123-0.51275 4.9831-1.1455 7.3558-0.15818 0.6327-0.71362 1.1082-1.4254 1.1082h-8.7789c-0.71182 0-1.344-0.5153-1.4231-1.1875l-1.1081-7.2765c-1.2259-0.3954-2.4109-0.8696-3.5578-1.4628l-5.5757 4.232c-0.2768 0.2373-0.63325 0.3547-0.98916 0.3547-0.3559 0-0.71235-0.1572-0.98917-0.434-2.0959-1.8981-4.8644-4.3506-6.5252-6.6442-0.19772-0.2769-0.27529-0.5935-0.27529-0.9098 0-0.356 0.11718-0.6331 0.31496-0.91 1.3445-1.819 2.8081-3.5584 4.1526-5.417-0.67227-1.2654-1.2259-2.5701-1.6214-3.9146l-7.2368-1.0686c-0.67225-0.1182-1.1455-0.7508-1.1455-1.4231v-8.7788c0-0.5932 0.47298-1.3045 1.0662-1.4231l7.3558-1.1081c0.39545-1.2656 0.90936-2.4508 1.5421-3.6372-1.3445-1.8981-2.7688-3.6795-4.232-5.4591-0.23727-0.2767-0.39427-0.5912-0.39427-0.9471s0.15921-0.633 0.35694-0.9099c0.94908-1.305 6.2865-7.0781 7.6311-7.0781 0.35591 0 0.71247 0.157 1.0288 0.3942l5.4568 4.232c1.1468-0.5932 2.3715-1.1069 3.5974-1.5024 0.27681-2.4122 0.51508-4.9831 1.1478-7.3558 0.15819-0.6327 0.71128-1.1081 1.4231-1.1081zm4.3906 20.248c-5.5759 0-10.125 4.5468-10.125 10.123 0 5.5759 4.5491 10.125 10.125 10.125s10.123-4.5491 10.123-10.125c0-5.5758-4.5468-10.123-10.123-10.123z"/>
 </g>
</svg>
