<svg id="svg2" xmlns:rdf="http://www.w3.org/1999/02/22-rdf-syntax-ns#" xmlns="http://www.w3.org/2000/svg" height="34.942mm" width="47.649mm" version="1.1" xmlns:cc="http://creativecommons.org/ns#" xmlns:dc="http://purl.org/dc/elements/1.1/" viewBox="0 0 168.83518 123.81166">
 <g id="layer1">
  <path id="flowRoot14312" d="m67.534 0c-24.885 0-45.023 20.136-45.023 45.021 0 1.2311 0.0893 2.5506 0.17729 3.7817-13.366 6.243-22.688 19.874-22.688 35.615 0 21.72 17.674 39.394 39.394 39.394h95.674c18.642 0 33.767-15.125 33.767-33.767 0-16.004-11.168-29.37-26.117-32.888 2.2863-3.5174 3.6044-7.6513 3.6044-12.136 0-12.399-10.112-22.511-22.511-22.511-5.6278 0-10.728 2.0226-14.597 5.4521-6.78-16.443-22.868-27.962-41.686-27.962zm-5.2561 42.52h26.355v17.924c0 1.7462 1.4173 3.1612 3.1635 3.1612h17.924v34.794c0 1.7462-1.4173 3.1612-3.1635 3.1612h-44.279c-1.7462 0-3.1635-1.415-3.1635-3.1612v-52.715c0-1.7462 1.4173-3.1635 3.1635-3.1635zm30.573 1.3181c0.46124 0.29651 0.858 0.59205 1.1875 0.92151l13.44 13.442c0.32947 0.32945 0.62732 0.72621 0.92384 1.1875h-15.551v-15.551z"/>
 </g>
</svg>
