<svg id="svg2" xmlns:rdf="http://www.w3.org/1999/02/22-rdf-syntax-ns#" xmlns="http://www.w3.org/2000/svg" height="34.943mm" width="47.649mm" version="1.1" xmlns:cc="http://creativecommons.org/ns#" xmlns:dc="http://purl.org/dc/elements/1.1/" viewBox="0 0 168.83519 123.81391">
 <g id="layer1">
  <path id="flowRoot14304" d="m67.534-6.133e-7c-24.885 0-45.023 20.138-45.023 45.023 0 1.2311 0.0893 2.5507 0.17729 3.7818-13.366 6.244-22.688 19.872-22.688 35.612 5.9053e-7 21.723 17.674 39.393 39.394 39.393h95.674c18.642 0 33.767-15.125 33.767-33.767 0-16.004-11.168-29.37-26.117-32.888 2.2863-3.5173 3.6044-7.6512 3.6044-12.136 0-12.399-10.112-22.511-22.511-22.511-5.6278 0-10.728 2.0227-14.597 5.4522-6.78-16.441-22.868-27.962-41.686-27.962zm16.884 39.403c10.81 0 19.688 8.8774 19.688 19.688v8.436h1.4044c2.329 0 4.2203 1.8912 4.2203 4.2202v25.31c0 2.3291-1.8913 4.2203-4.2203 4.2203h-42.187c-2.329 0-4.218-1.8912-4.218-4.2203v-25.31c0-2.329 1.8889-4.2202 4.218-4.2202h1.4068v-8.436c0-10.81 8.8774-19.688 19.688-19.688zm0 8.4382c-6.1961 0-11.249 5.0533-11.249 11.25v8.436h22.499v-8.436c0-6.1962-5.0533-11.25-11.249-11.25z"/>
 </g>
</svg>
