<svg id="svg2" xmlns:rdf="http://www.w3.org/1999/02/22-rdf-syntax-ns#" xmlns="http://www.w3.org/2000/svg" height="31.476mm" viewBox="0 0 140.64491 111.52786" width="39.693mm" version="1.1" xmlns:cc="http://creativecommons.org/ns#" xmlns:dc="http://purl.org/dc/elements/1.1/">
 <g id="g3" font-family="sans-serif">
  <g id="flowRoot14200" transform="matrix(.49795 0 0 .49795 501.5 -239.66)">
   <path id="path14154" d="m-724.69 515.19c-2.2085 2.4293-4.7114 4.5642-7.3616 6.4046-12.294 8.3186-24.661 16.711-36.661 25.398-6.1838 4.5642-13.84 10.159-21.864 10.159h-0.0736-0.0736c-8.0242 0-15.68-5.5948-21.864-10.159-11.999-8.7603-24.367-17.079-36.587-25.398-2.7238-1.8404-5.2267-3.9753-7.4352-6.4046v58.451c0 6.4782 5.3004 11.779 11.779 11.779h108.36c6.4782 0 11.779-5.3004 11.779-11.779v-58.451zm0-21.643c0-6.4782-5.374-11.779-11.779-11.779h-108.36c-7.8769 0-11.779 6.1838-11.779 13.398 0 6.6991 7.4352 15.018 12.662 18.551 11.41 7.9505 22.968 15.901 34.379 23.925 4.785 3.3127 12.883 10.085 18.846 10.085h0.0736 0.0736c5.9629 0 14.061-6.7727 18.846-10.085 11.41-8.0242 22.968-15.975 34.452-23.925 6.4782-4.4906 12.588-11.926 12.588-20.171z"/>
  </g>
  <g id="flowRoot14208" transform="matrix(.49795 0 0 .49795 501.5 -179.98)">
   <path id="path14151" d="m-724.69 515.19c-2.2085 2.4293-4.7114 4.5642-7.3616 6.4046-12.294 8.3186-24.661 16.711-36.661 25.398-6.1838 4.5642-13.84 10.159-21.864 10.159h-0.0736-0.0736c-8.0242 0-15.68-5.5948-21.864-10.159-11.999-8.7603-24.367-17.079-36.587-25.398-2.7238-1.8404-5.2267-3.9753-7.4352-6.4046v58.451c0 6.4782 5.3004 11.779 11.779 11.779h108.36c6.4782 0 11.779-5.3004 11.779-11.779v-58.451zm0-21.643c0-6.4782-5.374-11.779-11.779-11.779h-108.36c-7.8769 0-11.779 6.1838-11.779 13.398 0 6.6991 7.4352 15.018 12.662 18.551 11.41 7.9505 22.968 15.901 34.379 23.925 4.785 3.3127 12.883 10.085 18.846 10.085h0.0736 0.0736c5.9629 0 14.061-6.7727 18.846-10.085 11.41-8.0242 22.968-15.975 34.452-23.925 6.4782-4.4906 12.588-11.926 12.588-20.171z"/>
  </g>
  <g id="flowRoot14216">
   <path id="path14148" d="m65.684 16.657c-1.0998 1.2097-2.3461 2.2728-3.6658 3.1893-6.122 4.1424-12.281 8.3215-18.256 12.647-3.0793 2.2728-6.8918 5.0589-10.888 5.0589h-0.03666-0.03666c-3.9958 0-7.8083-2.786-10.888-5.0589-5.974-4.362-12.133-8.504-18.218-12.647-1.3567-0.916-2.6031-1.979-3.7028-3.189v29.107c0 3.2259 2.6394 5.8654 5.8654 5.8654h53.961c3.2259 0 5.8654-2.6394 5.8654-5.8654v-29.107zm0-10.778c0-3.2259-2.6761-5.8654-5.8654-5.8654h-53.961c-3.9225 0-5.8654 3.0793-5.8654 6.6718 0 3.3359 3.7025 7.4783 6.3053 9.2379 5.6821 3.9591 11.437 7.9182 17.12 11.914 2.3828 1.6496 6.4152 5.0222 9.3846 5.0222h0.03666 0.03666c2.9693 0 7.0018-3.3726 9.3846-5.0222 5.6821-3.9958 11.437-7.9549 17.156-11.914 3.2259-2.2362 6.2686-5.9387 6.2686-10.044z"/>
  </g>
  <g id="flowRoot14320">
   <path id="path14145" d="m65.689 75.873c-1.0997 1.2097-2.3461 2.2728-3.6658 3.1892-6.1219 4.1423-12.28 8.3213-18.256 12.647-3.0793 2.2728-6.8917 5.0588-10.887 5.0588h-0.03666-0.03666c-3.9957 0-7.8081-2.786-10.887-5.0588-5.976-4.362-12.134-8.504-18.22-12.646-1.3558-0.917-2.6022-1.98-3.702-3.19v29.106c0 3.2259 2.6394 5.8653 5.8653 5.8653h53.96c3.2259 0 5.8653-2.6394 5.8653-5.8653v-29.106zm0-10.777c0-3.2259-2.676-5.8653-5.8653-5.8653h-53.96c-3.9224 0-5.8653 3.0793-5.8653 6.6717 0 3.3359 3.7025 7.4782 6.3052 9.2378 5.682 3.9591 11.437 7.9181 17.119 11.914 2.3828 1.6496 6.4151 5.0221 9.3844 5.0221h0.03666 0.03666c2.9693 0 7.0017-3.3725 9.3844-5.0221 5.682-3.9957 11.437-7.9548 17.156-11.914 3.2259-2.2361 6.2685-5.9386 6.2685-10.044z"/>
  </g>
 </g>
</svg>
