<svg id="svg2" xmlns:rdf="http://www.w3.org/1999/02/22-rdf-syntax-ns#" xmlns="http://www.w3.org/2000/svg" height="25.071mm" width="31.909mm" version="1.1" xmlns:cc="http://creativecommons.org/ns#" xmlns:dc="http://purl.org/dc/elements/1.1/" viewBox="0 0 113.06348 88.835533">
 <g id="layer1" transform="translate(-.0000017207 -.0000031946)">
  <g id="flowRoot14190" transform="matrix(.94111 0 0 .94111 678.77 -172.95)">
   <path id="path14337" d="m-601.11 214.21c-2.0112 2.2124-4.2907 4.1566-6.7042 5.8326-11.196 7.5757-22.459 15.218-33.387 23.129-5.6315 4.1566-12.604 9.2518-19.911 9.2518h-0.067-0.067c-7.3076 0-14.28-5.0952-19.911-9.2518-10.928-7.978-22.191-15.554-33.32-23.129-2.4806-1.676-4.76-3.6202-6.7712-5.8326v53.231c0 5.8997 4.827 10.727 10.727 10.727h98.685c5.8997 0 10.727-4.827 10.727-10.727v-53.231zm0-19.71c0-5.8997-4.894-10.727-10.727-10.727h-98.685c-7.1735 0-10.727 5.6315-10.727 12.202 0 6.1008 6.7712 13.677 11.531 16.895 10.391 7.2405 20.917 14.481 31.308 21.789 4.3577 3.0169 11.732 9.1847 17.163 9.1847h0.067 0.067c5.4304 0 12.805-6.1678 17.163-9.1847 10.391-7.3076 20.917-14.548 31.376-21.789 5.8997-4.0896 11.464-10.861 11.464-18.369z"/>
  </g>
 </g>
</svg>
