<svg id="svg2" xmlns:rdf="http://www.w3.org/1999/02/22-rdf-syntax-ns#" xmlns="http://www.w3.org/2000/svg" height="36.957mm" width="49.277mm" version="1.1" xmlns:cc="http://creativecommons.org/ns#" xmlns:dc="http://purl.org/dc/elements/1.1/" viewBox="0 0 174.60185 130.9514">
 <g id="layer1" transform="translate(2.8834 3.5687)">
  <g id="flowRoot14280" transform="matrix(1.4533 0 0 1.4533 1045.3 -273.77)">
   <path id="path14348" d="m-684.04 256.11c-11.799-5.2963-21.654-14.347-28.627-25.141 6.369-9.8551 15.084-18.302 25.543-23.666-2.6817 4.5588-4.0895 9.7881-4.0895 15.084 0 9.587 4.6259 18.638 12.403 24.269l-5.2292 9.4529zm26.079-50.885c0 1.7431-1.4749 3.218-3.218 3.218-7.6428 0-13.945 6.2349-13.945 13.945 0 1.7431-1.4749 3.218-3.218 3.218s-3.218-1.4749-3.218-3.218c0-11.196 9.1847-20.381 20.381-20.381 1.7431 0 3.218 1.4749 3.218 3.218zm24.336-12.805c0-0.73746-0.40225-1.4079-1.0727-1.8101-1.4079-0.8045-7.7098-4.6929-8.9166-4.6929-0.8045 0-1.4749 0.40225-1.8772 1.0727l-3.6202 6.503c-3.9555-0.73746-8.045-1.1397-12.068-1.1397-24.738 0-45.454 13.609-58.729 33.99-0.87154 1.3408-1.3408 3.0169-1.3408 4.6259 0 1.676 0.4693 3.285 1.3408 4.6259 7.7098 12.068 18.638 22.124 31.644 28.023-0.67042 1.1397-2.9498 4.76-2.9498 5.8326 0 0.8045 0.40225 1.4749 1.0727 1.8772 1.4079 0.8045 7.7768 4.6929 8.9836 4.6929 0.73746 0 1.4749-0.40225 1.8772-1.0727l3.285-5.9667c14.146-25.275 28.158-50.684 42.303-75.958 0.067-0.13409 0.067-0.4693 0.067-0.60338zm2.4805 29.968c0-1.8772-0.20112-3.7543-0.53633-5.6315l-18.772 33.655c11.598-4.4248 19.308-15.554 19.308-28.023zm30.035 8.5813c0-1.7431-0.46929-3.151-1.3408-4.6259-5.2292-8.6484-13.609-17.029-21.923-22.593l-4.2236 7.5087c7.5757 5.2292 13.945 12 18.906 19.71-10.459 16.224-27.018 28.09-46.527 29.767l-4.9611 8.8495c20.18 0 38.281-9.1847 51.421-24.269 2.6146-3.0169 5.2293-6.3019 7.3076-9.721 0.87154-1.4749 1.3408-2.8828 1.3408-4.6259z"/>
  </g>
 </g>
</svg>
