<svg id="svg2" xmlns:rdf="http://www.w3.org/1999/02/22-rdf-syntax-ns#" xmlns="http://www.w3.org/2000/svg" height="31.343mm" width="39.891mm" version="1.1" xmlns:cc="http://creativecommons.org/ns#" xmlns:dc="http://purl.org/dc/elements/1.1/" viewBox="0 0 141.34765 111.05887">
 <g id="layer1" transform="translate(-.0000045681 .0000026526)">
  <g id="flowRoot14224" transform="matrix(1.0714 0 0 1.0714 917.8 -907.19)">
   <path id="path14334" d="m-847.19 940.94v-9.4231h75.385v9.4231h-75.385zm0-37.693v-9.4231h75.385v9.4231h-75.385zm115.43 32.981c0 3.9018-3.1656 7.0674-7.0674 7.0674s-7.0674-3.1656-7.0674-7.0674 3.1656-7.0674 7.0674-7.0674 7.0674 3.1656 7.0674 7.0674zm-115.43-70.674v-9.4231h75.385v9.4231h-75.385zm115.43 32.981c0 3.9018-3.1656 7.0674-7.0674 7.0674s-7.0674-3.1656-7.0674-7.0674 3.1656-7.0674 7.0674-7.0674 7.0674 3.1656 7.0674 7.0674zm0-37.693c0 3.9018-3.1656 7.0674-7.0674 7.0674s-7.0674-3.1656-7.0674-7.0674 3.1656-7.0674 7.0674-7.0674 7.0674 3.1656 7.0674 7.0674zm7.0674 61.25h-131.92v28.269h131.92v-28.269zm0-37.693h-131.92v28.269h131.92v-28.269zm0-37.693h-131.92v28.269h131.92v-28.269z"/>
  </g>
 </g>
</svg>
