<svg id="svg2" xmlns:rdf="http://www.w3.org/1999/02/22-rdf-syntax-ns#" xmlns="http://www.w3.org/2000/svg" height="39.955mm" width="34.247mm" version="1.1" xmlns:cc="http://creativecommons.org/ns#" xmlns:dc="http://purl.org/dc/elements/1.1/" viewBox="0 0 121.34766 141.57152">
 <g id="layer1">
  <path id="flowRoot14232" d="m7.5853 0c-4.1871 0-7.5853 3.3982-7.5853 7.5853v126.4c0 4.1871 3.3982 7.5831 7.5853 7.5831h106.18c4.1871 0 7.5853-3.396 7.5853-7.5831v-83.428h-42.978c-4.1871 0-7.5832-3.3961-7.5832-7.5832l-0.012-42.979h-63.202zm73.312 3.1607v37.289h37.289c-0.71102-1.106-1.4212-2.0542-2.2112-2.8442l-32.238-32.234c-0.79-0.7901-1.738-1.5003-2.844-2.2113zm-6.6526 59.536c7.0583 0 12.762 5.7019 12.762 12.76 0 7.0583-5.704 12.76-12.762 12.76-3.3497 0-6.4189-1.3155-8.6919-3.429l-14.354 7.179c0.0399 0.4386 0.0797 0.9174 0.0797 1.3561 0 0.4386-0.0398 0.9153-0.0797 1.3539l14.355 7.1787c2.273-2.1135 5.3422-3.429 8.6919-3.429 7.0583 0 12.762 5.7019 12.762 12.76 0 7.0583-5.704 12.76-12.762 12.76-7.0583 0-12.76-5.7019-12.76-12.76 0-0.4386 0.0398-0.9174 0.0797-1.3561l-14.355-7.1765c-2.273 2.1135-5.3443 3.4289-8.694 3.4289-7.0583 0-12.76-5.7018-12.76-12.76 0-7.0584 5.7019-12.762 12.76-12.762 3.3497 0 6.421 1.3154 8.694 3.4289l14.355-7.1765c-0.0399-0.4387-0.0797-0.9175-0.0797-1.3561 0-7.0583 5.7019-12.76 12.76-12.76z"/>
 </g>
</svg>
