<svg id="svg4496" xmlns:rdf="http://www.w3.org/1999/02/22-rdf-syntax-ns#" xmlns="http://www.w3.org/2000/svg" height="232.18" viewBox="0 0 720.54975 232.18304" width="720.57" version="1.1" xmlns:cc="http://creativecommons.org/ns#" xmlns:dc="http://purl.org/dc/elements/1.1/">
 <path id="path9023" style="color-rendering:auto;color:#000000;isolation:auto;mix-blend-mode:normal;shape-rendering:auto;solid-color:#000000;image-rendering:auto" d="m42.737 151.67-39.408-68.253 39.408-68.257h78.816l39.408 68.257-39.408 68.257z" stroke="#990d2e" stroke-width="5.7766" fill="none"/>
 <g id="text9025" fill="#400015" transform="matrix(1.4442 0 0 1.4442 .00036182 1.0994)">
  <path id="path4920" d="m42.489 53.535h-1.64v4.56c0 0.89-0.32 1.32-1.07 1.32-0.74 0-1.06-0.43-1.06-1.32v-4.56h-1.64v4.63c0 1.46 0.89 2.47 2.7 2.47s2.71-1.07 2.71-2.47v-4.63z"/>
  <path id="path4922" d="m45.854 53.365c-1.44 0-2.5 0.78-2.5 2 0 1.03 0.57 1.67 2.12 2.15 1.01 0.31 1.27 0.54 1.27 1.05 0 0.53-0.42 0.85-1.1 0.85-0.69 0-1.24-0.25-1.75-0.68l-0.83 0.91c0.57 0.55 1.43 0.99 2.63 0.99 1.73 0 2.75-0.9 2.75-2.19 0-1.28-0.75-1.82-2.06-2.24-1.08-0.34-1.34-0.52-1.34-0.96s0.36-0.68 0.93-0.68c0.56 0 1.04 0.19 1.52 0.58l0.76-0.89c-0.61-0.58-1.34-0.89-2.4-0.89z"/>
  <path id="path4924" d="m54.657 53.535h-1.64v4.56c0 0.89-0.32 1.32-1.07 1.32-0.74 0-1.06-0.43-1.06-1.32v-4.56h-1.64v4.63c0 1.46 0.89 2.47 2.7 2.47s2.71-1.07 2.71-2.47v-4.63z"/>
  <path id="path4926" d="m59.403 60.465h1.74l-2.09-6.93h-1.99l-2.09 6.93h1.7l0.35-1.49h2.02l0.36 1.49zm-2.1-2.68 0.73-3.06 0.73 3.06h-1.46z"/>
  <path id="path4928" d="m65.351 60.465h1.85l-1.76-2.95c0.9-0.41 1.33-0.96 1.33-1.87 0-1.44-0.97-2.11-2.85-2.11h-2.27v6.93h1.64v-2.65h0.64l1.42 2.65zm-2.06-5.78h0.59c0.81 0 1.2 0.29 1.2 0.96 0 0.73-0.38 1.04-1.1 1.04h-0.69v-2z"/>
  <path id="path4930" d="m69.463 53.535h-1.64v6.93h1.64v-6.93z"/>
  <path id="path4932" d="m73.553 53.365c-1.95 0-3.12 1.37-3.12 3.63 0 2.31 1.17 3.64 3.12 3.64 1.96 0 3.13-1.37 3.13-3.64 0-2.31-1.17-3.63-3.13-3.63zm0 1.2c0.93 0 1.41 0.68 1.41 2.43 0 1.76-0.47 2.44-1.41 2.44-0.9 0-1.4-0.68-1.4-2.44 0-1.75 0.48-2.43 1.4-2.43z"/>
 </g>
 <g>
  <path id="path9095" style="color-rendering:auto;color:#000000;isolation:auto;mix-blend-mode:normal;shape-rendering:auto;solid-color:#000000;image-rendering:auto" d="m307.14 162.23-68.257-39.408v-78.816l68.257-39.408 68.257 39.408v78.816z" stroke="#990d2e" stroke-width="5.7766" fill="none"/>
  <g fill-rule="evenodd" fill="#990d2e">
   <path id="path9103" style="color-rendering:auto;text-decoration-color:#000000;color:#000000;isolation:auto;mix-blend-mode:normal;shape-rendering:auto;solid-color:#000000;block-progression:tb;text-decoration-line:none;text-decoration-style:solid;image-rendering:auto;white-space:normal;text-indent:0;text-transform:none" d="m214.95 39.676 3.4026 3.7909h-80.148v1.0831h80.148l-3.4026 3.7909 11.909-3.7909h1.7012v-0.54156-0.54156h-1.7012l-11.909-3.7909z"/>
   <path id="path9105" style="color-rendering:auto;text-decoration-color:#000000;color:#000000;isolation:auto;mix-blend-mode:normal;shape-rendering:auto;solid-color:#000000;block-progression:tb;text-decoration-line:none;text-decoration-style:solid;image-rendering:auto;white-space:normal;text-indent:0;text-transform:none" d="m160.82 118.49-12.113 3.7909h-1.7304v0.54155 0.54156h1.7304l12.113 3.7909-3.4608-3.7909h81.52v-1.0831h-81.52l3.4608-3.7909z"/>
   <path id="path9111" style="color-rendering:auto;text-decoration-color:#000000;color:#000000;isolation:auto;mix-blend-mode:normal;shape-rendering:auto;solid-color:#000000;block-progression:tb;text-decoration-line:none;text-decoration-style:solid;image-rendering:auto;white-space:normal;text-indent:0;text-transform:none" d="m240.85 210.16-3.5822 3.5822 3.5822 3.5822 3.5822-3.5822zm473.68 0c-4.1058 3.5555-3.5954 3.569 0 7.1644l3.5822-3.5822zm-469.24 2.9504v1.2665h2.5329v-1.2665zm7.5987 0v1.2665h2.5329v-1.2665zm7.5988 0v1.2665h2.5329v-1.2665zm7.5987 0v1.2665h2.5329v-1.2665zm7.5987 0v1.2665h2.5329v-1.2665zm7.5987 0v1.2665h2.5329v-1.2665zm7.6016 0v1.2665h2.5329v-1.2665zm7.5987 0v1.2665h2.5329v-1.2665zm7.5987 0v1.2665h2.5329v-1.2665zm7.5987 0v1.2665h2.5329v-1.2665zm7.5988 0v1.2665h2.5329v-1.2665zm7.5987 0v1.2665h2.5329v-1.2665zm7.5987 0v1.2665h2.5329v-1.2665zm7.6016 0v1.2665h2.5329v-1.2665zm7.5987 0v1.2665h2.5329v-1.2665zm7.5987 0v1.2665h2.5329v-1.2665zm7.5987 0v1.2665h2.5329v-1.2665zm7.5987 0v1.2665h2.5329v-1.2665zm7.5988 0v1.2665h2.5329v-1.2665zm7.5987 0v1.2665h2.5329v-1.2665zm7.6014 0v1.2665h2.533v-1.2665zm7.5988 0v1.2665h2.5329v-1.2665zm7.5987 0v1.2665h2.5329v-1.2665zm7.5987 0v1.2665h2.5329v-1.2665zm7.5987 0v1.2665h2.5329v-1.2665zm7.5987 0v1.2665h2.533v-1.2665zm7.5988 0v1.2665h2.5329v-1.2665zm7.6014 0v1.2665h2.5329v-1.2665zm7.5988 0v1.2665h2.5329v-1.2665zm7.5987 0v1.2665h2.5329v-1.2665zm7.5987 0v1.2665h2.5329v-1.2665zm7.5987 0v1.2665h2.5329v-1.2665zm7.5987 0v1.2665h2.5329v-1.2665zm7.5987 0v1.2665h2.533v-1.2665zm7.6016 0v1.2665h2.5329v-1.2665zm7.5987 0v1.2665h2.5329v-1.2665zm7.5988 0v1.2665h2.5329v-1.2665zm7.5987 0v1.2665h2.5329v-1.2665zm7.5987 0v1.2665h2.5329v-1.2665zm7.5987 0v1.2665h2.5329v-1.2665zm7.5987 0v1.2665h2.5329v-1.2665zm7.6016 0v1.2665h2.5329v-1.2665zm7.5987 0v1.2665h2.5329v-1.2665zm7.5987 0v1.2665h2.5329v-1.2665zm7.5988 0v1.2665h2.5329v-1.2665zm7.5987 0v1.2665h2.5329v-1.2665zm7.5987 0v1.2665h2.5329v-1.2665zm7.5987 0v1.2665h2.5358v-1.2665zm7.6016 0v1.2665h2.5329v-1.2665zm7.5987 0v1.2665h2.5329v-1.2665zm7.5987 0v1.2665h2.5329v-1.2665zm7.5987 0v1.2665h2.5329v-1.2665zm7.5988 0v1.2665h2.5329v-1.2665zm7.5987 0v1.2665h2.5329v-1.2665zm7.5987 0v1.2665h2.5358v-1.2665zm7.6016 0v1.2665h2.5329v-1.2665zm7.5987 0v1.2665h2.5329v-1.2665zm7.5987 0v1.2665h2.5329v-1.2665zm7.5987 0v1.2665h2.5329v-1.2665zm7.5987 0v1.2665h2.533v-1.2665zm7.5988 0v1.2665h2.5329v-1.2665zm7.5987 0v1.2665h2.5356v-1.2665z"/>
  </g>
  <path id="path9321" style="color-rendering:auto;color:#000000;isolation:auto;mix-blend-mode:normal;shape-rendering:auto;solid-color:#000000;image-rendering:auto" d="m581.54 162.23-45.504-78.816 45.504-78.816h91.009l45.504 78.816-45.504 78.816z" stroke="#b30f36" stroke-width="4.3325" fill="none"/>
  <path id="path9451" style="color-rendering:auto;text-decoration-color:#000000;color:#000000;isolation:auto;mix-blend-mode:normal;shape-rendering:auto;solid-color:#000000;block-progression:tb;text-decoration-line:none;text-decoration-style:solid;image-rendering:auto;white-space:normal;text-indent:0;text-transform:none" d="m395.37 79.085-12.519 3.791h-1.789v0.54297 0.54101h1.789l12.519 3.791-3.5762-3.791h84.265 42.65l-3.5664 3.791 12.486-3.791h1.7832v-0.54101-0.54297h-1.7832l-12.486-3.791 3.5664 3.791h-42.65-84.265l3.5762-3.791z" fill-rule="evenodd" fill="#990d2e"/>
 </g>
 <g fill="#400015">
  <text id="text14384" style="word-spacing:0px;letter-spacing:0px" fill-opacity=".89020" xml:space="preserve" font-size="12.5px" y="51.214615" x="455.07153" font-family="&apos;Fira Sans&apos;" line-height="125%"><tspan id="tspan14386" style="text-anchor:middle;text-align:center" y="51.214615" x="456.73169">Consulta de </tspan><tspan id="tspan14388" style="text-anchor:middle;text-align:center" y="66.839539" x="455.07153">dominios activados</tspan></text>
  <text id="text14390" style="word-spacing:0px;letter-spacing:0px" line-height="125%" fill-opacity=".89020" font-size="12.5px" y="10.012451" x="187.96323" font-family="&apos;Fira Sans&apos;" xml:space="preserve"><tspan id="tspan14394" style="text-anchor:middle;text-align:center" y="10.012451" x="187.96323">Activación</tspan><tspan id="tspan14398" style="text-anchor:middle;text-align:center" y="25.637375" x="187.96323">dominio</tspan></text>
  <text id="text14400" style="word-spacing:0px;letter-spacing:0px" xml:space="preserve" font-size="12.5px" y="151.18051" x="191.30762" font-family="&apos;Fira Sans&apos;" line-height="125%"><tspan id="tspan14404" style="text-anchor:middle;text-align:center" y="151.18051" x="191.30762">Dominio activado</tspan><tspan id="tspan14408" style="text-anchor:middle;text-align:center" y="166.80544" x="191.30762">y accesible</tspan></text>
  <text id="text14410" style="word-spacing:0px;letter-spacing:0px" line-height="125%" fill-opacity=".89020" font-size="40px" y="230.88304" x="474.13284" font-family="sans-serif" xml:space="preserve"><tspan id="tspan14414" style="text-anchor:middle;text-align:center" fill-opacity=".89020" font-size="12.5px" y="230.88304" x="474.13284" font-family="&apos;Fira Sans&apos;" fill="#400015">SERVIDOR / MÁQUINA VIRTUAL</tspan></text>
 </g>
 <g id="g14553" fill="#400015" transform="translate(-.000051668 -1.4344)">
  <g id="text10825" fill-opacity=".98431" transform="matrix(1.4441 0 0 1.4441 2634 -1254.6)">
   <path id="path4604" d="m-1420.4 911.96h1.74l-2.09-6.93h-1.99l-2.09 6.93h1.7l0.35-1.49h2.02l0.36 1.49zm-2.1-2.68 0.73-3.06 0.73 3.06h-1.46z"/>
   <path id="path4606" d="m-1415.4 904.86c-1.8 0-3.15 1.3-3.15 3.62 0 2.37 1.27 3.65 3.17 3.65 0.96 0 1.71-0.43 2.17-0.89l-0.73-0.94c-0.41 0.31-0.81 0.56-1.36 0.56-0.92 0-1.53-0.71-1.53-2.38 0-1.7 0.62-2.41 1.51-2.41 0.47 0 0.86 0.18 1.25 0.48l0.78-0.93c-0.58-0.49-1.21-0.76-2.11-0.76z"/>
   <path id="path4608" d="m-1407.8 905.03h-5.3v1.26h1.79v5.67h1.64v-5.67h1.71l0.16-1.26z"/>
   <path id="path4610" d="m-1401.9 905.03h-1.64v4.56c0 0.89-0.32 1.32-1.07 1.32-0.74 0-1.06-0.43-1.06-1.32v-4.56h-1.64v4.63c0 1.46 0.89 2.47 2.7 2.47s2.71-1.07 2.71-2.47v-4.63z"/>
   <path id="path4612" d="m-1397.1 911.96h1.74l-2.09-6.93h-1.99l-2.09 6.93h1.7l0.35-1.49h2.02l0.36 1.49zm-2.1-2.68 0.73-3.06 0.73 3.06h-1.46z"/>
   <path id="path4614" d="m-1393.2 905.03h-1.64v6.93h4.17l0.17-1.3h-2.7v-5.63z"/>
   <path id="path4616" d="m-1388.1 905.03h-1.64v6.93h1.64v-6.93z"/>
   <path id="path4618" d="m-1382.3 905.03h-4.63v1.27h2.76l-3.07 4.43v1.23h4.83l0.16-1.31h-3.06l3.01-4.38v-1.24z"/>
   <path id="path4620" d="m-1377.7 911.96h1.74l-2.09-6.93h-1.99l-2.09 6.93h1.7l0.35-1.49h2.02l0.36 1.49zm-2.1-2.68 0.73-3.06 0.73 3.06h-1.46z"/>
   <path id="path4622" d="m-1372.7 904.86c-1.8 0-3.15 1.3-3.15 3.62 0 2.37 1.27 3.65 3.17 3.65 0.96 0 1.71-0.43 2.17-0.89l-0.73-0.94c-0.41 0.31-0.81 0.56-1.36 0.56-0.92 0-1.53-0.71-1.53-2.38 0-1.7 0.62-2.41 1.51-2.41 0.47 0 0.86 0.18 1.25 0.48l0.78-0.93c-0.58-0.49-1.21-0.76-2.11-0.76z"/>
   <path id="path4624" d="m-1368.2 905.03h-1.64v6.93h1.64v-6.93z"/>
   <path id="path4626" d="m-1363.3 902.4-2.21 1.25 0.4 0.8 2.4-0.87-0.59-1.18zm-0.81 2.46c-1.95 0-3.12 1.37-3.12 3.63 0 2.31 1.17 3.64 3.12 3.64 1.96 0 3.13-1.37 3.13-3.64 0-2.31-1.17-3.63-3.13-3.63zm0 1.2c0.93 0 1.41 0.68 1.41 2.43 0 1.76-0.47 2.44-1.41 2.44-0.9 0-1.4-0.68-1.4-2.44 0-1.75 0.48-2.43 1.4-2.43z"/>
   <path id="path4628" d="m-1354.6 905.03h-1.47v2.8c0 1.11 0.13 2.02 0.22 2.58l-2.05-5.38h-2.04v6.93h1.46v-2.54c0-1.28-0.13-2.2-0.21-2.83l2 5.37h2.09v-6.93z"/>
   <path id="path4630" d="m-1411.2 917.53h-1.93v6.93h2.08c1.77 0 3.45-0.71 3.45-3.5 0-2.86-1.75-3.43-3.6-3.43zm0.23 1.19c0.96 0 1.67 0.38 1.67 2.24 0 1.84-0.66 2.31-1.65 2.31h-0.54v-4.55h0.52z"/>
   <path id="path4632" d="m-1402.4 917.53h-4.25v6.93h4.25v-1.18h-2.61v-1.77h2.13v-1.15h-2.13v-1.66h2.44l0.17-1.17z"/>
   <path id="path4634" d="m-1395.3 924.46h1.74l-2.09-6.93h-1.99l-2.09 6.93h1.7l0.35-1.49h2.02l0.36 1.49zm-2.1-2.68 0.73-3.06 0.73 3.06h-1.46z"/>
   <path id="path4636" d="m-1390.9 917.53h-2.24v6.93h1.64v-2.31h0.75c1.6 0 2.74-0.75 2.74-2.36 0-1.52-1.1-2.26-2.89-2.26zm0.01 3.44h-0.61v-2.27h0.58c0.81 0 1.22 0.35 1.22 1.09 0 0.87-0.45 1.18-1.19 1.18z"/>
   <path id="path4638" d="m-1384.1 924.46h1.74l-2.09-6.93h-1.99l-2.09 6.93h1.7l0.35-1.49h2.02l0.36 1.49zm-2.1-2.68 0.73-3.06 0.73 3.06h-1.46z"/>
   <path id="path4640" d="m-1379.1 917.36c-1.8 0-3.15 1.3-3.15 3.62 0 2.37 1.27 3.65 3.17 3.65 0.96 0 1.71-0.43 2.17-0.89l-0.73-0.94c-0.41 0.31-0.81 0.56-1.36 0.56-0.92 0-1.53-0.71-1.53-2.38 0-1.7 0.62-2.41 1.51-2.41 0.47 0 0.86 0.18 1.25 0.48l0.78-0.93c-0.58-0.49-1.21-0.76-2.11-0.76z"/>
   <path id="path4642" d="m-1372.4 924.46h1.64v-6.93h-1.64v2.68h-2.08v-2.68h-1.64v6.93h1.64v-2.97h2.08v2.97z"/>
   <path id="path4644" d="m-1365.3 917.53h-4.25v6.93h4.25v-1.18h-2.61v-1.77h2.13v-1.15h-2.13v-1.66h2.44l0.17-1.17z"/>
  </g>
  <text id="text14465" style="word-spacing:0px;letter-spacing:0px" fill-opacity=".89020" xml:space="preserve" font-size="12.5px" y="102.79993" x="628.13434" font-family="&apos;Fira Sans&apos;" line-height="125%"><tspan id="tspan14469" style="text-anchor:middle;text-align:center" y="102.79993" x="628.13434">Virtual hosts</tspan><tspan id="tspan14473" style="text-anchor:middle;text-align:center" y="118.42485" x="628.13434">Let&apos;s Encrypt</tspan></text>
 </g>
 <g id="g14529" fill="#400015" transform="translate(4.8415e-8 4.2017)">
  <g id="text9097" fill-opacity=".98431" transform="matrix(1.4441 0 0 1.4441 2674.7 -1257.4)">
   <path id="path4696" d="m-1664.2 901.38h-1.93v6.93h2.08c1.77 0 3.45-0.71 3.45-3.5 0-2.86-1.75-3.43-3.6-3.43zm0.23 1.19c0.96 0 1.67 0.38 1.67 2.24 0 1.84-0.66 2.31-1.65 2.31h-0.54v-4.55h0.52z"/>
   <path id="path4698" d="m-1658 901.38h-1.64v6.93h1.64v-6.93z"/>
   <path id="path4700" d="m-1653 908.31h1.85l-1.76-2.95c0.9-0.41 1.33-0.96 1.33-1.87 0-1.44-0.97-2.11-2.85-2.11h-2.27v6.93h1.64v-2.65h0.64l1.42 2.65zm-2.06-5.78h0.59c0.81 0 1.2 0.29 1.2 0.96 0 0.73-0.38 1.04-1.1 1.04h-0.69v-2z"/>
   <path id="path4702" d="m-1646.3 901.38h-4.25v6.93h4.25v-1.18h-2.61v-1.77h2.13v-1.15h-2.13v-1.66h2.44l0.17-1.17z"/>
   <path id="path4704" d="m-1642.6 901.21c-1.8 0-3.15 1.3-3.15 3.62 0 2.37 1.27 3.65 3.17 3.65 0.96 0 1.71-0.43 2.17-0.89l-0.73-0.94c-0.41 0.31-0.81 0.56-1.36 0.56-0.92 0-1.53-0.71-1.53-2.38 0-1.7 0.62-2.41 1.51-2.41 0.47 0 0.86 0.18 1.25 0.48l0.78-0.93c-0.58-0.49-1.21-0.76-2.11-0.76z"/>
   <path id="path4706" d="m-1635 901.38h-5.3v1.26h1.79v5.67h1.64v-5.67h1.71l0.16-1.26z"/>
   <path id="path4708" d="m-1631.9 901.21c-1.95 0-3.12 1.37-3.12 3.63 0 2.31 1.17 3.64 3.12 3.64 1.96 0 3.13-1.37 3.13-3.64 0-2.31-1.17-3.63-3.13-3.63zm0 1.2c0.93 0 1.41 0.68 1.41 2.43 0 1.76-0.47 2.44-1.41 2.44-0.9 0-1.4-0.68-1.4-2.44 0-1.75 0.48-2.43 1.4-2.43z"/>
   <path id="path4710" d="m-1624.1 908.31h1.85l-1.76-2.95c0.9-0.41 1.33-0.96 1.33-1.87 0-1.44-0.97-2.11-2.85-2.11h-2.27v6.93h1.64v-2.65h0.64l1.42 2.65zm-2.06-5.78h0.59c0.81 0 1.2 0.29 1.2 0.96 0 0.73-0.38 1.04-1.1 1.04h-0.69v-2z"/>
   <path id="path4712" d="m-1620 901.38h-1.64v6.93h1.64v-6.93z"/>
   <path id="path4714" d="m-1615.9 901.21c-1.95 0-3.12 1.37-3.12 3.63 0 2.31 1.17 3.64 3.12 3.64 1.96 0 3.13-1.37 3.13-3.64 0-2.31-1.17-3.63-3.13-3.63zm0 1.2c0.93 0 1.41 0.68 1.41 2.43 0 1.76-0.47 2.44-1.41 2.44-0.9 0-1.4-0.68-1.4-2.44 0-1.75 0.48-2.43 1.4-2.43z"/>
   <path id="path4716" d="m-1660.3 913.71c-1.95 0-3.12 1.37-3.12 3.63 0 2.31 1.17 3.64 3.12 3.64 1.96 0 3.13-1.37 3.13-3.64 0-2.31-1.17-3.63-3.13-3.63zm0 1.2c0.93 0 1.41 0.68 1.41 2.43 0 1.76-0.47 2.44-1.41 2.44-0.9 0-1.4-0.68-1.4-2.44 0-1.75 0.48-2.43 1.4-2.43z"/>
   <path id="path4718" d="m-1653.9 913.88h-2.24v6.93h1.64v-2.31h0.75c1.6 0 2.74-0.75 2.74-2.36 0-1.52-1.1-2.26-2.89-2.26zm0.01 3.44h-0.61v-2.27h0.58c0.81 0 1.22 0.35 1.22 1.09 0 0.87-0.45 1.18-1.19 1.18z"/>
   <path id="path4720" d="m-1645.9 913.88h-4.25v6.93h4.25v-1.18h-2.61v-1.77h2.13v-1.15h-2.13v-1.66h2.44l0.17-1.17z"/>
   <path id="path4722" d="m-1639.5 913.88h-1.47v2.8c0 1.11 0.13 2.02 0.22 2.58l-2.05-5.38h-2.04v6.93h1.46v-2.54c0-1.28-0.13-2.2-0.21-2.83l2 5.37h2.09v-6.93z"/>
   <path id="path4724" d="m-1636.6 913.88h-1.64v6.93h4.17l0.17-1.3h-2.7v-5.63z"/>
   <path id="path4726" d="m-1631.2 913.88h-1.93v6.93h2.08c1.77 0 3.45-0.71 3.45-3.5 0-2.86-1.75-3.43-3.6-3.43zm0.23 1.19c0.96 0 1.67 0.38 1.67 2.24 0 1.84-0.66 2.31-1.65 2.31h-0.54v-4.55h0.52z"/>
   <path id="path4728" d="m-1623.1 920.81h1.74l-2.09-6.93h-1.99l-2.09 6.93h1.7l0.35-1.49h2.02l0.36 1.49zm-2.1-2.68 0.73-3.06 0.73 3.06h-1.46z"/>
   <path id="path4730" d="m-1618.6 913.88h-2.24v6.93h1.64v-2.31h0.75c1.6 0 2.74-0.75 2.74-2.36 0-1.52-1.1-2.26-2.89-2.26zm0.01 3.44h-0.61v-2.27h0.58c0.81 0 1.22 0.35 1.22 1.09 0 0.87-0.45 1.18-1.19 1.18z"/>
  </g>
  <text id="text14519" style="word-spacing:0px;letter-spacing:0px" line-height="125%" fill-opacity=".89020" font-size="12.5px" y="96.045471" x="307.34442" font-family="&apos;Fira Sans&apos;" xml:space="preserve"><tspan id="tspan14523" style="text-anchor:middle;text-align:center" font-weight="600" y="96.045471" x="307.34442">Dominios</tspan><tspan id="tspan14527" style="text-anchor:middle;text-align:center" y="111.67039" x="307.34442">example.com</tspan></text>
 </g>
</svg>
