<svg id="svg4496" xmlns:rdf="http://www.w3.org/1999/02/22-rdf-syntax-ns#" xmlns="http://www.w3.org/2000/svg" height="204.94" viewBox="0 0 719.52609 204.93672" width="719.53" version="1.1" xmlns:cc="http://creativecommons.org/ns#" xmlns:dc="http://purl.org/dc/elements/1.1/">
 <g stroke="#b30f36" stroke-width="3.1502" fill="none">
  <path id="path4896" style="color-rendering:auto;color:#000000;isolation:auto;mix-blend-mode:normal;shape-rendering:auto;solid-color:#000000;image-rendering:auto" d="m117.67 151.16-28.653-49.63 28.653-49.629h57.309l28.654 49.631-28.654 49.631z"/>
  <path id="path4902" style="color-rendering:auto;color:#000000;isolation:auto;mix-blend-mode:normal;shape-rendering:auto;solid-color:#000000;image-rendering:auto" d="m288.1 151.16-28.654-49.631 28.654-49.631h57.309l28.654 49.631-28.654 49.631z"/>
  <path id="path4919" style="color-rendering:auto;color:#000000;isolation:auto;mix-blend-mode:normal;shape-rendering:auto;solid-color:#000000;image-rendering:auto" d="m459.93 151.16-28.654-49.631 28.654-49.631h57.309l28.654 49.631-28.654 49.631z"/>
  <path id="path10656" style="color-rendering:auto;color:#000000;isolation:auto;mix-blend-mode:normal;shape-rendering:auto;solid-color:#000000;image-rendering:auto" d="m631.74 151.16-28.654-49.631 28.654-49.631h57.309l28.654 49.631-28.654 49.631z"/>
 </g>
 <g id="g11298" transform="matrix(1.0501 0 0 1.0501 1968.8 -1122.1)">
  <path id="path11796" style="color-rendering:auto;color:#000000;isolation:auto;mix-blend-mode:normal;shape-rendering:auto;solid-color:#000000;image-rendering:auto" d="m-1845.3 1165.1-27.288-47.264 27.288-47.264h54.576l27.288 47.264-27.288 47.264z" stroke="#990d2e" stroke-width="4" fill="none"/>
  <g id="text11798" fill="#990d2e">
   <path id="path4671" d="m-1849.8 1108.2c-2.1938 0-3.51 1.5413-3.51 4.0838 0 2.5987 1.3162 4.095 3.51 4.095 2.205 0 3.5212-1.5413 3.5212-4.095 0-2.5988-1.3162-4.0838-3.5212-4.0838zm0 1.35c1.0462 0 1.5862 0.765 1.5862 2.7338 0 1.98-0.5287 2.745-1.5862 2.745-1.0125 0-1.575-0.765-1.575-2.745 0-1.9688 0.54-2.7338 1.575-2.7338z"/>
   <path id="path4673" d="m-1842.6 1108.4h-2.52v7.7962h1.845v-2.5987h0.8437c1.8 0 3.0825-0.8438 3.0825-2.655 0-1.71-1.2375-2.5425-3.2512-2.5425zm0.011 3.87h-0.6862v-2.5538h0.6525c0.9112 0 1.3725 0.3938 1.3725 1.2263 0 0.9787-0.5063 1.3275-1.3388 1.3275z"/>
   <path id="path4675" d="m-1833.6 1108.4h-4.7812v7.7962h4.7812v-1.3275h-2.9362v-1.9912h2.3962v-1.2938h-2.3962v-1.8675h2.745l0.1912-1.3162z"/>
   <path id="path4677" d="m-1826.5 1108.4h-1.6537v3.15c0 1.2487 0.1462 2.2725 0.2475 2.9025l-2.3063-6.0525h-2.295v7.7962h1.6425v-2.8575c0-1.44-0.1462-2.475-0.2362-3.1837l2.25 6.0412h2.3512v-7.7962z"/>
   <path id="path4679" d="m-1816.4 1108.4h-1.6538v3.15c0 1.2487 0.1463 2.2725 0.2475 2.9025l-2.3062-6.0525h-2.295v7.7962h1.6425v-2.8575c0-1.44-0.1463-2.475-0.2363-3.1837l2.25 6.0412h2.3513v-7.7962z"/>
   <path id="path4681" d="m-1810.1 1108.4h-4.7812v7.7962h4.7812v-1.3275h-2.9362v-1.9912h2.3962v-1.2938h-2.3962v-1.8675h2.745l0.1912-1.3162z"/>
   <path id="path4683" d="m-1804.9 1112.1c0.72-0.1688 1.4287-0.6863 1.4287-1.6763 0-1.4625-1.2825-1.9912-3.375-1.9912h-2.205v7.7962h2.5088c1.9575 0 3.3975-0.495 3.3975-2.2725 0-1.26-0.8888-1.6875-1.755-1.8562zm-1.7663-2.3625c0.8888 0 1.3163 0.2137 1.3163 0.8662s-0.405 0.945-1.17 0.945h-0.6863v-1.8112h0.54zm0.135 5.1525h-0.675v-2.115h0.81c0.7988 0 1.35 0.2925 1.35 1.08 0 0.855-0.6187 1.035-1.485 1.035z"/>
   <path id="path4685" d="m-1796.1 1108.4h-1.845v5.13c0 1.0012-0.36 1.485-1.2037 1.485-0.8325 0-1.1925-0.4838-1.1925-1.485v-5.13h-1.845v5.2087c0 1.6425 1.0012 2.7788 3.0375 2.7788 2.0362 0 3.0487-1.2038 3.0487-2.7788v-5.2087z"/>
   <path id="path4687" d="m-1792.9 1108.4h-1.845v7.7962h4.6912l0.1913-1.4625h-3.0375v-6.3337z"/>
   <path id="path4689" d="m-1784.9 1116.2h1.9575l-2.3513-7.7962h-2.2387l-2.3513 7.7962h1.9125l0.3938-1.6762h2.2725l0.405 1.6762zm-2.3625-3.015 0.8212-3.4425 0.8213 3.4425h-1.6425z"/>
   <path id="path4691" d="m-1826.9 1122.5h-1.845v7.7962h1.845v-7.7962zm4.4775 0h-1.9462l-2.475 3.6337 2.4862 4.1625h2.1375l-2.6887-4.2975 2.4862-3.4987z"/>
   <path id="path4693" d="m-1815.8 1122.5h-1.89l-1.395 6.3562-1.485-6.3562h-1.9463l2.25 7.7962h2.295l2.1713-7.7962z"/>
   <path id="path4695" d="m-1808.2 1122.5h-2.34l-1.0913 5.2875-1.17-5.2875h-2.3287l-0.585 7.7962h1.8l0.135-3.0262c0.045-1.0913 0.045-2.0588-0.034-3.2063l1.2825 5.4113h1.7438l1.2037-5.4113c-0.056 0.9675-0.034 2.0925 0.022 3.1838l0.135 3.0487h1.8113l-0.585-7.7962z"/>
  </g>
 </g>
 <g id="g11304" transform="matrix(1.0501 0 0 1.0501 1960.5 -1123.2)">
  <path id="path11804" style="color-rendering:auto;color:#000000;isolation:auto;mix-blend-mode:normal;shape-rendering:auto;solid-color:#000000;image-rendering:auto" d="m-1674.1 1166.2-27.288-47.264 27.288-47.264h54.576l27.288 47.264-27.288 47.264z" stroke="#990d2e" stroke-width="4" fill="none"/>
  <path id="path12855" d="m-1650.6 1144.7c-0.4124-0.05-1.0613-0.2051-1.3264-0.3169l-0.077-0.032 0.074-0.2601c0.041-0.1431 0.076-0.2628 0.079-0.2659 0 0 0.123 0.028 0.2674 0.07 1.522 0.4383 2.7394 0.2643 2.8081-0.4015 0.019-0.1839-0.024-0.2987-0.1619-0.4368-0.1632-0.1629-0.3612-0.276-1.2507-0.7145-0.8589-0.4234-1.1406-0.5946-1.3586-0.8257-0.2239-0.2373-0.3143-0.4653-0.3143-0.7921 0-0.6387 0.3758-0.9905 1.2176-1.1398 0.07-0.012 0.2891-0.028 0.4871-0.035 0.5213-0.018 1.1846 0.052 1.7518 0.1856l0.187 0.044-0.014 0.077c-0.086 0.4721-0.081 0.4589-0.1478 0.4565-0.034-0.001-0.1999-0.027-0.3687-0.057-0.5351-0.095-0.6886-0.1091-1.2177-0.1083-0.6455 0.001-0.8716 0.046-1.0671 0.2109-0.2161 0.1826-0.2001 0.5771 0.032 0.7962 0.1669 0.1575 0.5314 0.3564 1.4478 0.79 1.1755 0.5562 1.495 0.8911 1.4553 1.5257-0.038 0.6101-0.4795 1.0307-1.2556 1.1966-0.2709 0.058-0.9043 0.075-1.2479 0.033zm24.004 0c-1.0589-0.143-1.6117-0.654-1.6124-1.4904-0.0003-0.3298 0.072-0.5509 0.2623-0.7997 0.092-0.1204 0.2898-0.2802 0.4342-0.3507 0.049-0.024 0.09-0.05 0.09-0.056 0-0.01-0.031-0.031-0.068-0.053-0.038-0.022-0.1313-0.1033-0.2084-0.1804-0.1591-0.1591-0.2963-0.4056-0.3385-0.608-0.031-0.1487-0.015-0.5041 0.03-0.6437 0.145-0.4571 0.5278-0.7566 1.1348-0.8877 0.5592-0.1209 1.4708-0.1037 2.2841 0.043 0.1214 0.022 0.2235 0.043 0.227 0.046 0.011 0.011-0.059 0.5139-0.073 0.5307-0.01 0.01-0.2042-0.01-0.4365-0.041-0.3732-0.05-0.4948-0.057-1.047-0.058-0.5854-0.001-0.6353 0-0.7941 0.046-0.24 0.067-0.3799 0.1445-0.4994 0.2752-0.1341 0.1467-0.1764 0.2819-0.1632 0.5215 0.015 0.2678 0.1276 0.4565 0.3643 0.6095 0.2532 0.1637 0.3092 0.1725 1.1454 0.1817 0.6913 0.01 0.7457 0.011 0.8085 0.05 0.096 0.059 0.1488 0.2028 0.1154 0.3143-0.026 0.087-0.1229 0.1845-0.2003 0.2017-0.025 0.01-0.4033 0.013-0.8401 0.017-0.8715 0.01-0.8904 0.01-1.1489 0.147-0.3063 0.1621-0.4609 0.4895-0.3972 0.8411 0.077 0.4238 0.3945 0.6614 1.0056 0.7521 0.4592 0.068 1.269 0.023 1.924-0.1075 0.091-0.018 0.1691-0.03 0.1729-0.026 0.011 0.011 0.1002 0.5281 0.092 0.5358-0.014 0.014-0.4985 0.1163-0.6956 0.1471-0.5105 0.08-1.1558 0.097-1.567 0.042zm-36.011-0.041c-0.035-0.017-0.6068-0.4781-1.2706-1.0235-0.6639-0.5455-1.212-0.9892-1.2179-0.9861-0.01 0-0.187 0.4543-0.4023 1.0027l-0.3916 0.9972h-0.3335c-0.1835 0-0.3336-0.01-0.3336-0.018 0-0.01 0.4523-1.1225 1.0051-2.4724 1.0827-2.6441 1.0391-2.5511 1.2112-2.5834 0.101-0.019 0.2335 0.026 0.286 0.097 0.022 0.029 0.4551 1.0679 0.9636 2.3083 0.9989 2.4368 0.9898 2.4108 0.8985 2.5562-0.083 0.1319-0.2794 0.1895-0.4149 0.1216zm-1.0758-2.6022c-0.3185-0.8003-0.5874-1.4551-0.5975-1.4552-0.01 0-0.1503 0.3359-0.3115 0.7466-0.2811 0.7155-0.2917 0.7482-0.2555 0.7837 0.062 0.06 1.7315 1.3918 1.7378 1.3857 0 0-0.2548-0.6604-0.5733-1.4608zm8.0852 2.6055c-0.046-0.02-0.4541-0.5416-1.5141-1.9362l-1.4506-1.9083v1.9158l-0.01 1.9158h-0.3281-0.3282v-2.4216-2.4216l0.048-0.07c0.069-0.1011 0.1463-0.1512 0.2524-0.1631 0.1939-0.022 0.1171-0.1109 1.6906 1.9596l1.4506 1.9086v-1.9054l0.01-1.9053h0.3281 0.3281v2.4091c0 2.3061 0 2.4123-0.039 2.4825-0.074 0.1385-0.286 0.2063-0.4372 0.1401zm10.62-2.5223v-2.5094h0.3389 0.3388v2.5094 2.5094h-0.3388-0.3389v-2.5094zm4.2515 2.4663c-0.048-0.026-0.096-0.075-0.1218-0.1259-0.042-0.082-0.043-0.1211-0.043-2.3417 0-2.522-0.01-2.3528 0.1491-2.4583l0.079-0.052 1.1195 0.01c1.0741 0.01 1.1261 0.01 1.2821 0.054 0.5478 0.1558 0.8656 0.4513 0.9829 0.914 0.048 0.1893 0.032 0.5357-0.032 0.7022-0.087 0.2274-0.3214 0.5244-0.4945 0.6277-0.032 0.019-0.058 0.04-0.058 0.047 0 0.01 0.049 0.03 0.1089 0.052 0.1534 0.055 0.4016 0.2268 0.5159 0.3568 0.1194 0.1356 0.2527 0.3954 0.2866 0.5588 0.037 0.1797 0.016 0.5354-0.042 0.7054-0.1173 0.3437-0.389 0.6469-0.7276 0.812-0.3594 0.1752-0.3114 0.1702-1.6985 0.1767-1.1934 0.01-1.2305 0.01-1.3075-0.036zm2.4721-0.5575c0.2669-0.071 0.4935-0.2633 0.5849-0.4953 0.069-0.1761 0.07-0.5004 0-0.6512-0.1118-0.2454-0.2791-0.3968-0.532-0.4813-0.133-0.044-0.1787-0.047-1.076-0.054l-0.9371-0.01v0.8591 0.859l0.9265-0.0002c0.706-0.0003 0.9517-0.01 1.0324-0.029zm-0.3816-2.2691c0.4197-0.089 0.6833-0.3694 0.7054-0.7504 0.023-0.3934-0.1786-0.6767-0.5617-0.7902-0.129-0.038-0.2222-0.043-0.9321-0.053l-0.7888-0.01v0.8176 0.8176l0.7147-0.0004c0.5488-0.0003 0.749-0.01 0.8625-0.032zm4.8227 2.8345c-0.038-0.019-0.091-0.064-0.1165-0.1001l-0.047-0.066-0.01-2.4089-0.01-2.4088h0.3284 0.3284l0.01 2.2077v2.2076l1.35 0.01h1.35v0.2963 0.2964l-1.5617-0.0005c-1.3953-0.0005-1.5692 0-1.6313-0.035zm-12.795-9.6221c-4.8573-0.3083-9.2305-2.1263-12.854-5.3436-0.3976-0.3529-1.3939-1.3554-1.7391-1.7497-1.7622-2.0132-3.0545-4.1652-3.9675-6.6071-2.1858-5.846-1.6453-12.451 1.461-17.852 0.9599-1.6689 2.0064-3.0335 3.3873-4.4169 0.8216-0.8231 1.4218-1.3477 2.2665-1.9813 3.3457-2.5095 7.2895-3.9483 11.485-4.19 0.4931-0.028 1.8691-0.029 2.354-0.0004 2.4121 0.1403 4.7018 0.6609 6.8929 1.5671 2.173 0.8986 4.1939 2.1712 6.0142 3.7874 0.3571 0.317 1.3077 1.2682 1.6331 1.6341 2.9072 3.2689 4.7077 7.2299 5.2267 11.499 0.6635 5.4569-0.7843 10.882-4.0718 15.258-0.6355 0.8458-1.1646 1.451-1.9817 2.2661-0.7938 0.792-1.4064 1.3236-2.2778 1.9768-2.9436 2.2066-6.4416 3.6028-10.112 4.0362-0.8889 0.105-1.1907 0.1215-2.34 0.1283-0.5998 0-1.2192 0-1.3765-0.012zm10.324-10.63c0.4232-0.1312 0.7497-0.399 0.9289-0.7621 0.1694-0.3432 0.2035-0.6558 0.1111-1.0186-0.035-0.1384-1.3237-3.2633-4.2469-10.3-2.308-5.5556-4.2327-10.177-4.2771-10.271-0.2584-0.5422-0.6876-0.821-1.2619-0.82-0.3441 0.0006-0.6071 0.082-0.8706 0.2703-0.1442 0.1029-0.31 0.2921-0.3958 0.4517-0.05 0.094-9.2901 22.303-9.2901 22.331 0 0.01 0.7082 0.013 1.5738 0.013h1.5739l1.8197-4.5628c1.0008-2.5095 1.8267-4.5631 1.8352-4.5635 0.01-0.0004 2.4767 1.9876 5.4847 4.4179 3.0081 2.4302 5.5312 4.4645 5.6069 4.5205 0.1874 0.1387 0.4899 0.2889 0.6564 0.3262 0.1935 0.043 0.5575 0.027 0.7518-0.033zm-7.4058-8.4136c-2.233-1.7606-4.075-3.2161-4.0933-3.2345-0.03-0.03 0.091-0.3448 1.3468-3.4941 0.7591-1.9034 1.3861-3.4674 1.3933-3.4755 0.01-0.01 1.2299 2.9889 2.7171 6.6601 3.1108 7.6787 2.7369 6.7493 2.7142 6.747-0.01-0.001-1.8452-1.4424-4.0781-3.203z" fill="#990d2e"/>
 </g>
 <g id="g11308" transform="matrix(1.0501 0 0 1.0501 1952.8 -1123.6)">
  <path id="path11812" style="color-rendering:auto;color:#000000;isolation:auto;mix-blend-mode:normal;shape-rendering:auto;solid-color:#000000;image-rendering:auto" d="m-1503.3 1166.6-27.288-47.264 27.288-47.264h54.576l27.288 47.264-27.288 47.264z" stroke="#990d2e" stroke-width="4" fill="none"/>
  <g id="g12861" fill="#990d2e" transform="matrix(.50124 0 0 .50124 -1010.8 691.72)">
   <path id="path12867" d="m-965.27 862.28 0.015-13.152h2.6512 2.6512l0.0168 0.70002c0.0186 0.77745 0.0498 0.82492 0.34142 0.52051 0.26817-0.2799 0.99575-0.75984 1.535-1.0126 1.0682-0.50057 2.096-0.69184 3.4091-0.63442 1.7743 0.0776 3.2599 0.60144 4.628 1.6319 3.2347 2.4366 4.5453 7.6698 3.0767 12.286-0.87035 2.7357-2.8609 4.8648-5.3155 5.6853-0.9675 0.32341-1.5793 0.41488-2.7765 0.41509-1.001 0.00018-1.1554-0.0141-1.6813-0.15539-1.1351-0.30492-2.1207-0.79692-2.7752-1.3853-0.16357-0.14707-0.32698-0.26739-0.36312-0.26739-0.0473 0-0.0657 1.1943-0.0657 4.2597v4.2597h-2.6811-2.6811l0.015-13.152zm9.9222 1.7409c0.27187-0.0539 0.69009-0.20301 1.0252-0.36551 0.48344-0.23445 0.64459-0.35366 1.1051-0.8175 0.46556-0.46894 0.58106-0.62839 0.84646-1.1686 1.2159-2.475 0.69447-5.8594-1.1363-7.3751-0.75851-0.62794-1.5204-0.90934-2.5727-0.9502-0.86859-0.0337-1.3296 0.0588-2.0395 0.40926-0.57652 0.28465-1.2034 0.83533-1.5618 1.372l-0.24146 0.36159v3.2333 3.2334l0.24146 0.36159c0.92226 1.3811 2.6134 2.0467 4.3336 1.7057zm31.901-1.7409 0.015-13.152 2.6363-0.0155 2.6363-0.0155 0.00089 0.67085c0.0006 0.36898 0.0236 0.70673 0.0515 0.75058 0.0382 0.0602 0.14356-0.003 0.43102-0.26017 0.67736-0.6051 1.6286-1.0882 2.7294-1.3862 0.52247-0.14143 0.66794-0.15437 1.7321-0.15412 0.96745 0.00023 1.2582 0.0216 1.7386 0.12788 2.4264 0.53676 4.264 1.9043 5.5174 4.1061 1.9021 3.3414 1.893 8.2756-0.0215 11.6-1.2395 2.1525-3.1129 3.5214-5.5254 4.0375-0.49926 0.1068-0.80261 0.12988-1.7092 0.13004-0.99597 0.00018-1.1567-0.0145-1.6681-0.1524-1.202-0.32405-2.1403-0.79751-2.8304-1.4282-0.26814-0.24507-0.34815-0.29067-0.39145-0.22309-0.0319 0.0498-0.0484 1.8299-0.0398 4.3l0.0147 4.215-2.6662-0.00001-2.6662-0.00001 0.015-13.152zm9.9221 1.739c0.69256-0.14019 1.4758-0.54334 1.9804-1.0194 1.0893-1.0276 1.6234-2.4239 1.6256-4.2496 0.002-1.7458-0.4666-3.1056-1.4148-4.1047-0.79614-0.83886-1.7129-1.2505-2.9003-1.3023-0.85362-0.0372-1.4014 0.0708-2.0786 0.40972-0.58863 0.29462-1.3081 0.95423-1.6234 1.4883l-0.22341 0.37844v3.0776 3.0776l0.16383 0.30965c0.4784 0.90418 1.4675 1.6509 2.5338 1.913 0.54154 0.13308 1.3419 0.14197 1.937 0.0215zm11.347-1.739 0.015-13.152h2.6214 2.6214l0.0168 0.70002c0.0111 0.46331 0.0392 0.70003 0.0829 0.70003 0.0364 0 0.20309-0.11578 0.37046-0.25729 0.91531-0.77386 2.0383-1.2818 3.3346-1.5083 1.1136-0.19458 2.7855-0.0274 4.0116 0.40107 3.0525 1.0668 5.2075 4.0238 5.7064 7.8301 0.10477 0.79921 0.11972 2.5646 0.028 3.3065-0.27646 2.2365-1.1271 4.2546-2.4273 5.7583-0.38899 0.4499-1.2766 1.1847-1.8432 1.5259-1.2508 0.75322-2.8216 1.1764-4.3535 1.173-1.64-0.004-3.3271-0.60516-4.4093-1.5719-0.20681-0.18474-0.40118-0.32035-0.43193-0.30134-0.034 0.021-0.0559 1.7032-0.0559 4.2908v4.2562h-2.6513-2.6513l0.015-13.152zm10.302 1.6384c1.708-0.55358 2.85-2.0358 3.1502-4.0888 0.11482-0.78526 0.0455-2.1634-0.14559-2.8961-0.39298-1.5065-1.2158-2.5942-2.389-3.1583-2.0182-0.9704-4.2762-0.35364-5.4434 1.4869l-0.18658 0.2942v3.1271c0 3.0012 0.005 3.1368 0.11857 3.3693 0.43036 0.87911 1.5639 1.7296 2.6262 1.9706 0.59027 0.13387 1.6896 0.0831 2.2696-0.1049zm-46.748 4.7724c-0.9906-0.12626-2.1145-0.53729-2.8668-1.0484-1.39-0.94449-2.2522-2.4055-2.6272-4.452-0.087-0.47461-0.1012-1.3199-0.12082-7.1775-0.0122-3.6517-0.007-6.7016 0.0124-6.7774l0.0346-0.13791 2.635 0.0155 2.635 0.0155 0.0315 6.196c0.0282 5.5499 0.0419 6.2293 0.13052 6.5158 0.42149 1.362 1.3066 2.0542 2.7274 2.133 1.5114 0.0838 2.7643-0.62047 3.4016-1.9121l0.26233-0.53165 0.0298-6.2005 0.0298-6.2005h2.6512 2.6512l0.0151 9.5758 0.0151 9.5758-0.13423 0.0326c-0.0738 0.018-1.2602 0.0252-2.6364 0.0161l-2.5022-0.0165-0.0298-0.78468c-0.0164-0.43157-0.0471-0.80183-0.0682-0.82279-0.0211-0.021-0.20628 0.1117-0.41151 0.29482-1.5215 1.3576-3.6553 1.9729-5.8652 1.6912zm64.77 0.005c-2.0518-0.23847-3.9207-1.106-5.2804-2.4512-1.8589-1.8391-2.819-4.3763-2.8245-7.465-0.004-1.9474 0.341-3.525 1.1047-5.0586 1.4184-2.8484 3.9158-4.6209 7.0214-4.9834 0.82013-0.0957 2.335-0.0371 3.1226 0.12079 2.414 0.48405 4.2508 1.789 5.4112 3.8444 0.51202 0.90696 0.89172 2.0329 1.1156 3.308 0.16222 0.92419 0.24825 3.6264 0.12035 3.7806-0.0662 0.0798-0.81883 0.0904-6.4126 0.0904h-6.3376v0.18427c0 0.34408 0.24526 1.3897 0.43012 1.8338 0.51288 1.232 1.3619 2.0317 2.5487 2.4007 0.57231 0.17792 1.7691 0.19374 2.3831 0.0315 0.98477-0.26021 1.7206-0.81846 2.1132-1.6032 0.11566-0.23118 0.21028-0.45599 0.21028-0.49959s0.0519-0.10702 0.11524-0.14094c0.14275-0.0764 4.643-0.0837 4.7629-0.008 0.1184 0.075 0.0465 0.48777-0.23068 1.3236-0.40307 1.2156-0.92221 2.0951-1.7386 2.9455-1.265 1.3177-3.0087 2.1064-5.1853 2.3456-0.65074 0.0715-1.8372 0.0718-2.4495 0.00065zm4.5592-12.499c-0.0228-0.4863-0.24612-1.1873-0.5318-1.6695-0.40628-0.68578-1.1379-1.2189-1.9284-1.4052-0.49144-0.11585-1.4653-0.11534-1.9605 0.001-1.381 0.32453-2.4131 1.4083-2.8531 2.9959-0.0635 0.22923-0.0997 0.43255-0.0805 0.45182 0.0193 0.0193 1.6858 0.0281 3.7035 0.0197l3.6685-0.0153-0.0178-0.37836zm13.661 12.415c-2.7201-0.42758-4.3381-1.9983-4.764-4.6249-0.0763-0.47035-0.091-1.3528-0.0912-5.465 0-3.2661-0.0208-4.9426-0.0619-5.0193-0.0583-0.10891-0.13848-0.11524-1.4596-0.11524h-1.398v-2.1448-2.1448h1.398c1.3211 0 1.4013-0.006 1.4596-0.11524 0.0397-0.0741 0.0617-0.9985 0.0617-2.5916v-2.4763h2.6214 2.6214l0.0009 2.5171c0.00059 1.3844 0.022 2.5503 0.0477 2.5908 0.0354 0.0557 0.54826 0.0775 2.0992 0.0894l2.0524 0.0157v2.115 2.115l-2.0694 0.0157-2.0693 0.0157-0.0334 0.13328c-0.0184 0.0733-0.0255 2.1172-0.0158 4.5419l0.0175 4.4087 0.14186 0.35746c0.18474 0.46555 0.58599 0.86229 1.057 1.0451 0.2914 0.11313 0.4601 0.1354 1.0055 0.13272 0.74613-0.004 1.3479-0.13656 1.933-0.42685l0.3607-0.17896v2.3725 2.3725l-0.55466 0.18392c-0.30633 0.10158-0.86783 0.22498-1.2542 0.27562-0.83298 0.10919-2.427 0.11175-3.1062 0.005zm-144.03-11.322-0.00001-6.0172 4.6302 0.016 4.6302 0.016 2.519-2.519 2.519-2.519v-3.2156-3.2156l-2.519-2.519-2.519-2.519-4.6302 0.016-4.6302 0.016 0.00001-6.0321 0.00001-6.0321 6.0321-0.00001 6.0321-0.00001-0.016 4.6294-0.016 4.6294 2.5169 2.5195 2.5169 2.5195 4.5887 0.0153 4.5887 0.0153v5.9577 5.9576l-4.6351 0.0298-4.6351 0.0298-2.4694 2.5013-2.4694 2.5013v4.5753c0 3.6057-0.0158 4.5812-0.0745 4.603-0.041 0.0153-2.7487 0.0345-6.0172 0.0428l-5.9428 0.015v-6.0172zm8.1258 1.9612c0.0199-0.0518 0.0362-0.95799 0.0362-2.0137 0-1.4135-0.0189-1.9383-0.0715-1.9909s-0.57748-0.0715-1.991-0.0715c-1.0557 0-1.9618 0.0163-2.0137 0.0362-0.0834 0.032-0.0942 0.2682-0.0942 2.0455 0 1.1051 0.0179 2.0272 0.0397 2.049s0.9439 0.0397 2.049 0.0397c1.7773 0 2.0135-0.0109 2.0455-0.0942zm-0.0353-28.395c0.0829-0.0829 0.10361-3.8965 0.0219-4.0252-0.0373-0.0587-0.4917-0.0718-2.0694-0.0596l-2.0216 0.0157-0.0157 2.0216c-0.0122 1.5777 0.00083 2.0321 0.0596 2.0694 0.12875 0.0817 3.9423 0.061 4.0252-0.0219z" fill="#990d2e"/>
  </g>
 </g>
 <g id="g11332" transform="matrix(1.0501 0 0 1.0501 1946.3 -1125.3)">
  <path id="path14124" style="color-rendering:auto;color:#000000;isolation:auto;mix-blend-mode:normal;shape-rendering:auto;solid-color:#000000;image-rendering:auto" d="m-1332.9 1168.2-27.288-47.264 27.288-47.264h54.576l27.288 47.264-27.288 47.264z" stroke="#990d2e" stroke-width="4" fill="none"/>
  <g id="g11325" fill="#990d2e">
   <path id="path11924" style="color-rendering:auto;color:#000000;isolation:auto;mix-blend-mode:normal;shape-rendering:auto;solid-color:#000000;image-rendering:auto" d="m-1318 1123 12.407-7.1633 12.407 7.1633h-12.407z"/>
   <path id="path11922" style="color-rendering:auto;color:#000000;isolation:auto;mix-blend-mode:normal;shape-rendering:auto;solid-color:#000000;image-rendering:auto" d="m-1299.4 1112.3-6.2036 3.5817-6.2036-3.5817v-7.1632l6.2036-3.5817 6.2036 3.5817z"/>
   <g id="text10665">
    <path id="path4656" d="m-1319.8 1131.2h-2.3175v5.1075c0 0.8663-0.2587 1.2825-0.9337 1.2825s-0.9338-0.4162-0.9338-1.2825v-5.1075h-2.3175v5.175c0 1.71 1.0463 2.88 3.2513 2.88s3.2512-1.2825 3.2512-2.88v-5.175z"/>
    <path id="path4658" d="m-1316.6 1132.8c-1.6875 0-2.6212 0.8663-2.6212 1.9463 0 0.9675 0.6187 1.6087 1.7437 1.9462 1.035 0.315 1.1588 0.3713 1.1588 0.6638 0 0.2475-0.2363 0.3712-0.63 0.3712-0.5513 0-1.1025-0.2587-1.53-0.5962l-1.0575 1.17c0.6187 0.585 1.5862 0.9562 2.6437 0.9562 1.665 0 2.8463-0.8325 2.8463-2.07 0-1.0912-0.63-1.5862-1.7663-1.935-1.1362-0.3487-1.2037-0.4387-1.2037-0.6412 0-0.1575 0.135-0.27 0.5062-0.27 0.4838 0 1.0013 0.1687 1.4288 0.4387l0.7875-1.2037c-0.5513-0.4725-1.4175-0.7763-2.3063-0.7763z"/>
    <path id="path4660" d="m-1308 1133h-2.2275v4.1175c-0.2025 0.3488-0.45 0.495-0.6525 0.495-0.2137 0-0.3712-0.1125-0.3712-0.585v-4.0275h-2.2275v4.32c0 1.1475 0.5062 1.9125 1.6762 1.9125 0.7538 0 1.3613-0.2925 1.7775-0.8775l0.079 0.6525h1.9462v-6.0075z"/>
    <path id="path4662" d="m-1301.9 1137v-2.07c0-1.485-0.7875-2.2163-2.7-2.2163-0.6862 0-1.62 0.1688-2.3737 0.4725l0.4837 1.4175c0.5963-0.2025 1.2038-0.315 1.5525-0.315 0.6638 0 0.8663 0.1575 0.8663 0.765v0.1463h-0.4275c-1.89 0-2.9025 0.7312-2.9025 2.0587 0 1.1138 0.7762 1.9125 1.98 1.9125 0.6862 0 1.3725-0.2137 1.8112-0.8775 0.3375 0.5738 0.8438 0.7763 1.62 0.8325l0.45-1.4287c-0.27-0.1013-0.36-0.27-0.36-0.6975zm-2.835 0.6075c-0.3037 0-0.495-0.225-0.495-0.5625 0-0.4725 0.2925-0.6863 0.9225-0.6863h0.2363v0.8888c-0.1463 0.2025-0.3825 0.36-0.6638 0.36z"/>
    <path id="path4664" d="m-1297.2 1132.8c-0.6637 0-1.2712 0.5287-1.5187 1.3162l-0.18-1.125h-1.9463v6.0075h2.2275v-2.7337c0.1688-0.765 0.405-1.305 1.125-1.305 0.1913 0 0.36 0.034 0.5513 0.09l0.3487-2.1488c-0.2137-0.068-0.3712-0.1012-0.6075-0.1012z"/>
    <path id="path4666" d="m-1295.2 1129.7c-0.7312 0-1.2487 0.5175-1.2487 1.1925s0.5175 1.1925 1.2487 1.1925c0.7313 0 1.2488-0.5175 1.2488-1.1925s-0.5175-1.1925-1.2488-1.1925zm1.1138 3.3187h-2.2275v6.0075h2.2275v-6.0075z"/>
    <path id="path4668" d="m-1289 1134.5c-1.4175 0-2.1175 1.015-2.1175 2.4062 0 1.1113 0.4288 1.995 1.6538 1.995 0.595 0 1.0237-0.315 1.2512-0.84 0.088 0.4375 0.5075 0.8838 1.19 0.8838 1.1463 0 2.0213-1.12 2.0213-2.8 0-1.7763-1.4875-3.4563-4.0075-3.4563-2.4675 0-4.305 1.6975-4.305 4.1388 0 2.5112 1.6537 4.1125 4.305 4.1125 0.7 0 1.61-0.1663 2.1437-0.385l-0.3937-1.155c-0.4375 0.1662-1.1725 0.3062-1.7413 0.3062-1.855 0-2.8-1.0587-2.8-2.8875 0-1.75 0.9538-2.9137 2.7825-2.9137 1.7763 0 2.52 0.8312 2.52 2.2575 0 1.4437-0.2887 1.7762-0.6037 1.7762-0.2538 0-0.2975-0.21-0.2975-0.9275v-2.0912c-0.4725-0.2625-1.1113-0.42-1.6013-0.42zm-0.2362 3.36c-0.2625 0-0.3588-0.1838-0.3588-0.945 0-1.12 0.2363-1.365 0.4988-1.365 0.088 0 0.1487 0.01 0.2537 0.053v2.0125c-0.087 0.1575-0.2275 0.245-0.3937 0.245z"/>
   </g>
  </g>
 </g>
 <path id="path10679" style="color-rendering:auto;text-decoration-color:#000000;color:#000000;isolation:auto;mix-blend-mode:normal;shape-rendering:auto;solid-color:#000000;block-progression:tb;text-decoration-line:none;text-decoration-style:solid;image-rendering:auto;white-space:normal;text-indent:0;text-transform:none" d="m672.86 180.7 1.4582 1.4602h-1.0972v0.97414h1.0992l-1.4602 1.4603 5.1109-1.4603h0.11897v-0.0325l1.5833-0.45332-1.5833-0.4532v-0.0346h-0.12307l-5.1068-1.4602zm-627.49 1.4602v0.97414h1.9463v-0.97414h-1.9463zm2.9204 0v0.97414h1.9464v-0.97414h-1.9464zm2.9206 0v0.97414h1.9463v-0.97414h-1.9463zm2.9206 0v0.97414h1.9463v-0.97414h-1.9463zm2.9183 0v0.97414h1.9484v-0.97414h-1.9484zm2.9206 0v0.97414h1.9484v-0.97414h-1.9484zm2.9204 0v0.97414h1.9464v-0.97414h-1.9464zm2.9206 0v0.97414h1.9463v-0.97414h-1.9463zm2.9204 0v0.97414h1.9464v-0.97414h-1.9464zm2.9206 0v0.97414h1.9463v-0.97414h-1.9463zm2.9204 0v0.97414h1.9464v-0.97414h-1.9464zm2.9206 0v0.97414h1.9463v-0.97414h-1.9463zm2.9185 0v0.97414h1.9484v-0.97414h-1.9484zm2.9204 0v0.97414h1.9484v-0.97414h-1.9484zm2.9206 0v0.97414h1.9463v-0.97414h-1.9463zm2.9204 0v0.97414h1.9464v-0.97414h-1.9464zm2.9206 0v0.97414h1.9463v-0.97414h-1.9463zm2.9204 0v0.97414h1.9464v-0.97414h-1.9464zm2.9206 0v0.97414h1.9463v-0.97414h-1.9463zm2.9204 0v0.97414h1.9464v-0.97414h-1.9464zm2.9185 0v0.97414h1.9484v-0.97414h-1.9484zm2.9206 0v0.97414h1.9484v-0.97414h-1.9484zm2.9204 0v0.97414h1.9464v-0.97414h-1.9464zm2.9206 0v0.97414h1.9463v-0.97414h-1.9463zm2.9204 0v0.97414h1.9464v-0.97414h-1.9464zm2.9206 0v0.97414h1.9463v-0.97414h-1.9463zm2.9204 0v0.97414h1.9464v-0.97414h-1.9464zm2.9206 0v0.97414h1.9463v-0.97414h-1.9463zm2.9184 0v0.97414h1.9484v-0.97414h-1.9484zm2.9204 0v0.97414h1.9484v-0.97414h-1.9484zm2.9206 0v0.97414h1.9463v-0.97414h-1.9463zm2.9204 0v0.97414h1.9464v-0.97414h-1.9464zm2.9206 0v0.97414h1.9463v-0.97414h-1.9463zm2.9204 0v0.97414h1.9464v-0.97414h-1.9464zm2.9206 0v0.97414h1.9463v-0.97414h-1.9463zm2.9204 0v0.97414h1.9464v-0.97414h-1.9464zm2.9185 0v0.97414h1.9484v-0.97414h-1.9484zm2.9206 0v0.97414h1.9484v-0.97414h-1.9484zm2.9204 0v0.97414h1.9463v-0.97414h-1.9463zm2.9206 0v0.97414h1.9463v-0.97414h-1.9463zm2.9204 0v0.97414h1.9464v-0.97414h-1.9464zm2.9206 0v0.97414h1.9463v-0.97414h-1.9463zm2.9204 0v0.97414h1.9463v-0.97414h-1.9463zm2.9184 0v0.97414h1.9484v-0.97414h-1.9484zm2.9206 0v0.97414h1.9484v-0.97414h-1.9484zm2.9204 0v0.97414h1.9463v-0.97414h-1.9463zm2.9206 0v0.97414h1.9463v-0.97414h-1.9463zm2.9204 0v0.97414h1.9463v-0.97414h-1.9463zm2.9206 0v0.97414h1.9463v-0.97414h-1.9463zm2.9204 0v0.97414h1.9463v-0.97414h-1.9463zm2.9206 0v0.97414h1.9463v-0.97414h-1.9463zm2.9184 0v0.97414h1.9483v-0.97414h-1.9483zm2.9204 0v0.97414h1.9484v-0.97414h-1.9484zm2.9206 0v0.97414h1.9463v-0.97414h-1.9463zm2.9204 0v0.97414h1.9463v-0.97414h-1.9463zm2.9206 0v0.97414h1.9463v-0.97414h-1.9463zm2.9204 0v0.97414h1.9463v-0.97414h-1.9463zm2.9206 0v0.97414h1.9463v-0.97414h-1.9463zm2.9204 0v0.97414h1.9463v-0.97414h-1.9463zm2.9185 0v0.97414h1.9484v-0.97414h-1.9484zm2.9206 0v0.97414h1.9483v-0.97414h-1.9483zm2.9204 0v0.97414h1.9463v-0.97414h-1.9463zm2.9206 0v0.97414h1.9463v-0.97414h-1.9463zm2.9204 0v0.97414h1.9463v-0.97414h-1.9463zm2.9206 0v0.97414h1.9463v-0.97414h-1.9463zm2.9204 0v0.97414h1.9463v-0.97414h-1.9463zm2.9206 0v0.97414h1.9463v-0.97414h-1.9463zm2.9184 0v0.97414h1.9483v-0.97414h-1.9483zm2.9205 0v0.97414h1.9484v-0.97414h-1.9484zm2.9205 0v0.97414h1.9463v-0.97414h-1.9463zm2.9205 0v0.97414h1.9463v-0.97414h-1.9463zm2.9205 0v0.97414h1.9463v-0.97414h-1.9463zm2.9205 0v0.97414h1.9463v-0.97414h-1.9463zm2.9206 0v0.97414h1.9463v-0.97414h-1.9463zm2.9204 0v0.97414h1.9463v-0.97414h-1.9463zm2.9185 0v0.97414h1.9484v-0.97414h-1.9484zm2.9205 0v0.97414h1.9483v-0.97414h-1.9483zm2.9205 0v0.97414h1.9463v-0.97414h-1.9463zm2.9205 0v0.97414h1.9463v-0.97414h-1.9463zm2.9205 0v0.97414h1.9463v-0.97414h-1.9463zm2.9205 0v0.97414h1.9463v-0.97414h-1.9463zm2.9205 0v0.97414h1.9463v-0.97414h-1.9463zm2.9184 0v0.97414h1.9484v-0.97414h-1.9484zm2.9206 0v0.97414h1.9483v-0.97414h-1.9483zm2.9205 0v0.97414h1.9463v-0.97414h-1.9463zm2.9205 0v0.97414h1.9463v-0.97414h-1.9463zm2.9205 0v0.97414h1.9463v-0.97414h-1.9463zm2.9205 0v0.97414h1.9463v-0.97414h-1.9463zm2.9205 0v0.97414h1.9463v-0.97414h-1.9463zm2.9205 0v0.97414h1.9463v-0.97414h-1.9463zm2.9185 0v0.97414h1.9483v-0.97414h-1.9483zm2.9204 0v0.97414h1.9484v-0.97414h-1.9484zm2.9206 0v0.97414h1.9463v-0.97414h-1.9463zm2.9204 0v0.97414h1.9463v-0.97414h-1.9463zm2.9206 0v0.97414h1.9463v-0.97414h-1.9463zm2.9204 0v0.97414h1.9463v-0.97414h-1.9463zm2.9206 0v0.97414h1.9463v-0.97414h-1.9463zm2.9205 0v0.97414h1.9463v-0.97414h-1.9463zm2.9184 0v0.97414h1.9484v-0.97414h-1.9484zm2.9206 0v0.97414h1.9483v-0.97414h-1.9483zm2.9204 0v0.97414h1.9463v-0.97414h-1.9463zm2.9206 0v0.97414h1.9463v-0.97414h-1.9463zm2.9204 0v0.97414h1.9463v-0.97414h-1.9463zm2.9206 0v0.97414h1.9463v-0.97414h-1.9463zm2.9204 0v0.97414h1.9463v-0.97414h-1.9463zm2.9206 0v0.97414h1.9463v-0.97414h-1.9463zm2.9184 0v0.97414h1.9483v-0.97414h-1.9483zm2.9204 0v0.97414h1.9484v-0.97414h-1.9484zm2.9206 0v0.97414h1.9463v-0.97414h-1.9463zm2.9204 0v0.97414h1.9463v-0.97414h-1.9463zm2.9206 0v0.97414h1.9463v-0.97414h-1.9463zm2.9204 0v0.97414h1.9463v-0.97414h-1.9463zm2.9206 0v0.97414h1.9463v-0.97414h-1.9463zm2.9204 0v0.97414h1.9463v-0.97414h-1.9463zm2.9184 0v0.97414h1.9484v-0.97414h-1.9484zm2.9206 0v0.97414h1.9483v-0.97414h-1.9483zm2.9204 0v0.97414h1.9463v-0.97414h-1.9463zm2.9206 0v0.97414h1.9463v-0.97414h-1.9463zm2.9205 0v0.97414h1.9463v-0.97414h-1.9463zm2.9205 0v0.97414h1.9463v-0.97414h-1.9463zm2.9205 0v0.97414h1.9463v-0.97414h-1.9463zm2.9206 0v0.97414h1.9463v-0.97414h-1.9463zm2.9184 0v0.97414h1.9484v-0.97414h-1.9484zm2.9206 0v0.97414h1.9463v-0.97414h-1.9463zm2.9206 0v0.97414h1.9463v-0.97414h-1.9463zm2.9204 0v0.97414h1.9463v-0.97414h-1.9463zm2.9204 0v0.97414h1.9464v-0.97414h-1.9464zm2.9206 0v0.97414h1.9463v-0.97414h-1.9463zm2.9205 0v0.97414h1.9463v-0.97414h-1.9463zm2.9184 0v0.97414h1.9484v-0.97414h-1.9484zm2.9205 0v0.97414h1.9484v-0.97414h-1.9484zm2.9205 0v0.97414h1.9464v-0.97414h-1.9464zm2.9206 0v0.97414h1.9463v-0.97414h-1.9463zm2.9204 0v0.97414h1.9464v-0.97414h-1.9464zm2.9206 0v0.97414h1.9463v-0.97414h-1.9463zm2.9204 0v0.97414h1.9464v-0.97414h-1.9464zm2.9206 0v0.97414h1.9463v-0.97414h-1.9463zm2.9184 0v0.97414h1.9484v-0.97414h-1.9484zm2.9205 0v0.97414h1.9484v-0.97414h-1.9484zm2.9205 0v0.97414h1.9463v-0.97414h-1.9463zm2.9205 0v0.97414h1.9464v-0.97414h-1.9464zm2.9205 0v0.97414h1.9463v-0.97414h-1.9463zm2.9205 0v0.97414h1.9464v-0.97414h-1.9464zm2.9205 0v0.97414h1.9463v-0.97414h-1.9463zm2.9205 0v0.97414h1.9464v-0.97414h-1.9464zm2.9184 0v0.97414h1.9484v-0.97414h-1.9484zm2.9206 0v0.97414h1.9484v-0.97414h-1.9484zm2.9205 0v0.97414h1.9464v-0.97414h-1.9464zm2.9205 0v0.97414h1.9463v-0.97414h-1.9463zm2.9205 0v0.97414h1.9464v-0.97414h-1.9464zm2.9205 0v0.97414h1.9463v-0.97414h-1.9463zm2.9205 0v0.97414h1.9464v-0.97414h-1.9464zm2.9205 0v0.97414h1.9463v-0.97414h-1.9463zm2.9185 0v0.97414h1.9484v-0.97414h-1.9484zm2.9204 0v0.97414h1.9484v-0.97414h-1.9484zm2.9206 0v0.97414h1.9463v-0.97414h-1.9463zm2.9205 0v0.97414h1.9464v-0.97414h-1.9464zm2.9205 0v0.97414h1.9463v-0.97414h-1.9463zm2.9205 0v0.97414h1.9464v-0.97414h-1.9464zm2.9205 0v0.97414h1.9463v-0.97414h-1.9463zm2.9205 0v0.97414h1.9464v-0.97414h-1.9464zm2.9184 0v0.97414h1.9484v-0.97414h-1.9484zm2.9206 0v0.97414h1.9484v-0.97414h-1.9484zm2.9204 0v0.97414h1.9463v-0.97414h-1.9463zm2.9206 0v0.97414h1.9463v-0.97414h-1.9463zm2.9204 0v0.97414h1.9464v-0.97414h-1.9464zm2.9206 0v0.97414h1.9463v-0.97414h-1.9463zm2.9204 0v0.97414h1.9463v-0.97414h-1.9463zm2.9184 0v0.97414h1.9484v-0.97414h-1.9484zm2.9206 0v0.97414h1.9484v-0.97414h-1.9484zm2.9204 0v0.97414h1.9463v-0.97414h-1.9463zm2.9206 0v0.97414h1.9463v-0.97414h-1.9463zm2.9204 0v0.97414h1.9463v-0.97414h-1.9463zm2.9206 0v0.97414h1.9463v-0.97414h-1.9463zm2.9204 0v0.97414h1.9463v-0.97414h-1.9463zm2.9206 0v0.97414h1.9463v-0.97414h-1.9463zm2.9184 0v0.97414h1.9483v-0.97414h-1.9483zm2.9204 0v0.97414h1.9484v-0.97414h-1.9484zm2.9206 0v0.97414h1.9463v-0.97414h-1.9463zm2.9204 0v0.97414h1.9463v-0.97414h-1.9463zm2.9206 0v0.97414h1.9463v-0.97414h-1.9463zm2.9204 0v0.97414h1.9463v-0.97414h-1.9463zm2.9206 0v0.97414h1.9463v-0.97414h-1.9463zm2.9204 0v0.97414h1.9463v-0.97414h-1.9463zm2.9185 0v0.97414h1.9484v-0.97414h-1.9484zm2.9206 0v0.97414h1.9483v-0.97414h-1.9483zm2.9204 0v0.97414h1.9463v-0.97414h-1.9463zm2.9206 0v0.97414h1.9463v-0.97414h-1.9463zm2.9204 0v0.97414h1.9463v-0.97414h-1.9463zm2.9206 0v0.97414h1.9463v-0.97414h-1.9463zm2.9204 0v0.97414h1.9463v-0.97414h-1.9463zm2.9206 0v0.97414h1.9463v-0.97414h-1.9463zm2.9185 0v0.97414h1.9483v-0.97414h-1.9483zm2.9204 0v0.97414h1.9484v-0.97414h-1.9484zm2.9206 0v0.97414h1.9463v-0.97414h-1.9463zm2.9204 0v0.97414h1.9463v-0.97414h-1.9463zm2.9206 0v0.97414h1.9463v-0.97414h-1.9463zm2.9204 0v0.97414h1.9463v-0.97414h-1.9463zm2.9206 0v0.97414h1.9463v-0.97414h-1.9463zm2.9204 0v0.97414h1.9463v-0.97414h-1.9463zm2.9184 0v0.97414h1.9484v-0.97414h-1.9484zm2.9206 0v0.97414h1.9483v-0.97414h-1.9483zm2.9204 0v0.97414h1.9463v-0.97414h-1.9463zm2.9206 0v0.97414h1.9463v-0.97414h-1.9463zm2.9204 0v0.97414h1.9463v-0.97414h-1.9463zm2.9206 0v0.97414h1.9463v-0.97414h-1.9463zm2.9204 0v0.97414h1.9463v-0.97414h-1.9463zm2.9184 0v0.97414h1.9484v-0.97414h-1.9484zm2.9206 0v0.97414h1.9483v-0.97414h-1.9483zm2.9204 0v0.97414h1.9463v-0.97414h-1.9463zm2.9206 0v0.97414h1.9463v-0.97414h-1.9463zm2.9204 0v0.97414h1.9463v-0.97414h-1.9463zm2.9206 0v0.97414h1.9463v-0.97414h-1.9463zm2.9204 0v0.97414h1.9463v-0.97414h-1.9463zm2.9206 0v0.97414h1.9463v-0.97414h-1.9463z" fill-rule="evenodd" fill="#990d2e"/>
 <path id="path11284" style="color-rendering:auto;color:#000000;isolation:auto;mix-blend-mode:normal;shape-rendering:auto;solid-color:#000000;image-rendering:auto" d="m48.248 180.99v3.3247l-2.8792 1.6622-2.8792-1.6622v-3.3247l2.8792-1.6622z" fill="#990d2e"/>
 <g fill="#400015" fill-opacity=".98824">
  <g id="text14570">
   <path id="path15201" d="m119.74 89.569c-1.95 0-3.575 1.5375-3.575 4.45 0 2.9 1.5125 4.4625 3.6 4.4625 1.1625 0 1.9875-0.475 2.4625-0.9625l-0.5875-0.75c-0.4875 0.3625-1.025 0.7125-1.8375 0.7125-1.3375 0-2.375-0.97499-2.375-3.4625 0-2.6 1.0875-3.475 2.3875-3.475 0.6 0 1.125 0.2 1.6625 0.6375l0.65-0.7625c-0.6875-0.55-1.3-0.85-2.3875-0.85z"/>
   <path id="path15203" d="m126.34 91.594c-0.8 0-1.4125 0.5-1.7625 1.4875l-0.1125-1.3375h-0.9875v6.5875h1.15v-3.7625c0.275-1.2625 0.74999-1.85 1.575-1.85 0.2375 0 0.375 0.025 0.575 0.075l0.2125-1.125c-0.2-0.05-0.4375-0.075-0.65-0.075z"/>
   <path id="path15205" d="m132.92 94.844c0-2.0125-0.9375-3.25-2.7125-3.25-1.7 0-2.7375 1.4625-2.7375 3.5125 0 2.0875 1.075 3.375 2.9125 3.375 0.9125 0 1.65-0.3125 2.3-0.825l-0.5-0.6875c-0.57499 0.4-1.0625 0.575-1.7125 0.575-0.94999 0-1.6625-0.5875-1.775-2.1125h4.2c0.0125-0.15 0.025-0.3625 0.025-0.5875zm-1.1375-0.2625h-3.0875c0.0875-1.4625 0.6625-2.075 1.5375-2.075 1.0375 0 1.55 0.7125 1.55 2v0.075z"/>
   <path id="path15207" d="m139.07 96.794v-3.0125c0-1.375-0.725-2.1875-2.3125-2.1875-0.7375 0-1.4625 0.15-2.275 0.45l0.2875 0.8375c0.675-0.225 1.2875-0.35 1.775-0.35 0.9125 0 1.375 0.35 1.375 1.3v0.4875h-1.0125c-1.8375 0-2.9 0.7625-2.9 2.175 0 1.175 0.7875 1.9875 2.1 1.9875 0.8 0 1.5-0.3 1.9625-0.9875 0.2 0.65 0.625 0.9125 1.2875 0.9875l0.2625-0.8c-0.3375-0.125-0.55-0.3125-0.55-0.8875zm-2.7 0.825c-0.74999 0-1.1375-0.4125-1.1375-1.1875 0-0.9 0.6125-1.35 1.825-1.35h0.86249v1.5125c-0.37499 0.6875-0.87499 1.025-1.55 1.025z"/>
   <path id="path15209" d="m146.08 98.482c0.3375 0 0.6625-0.0875 0.91249-0.225l-0.29999-0.8c-0.125 0.05-0.2625 0.075-0.425 0.075-0.3 0-0.4125-0.175-0.4125-0.525v-8.05l-1.15 0.1375v7.9375c0 0.9375 0.53749 1.45 1.375 1.45z"/>
   <path id="path15211" d="m152.79 96.794v-3.0125c0-1.375-0.725-2.1875-2.3125-2.1875-0.73749 0-1.4625 0.15-2.275 0.45l0.2875 0.8375c0.675-0.225 1.2875-0.35 1.775-0.35 0.9125 0 1.375 0.35 1.375 1.3v0.4875h-1.0125c-1.8375 0-2.9 0.7625-2.9 2.175 0 1.175 0.78749 1.9875 2.1 1.9875 0.79999 0 1.5-0.3 1.9625-0.9875 0.19999 0.65 0.62499 0.9125 1.2875 0.9875l0.2625-0.8c-0.3375-0.125-0.55-0.3125-0.55-0.8875zm-2.7 0.825c-0.74999 0-1.1375-0.4125-1.1375-1.1875 0-0.9 0.6125-1.35 1.825-1.35h0.8625v1.5125c-0.375 0.6875-0.875 1.025-1.55 1.025z"/>
   <path id="path15213" d="m164.17 89.719h-1.2l-2.1625 7.325-2.1625-7.325h-1.275l2.775 8.6125h1.275l2.75-8.6125z"/>
   <path id="path15215" d="m172.39 89.719h-1.6125l-1.725 6.2625-1.8125-6.2625h-1.6l-0.7125 8.6125h1.125l0.2875-3.8c0.1-1.2625 0.1625-2.6 0.1625-3.6125l1.9625 6.4375h1.1125l1.8625-6.425c0.0125 0.7125 0.1 2.1625 0.2125 3.5125l0.3 3.8875h1.15l-0.7125-8.6125z"/>
   <path id="path15217" d="m175.36 96.744c-0.48749 0-0.86249 0.3875-0.86249 0.8625 0 0.3 0.1375 0.5625 0.35 0.725l-0.5 2.075h0.82499l0.8375-1.9125c0.1625-0.3625 0.225-0.6125 0.225-0.8875 0-0.475-0.375-0.8625-0.875-0.8625z"/>
   <path id="path15219" d="m106.35 104.21c-0.475 0-0.8 0.3375-0.8 0.78749 0 0.4375 0.325 0.775 0.8 0.775 0.48749 0 0.81249-0.3375 0.81249-0.775 0-0.44999-0.325-0.78749-0.81249-0.78749zm0.58749 3.1625h-1.15v6.5875h1.15v-6.5875z"/>
   <path id="path15221" d="m112.4 107.22c-0.8625 0-1.5625 0.45-2.0125 1.125l-0.1-0.975h-0.98749v6.5875h1.15v-4.675c0.4375-0.69999 0.93749-1.1625 1.675-1.1625 0.6375 0 1.0375 0.2875 1.0375 1.275v4.5625h1.15v-4.725c0-1.25-0.7-2.0125-1.9125-2.0125z"/>
   <path id="path15223" d="m118.41 107.22c-1.3625 0-2.375 0.7625-2.375 1.8125 0 0.925 0.5625 1.5375 1.9875 1.9125 1.275 0.3375 1.6 0.5875 1.6 1.2375 0 0.62499-0.55 0.99999-1.4125 0.99999-0.7125 0-1.325-0.2375-1.85-0.6375l-0.6125 0.7c0.575 0.5 1.375 0.8625 2.4875 0.8625 1.3375 0 2.6-0.625 2.6-2 0-1.15-0.79999-1.7-2.1875-2.05-1.0625-0.275-1.4125-0.525-1.4125-1.0625 0-0.52499 0.4625-0.86249 1.2125-0.86249 0.61249 0 1.125 0.1875 1.7125 0.56249l0.48749-0.72499c-0.62499-0.475-1.3125-0.75-2.2375-0.75z"/>
   <path id="path15225" d="m125.35 112.89c-0.325 0.175-0.5875 0.2625-0.87499 0.2625-0.575 0-0.7875-0.3125-0.7875-0.97499v-3.925h1.4375l0.125-0.8875h-1.5625v-1.625l-1.15 0.1375v1.4875h-1.15v0.8875h1.15v3.975c0 1.225 0.66249 1.875 1.775 1.875 0.56249 0 1.0375-0.15 1.475-0.45l-0.4375-0.7625z"/>
   <path id="path15227" d="m131.32 112.42v-3.0125c0-1.375-0.725-2.1875-2.3125-2.1875-0.7375 0-1.4625 0.15-2.275 0.45l0.2875 0.8375c0.67499-0.225 1.2875-0.35 1.775-0.35 0.91249 0 1.375 0.35 1.375 1.3v0.4875h-1.0125c-1.8375 0-2.9 0.76249-2.9 2.175 0 1.175 0.7875 1.9875 2.1 1.9875 0.8 0 1.5-0.3 1.9625-0.9875 0.2 0.65 0.625 0.9125 1.2875 0.9875l0.2625-0.8c-0.3375-0.125-0.54999-0.3125-0.54999-0.8875zm-2.7 0.825c-0.75 0-1.1375-0.4125-1.1375-1.1875 0-0.9 0.61249-1.35 1.825-1.35h0.86249v1.5125c-0.375 0.68749-0.87499 1.025-1.55 1.025z"/>
   <path id="path15229" d="m134.88 114.11c0.3375 0 0.6625-0.0875 0.91249-0.225l-0.29999-0.8c-0.125 0.05-0.2625 0.075-0.425 0.075-0.3 0-0.4125-0.175-0.4125-0.525v-8.05l-1.15 0.1375v7.9374c0 0.9375 0.53749 1.45 1.375 1.45z"/>
   <path id="path15231" d="m141.6 112.42v-3.0125c0-1.375-0.725-2.1875-2.3125-2.1875-0.73749 0-1.4625 0.15-2.275 0.45l0.2875 0.8375c0.675-0.225 1.2875-0.35 1.775-0.35 0.9125 0 1.375 0.35 1.375 1.3v0.4875h-1.0125c-1.8375 0-2.9 0.76249-2.9 2.175 0 1.175 0.78749 1.9875 2.1 1.9875 0.79999 0 1.5-0.3 1.9625-0.9875 0.19999 0.65 0.62499 0.9125 1.2875 0.9875l0.2625-0.8c-0.3375-0.125-0.55-0.3125-0.55-0.8875zm-2.7 0.825c-0.74999 0-1.1375-0.4125-1.1375-1.1875 0-0.9 0.6125-1.35 1.825-1.35h0.8625v1.5125c-0.375 0.68749-0.875 1.025-1.55 1.025z"/>
   <path id="path15233" d="m151.94 113.96h1.25l-2.75-8.6125h-1.5l-2.7625 8.6125h1.2l0.64999-2.1625h3.2625l0.64999 2.1625zm-3.625-3.125 1.35-4.5 1.3375 4.5h-2.6875z"/>
   <path id="path15235" d="m157.54 107.22c-0.86249 0-1.5625 0.45-2.0125 1.125l-0.1-0.975h-0.9875v6.5875h1.15v-4.675c0.4375-0.69999 0.9375-1.1625 1.675-1.1625 0.63749 0 1.0375 0.2875 1.0375 1.275v4.5625h1.15v-4.725c0-1.25-0.69999-2.0125-1.9125-2.0125z"/>
   <path id="path15237" d="m163.55 107.22c-1.3625 0-2.375 0.7625-2.375 1.8125 0 0.925 0.5625 1.5375 1.9875 1.9125 1.275 0.3375 1.6 0.5875 1.6 1.2375 0 0.62499-0.55 0.99999-1.4125 0.99999-0.71249 0-1.325-0.2375-1.85-0.6375l-0.61249 0.7c0.57499 0.5 1.375 0.8625 2.4875 0.8625 1.3375 0 2.6-0.625 2.6-2 0-1.15-0.8-1.7-2.1875-2.05-1.0625-0.275-1.4125-0.525-1.4125-1.0625 0-0.52499 0.4625-0.86249 1.2125-0.86249 0.6125 0 1.125 0.1875 1.7125 0.56249l0.4875-0.72499c-0.625-0.475-1.3125-0.75-2.2375-0.75z"/>
   <path id="path15239" d="m168.16 104.21c-0.475 0-0.8 0.3375-0.8 0.78749 0 0.4375 0.325 0.775 0.8 0.775 0.4875 0 0.81249-0.3375 0.81249-0.775 0-0.44999-0.32499-0.78749-0.81249-0.78749zm0.5875 3.1625h-1.15v6.5875h1.15v-6.5875z"/>
   <path id="path15241" d="m174.13 107.22c-0.79999 0-1.4125 0.3625-1.8625 0.975v-3.6125l-1.15 0.1375v9.2374h1.0125l0.1125-0.725c0.45 0.55 1.025 0.875 1.75 0.875 1.6 0 2.5875-1.3875 2.5875-3.45 0-2.2-0.9625-3.4375-2.45-3.4375zm-0.4125 5.975c-0.58749 0-1.1125-0.3625-1.45-0.88749v-3.15c0.3375-0.525 0.8125-1.025 1.5375-1.025 0.925 0 1.5375 0.64999 1.5375 2.525 0 1.8-0.66249 2.5375-1.625 2.5375z"/>
   <path id="path15243" d="m179.85 114.11c0.3375 0 0.66249-0.0875 0.91249-0.225l-0.3-0.8c-0.125 0.05-0.26249 0.075-0.42499 0.075-0.3 0-0.4125-0.175-0.4125-0.525v-8.05l-1.15 0.1375v7.9374c0 0.9375 0.5375 1.45 1.375 1.45z"/>
   <path id="path15245" d="m187.1 110.47c0-2.0125-0.93749-3.25-2.7125-3.25-1.7 0-2.7375 1.4625-2.7375 3.5125 0 2.0875 1.075 3.375 2.9125 3.375 0.91249 0 1.65-0.3125 2.3-0.825l-0.49999-0.6875c-0.575 0.4-1.0625 0.575-1.7125 0.575-0.95 0-1.6625-0.5875-1.775-2.1125h4.2c0.0125-0.15 0.025-0.3625 0.025-0.58749zm-1.1375-0.2625h-3.0875c0.0875-1.4625 0.6625-2.075 1.5375-2.075 1.0375 0 1.55 0.71249 1.55 2v0.075z"/>
  </g>
  <g id="text14576">
   <path id="path15174" d="m299.39 88.463h-1.1875v8.6125h1.1875v-8.6125z"/>
   <path id="path15176" d="m304.93 90.338c-0.8625 0-1.5625 0.45-2.0125 1.125l-0.1-0.975h-0.9875v6.5875h1.15v-4.675c0.43749-0.7 0.93749-1.1625 1.675-1.1625 0.6375 0 1.0375 0.2875 1.0375 1.275v4.5625h1.15v-4.725c0-1.25-0.7-2.0125-1.9125-2.0125z"/>
   <path id="path15178" d="m310.94 90.338c-1.3625 0-2.375 0.7625-2.375 1.8125 0 0.925 0.56249 1.5375 1.9875 1.9125 1.275 0.3375 1.6 0.5875 1.6 1.2375 0 0.625-0.55 1-1.4125 1-0.71249 0-1.325-0.2375-1.85-0.6375l-0.61249 0.7c0.57499 0.5 1.375 0.8625 2.4875 0.8625 1.3375 0 2.6-0.625 2.6-2 0-1.15-0.79999-1.7-2.1875-2.05-1.0625-0.275-1.4125-0.525-1.4125-1.0625 0-0.525 0.4625-0.8625 1.2125-0.8625 0.6125 0 1.125 0.1875 1.7125 0.5625l0.4875-0.725c-0.62499-0.475-1.3125-0.75-2.2375-0.75z"/>
   <path id="path15180" d="m317.87 96.013c-0.325 0.175-0.5875 0.2625-0.875 0.2625-0.57499 0-0.78749-0.3125-0.78749-0.975v-3.925h1.4375l0.125-0.8875h-1.5625v-1.625l-1.15 0.1375v1.4875h-1.15v0.8875h1.15v3.975c0 1.225 0.6625 1.875 1.775 1.875 0.5625 0 1.0375-0.15 1.475-0.45l-0.4375-0.7625z"/>
   <path id="path15182" d="m323.84 95.538v-3.0125c0-1.375-0.72499-2.1875-2.3125-2.1875-0.73749 0-1.4625 0.15-2.275 0.45l0.28749 0.8375c0.675-0.225 1.2875-0.35 1.775-0.35 0.91249 0 1.375 0.35 1.375 1.3v0.4875h-1.0125c-1.8375 0-2.9 0.7625-2.9 2.175 0 1.175 0.78749 1.9875 2.1 1.9875 0.79999 0 1.5-0.3 1.9625-0.98749 0.2 0.65 0.62499 0.9125 1.2875 0.98749l0.2625-0.8c-0.3375-0.125-0.55-0.3125-0.55-0.8875zm-2.7 0.825c-0.75 0-1.1375-0.4125-1.1375-1.1875 0-0.9 0.6125-1.35 1.825-1.35h0.8625v1.5125c-0.375 0.6875-0.875 1.025-1.55 1.025z"/>
   <path id="path15184" d="m327.41 97.226c0.3375 0 0.66249-0.0875 0.91249-0.225l-0.3-0.8c-0.125 0.05-0.26249 0.075-0.42499 0.075-0.3 0-0.4125-0.175-0.4125-0.525v-8.05l-1.15 0.1375v7.9375c0 0.9375 0.5375 1.45 1.375 1.45z"/>
   <path id="path15186" d="m334.12 95.538v-3.0125c0-1.375-0.725-2.1875-2.3125-2.1875-0.7375 0-1.4625 0.15-2.275 0.45l0.2875 0.8375c0.675-0.225 1.2875-0.35 1.775-0.35 0.9125 0 1.375 0.35 1.375 1.3v0.4875h-1.0125c-1.8375 0-2.9 0.7625-2.9 2.175 0 1.175 0.78749 1.9875 2.1 1.9875 0.8 0 1.5-0.3 1.9625-0.98749 0.2 0.65 0.625 0.9125 1.2875 0.98749l0.2625-0.8c-0.3375-0.125-0.55-0.3125-0.55-0.8875zm-2.7 0.825c-0.74999 0-1.1375-0.4125-1.1375-1.1875 0-0.9 0.6125-1.35 1.825-1.35h0.86249v1.5125c-0.37499 0.6875-0.87499 1.025-1.55 1.025z"/>
   <path id="path15188" d="m299.46 104.09h-2.2625v8.6125h1.1875v-3.1625h1.0875c1.9 0 3.3375-0.81249 3.3375-2.7875 0-1.8125-1.275-2.6625-3.35-2.6625zm-0.0375 4.5125h-1.0375v-3.5875h1.0625c1.275 0 2.1 0.46249 2.1 1.75 0 1.4625-0.84999 1.8375-2.125 1.8375z"/>
   <path id="path15190" d="m308.95 106.11h-1.15v4.7c-0.4 0.66249-0.93749 1.1375-1.65 1.1375-0.7125 0-1.0125-0.3375-1.0125-1.2375v-4.6h-1.15v4.725c0 1.2875 0.6875 2.0125 1.8375 2.0125 0.9375 0 1.55-0.375 2.05-1.175l0.0875 1.025h0.9875v-6.5875z"/>
   <path id="path15192" d="m314.35 105.96c-0.75 0-1.4625 0.3625-1.95 1.0375l-0.0875-0.8875h-0.9875v9.25l1.15-0.1375v-3.125c0.425 0.5125 1.0125 0.75 1.725 0.75 1.7 0 2.5875-1.45 2.5875-3.45 0-2.075-0.6875-3.4375-2.4375-3.4375zm-0.425 5.95c-0.6 0-1.1125-0.2875-1.45-0.8v-3.2125c0.35-0.525 0.88749-1.025 1.5875-1.025 0.98749 0 1.4875 0.81249 1.4875 2.525 0 1.725-0.575 2.5125-1.625 2.5125z"/>
   <path id="path15194" d="m321.77 105.96c-0.74999 0-1.4625 0.3625-1.95 1.0375l-0.0875-0.8875h-0.98749v9.25l1.15-0.1375v-3.125c0.425 0.5125 1.0125 0.75 1.725 0.75 1.7 0 2.5875-1.45 2.5875-3.45 0-2.075-0.6875-3.4375-2.4375-3.4375zm-0.42499 5.95c-0.6 0-1.1125-0.2875-1.45-0.8v-3.2125c0.35-0.525 0.8875-1.025 1.5875-1.025 0.9875 0 1.4875 0.81249 1.4875 2.525 0 1.725-0.575 2.5125-1.625 2.5125z"/>
   <path id="path15196" d="m331.14 109.21c0-2.0125-0.9375-3.25-2.7125-3.25-1.7 0-2.7375 1.4625-2.7375 3.5125 0 2.0875 1.075 3.375 2.9125 3.375 0.9125 0 1.65-0.3125 2.3-0.825l-0.5-0.6875c-0.57499 0.4-1.0625 0.575-1.7125 0.575-0.94999 0-1.6625-0.5875-1.775-2.1125h4.2c0.0125-0.15 0.025-0.3625 0.025-0.5875zm-1.1375-0.26249h-3.0875c0.0875-1.4625 0.6625-2.075 1.5375-2.075 1.0375 0 1.55 0.71249 1.55 2v0.075z"/>
   <path id="path15198" d="m335.87 111.64c-0.325 0.175-0.5875 0.2625-0.875 0.2625-0.57499 0-0.78749-0.3125-0.78749-0.97499v-3.925h1.4375l0.125-0.8875h-1.5625v-1.625l-1.15 0.1375v1.4875h-1.15v0.8875h1.15v3.975c0 1.225 0.6625 1.875 1.775 1.875 0.5625 0 1.0375-0.15 1.475-0.45l-0.4375-0.7625z"/>
  </g>
  <g id="text14586">
   <path id="path15069" d="m462.04 68.541c-1.755 0-3.2175 1.3837-3.2175 4.005 0 2.61 1.3612 4.0162 3.24 4.0162 1.0462 0 1.7888-0.4275 2.2162-0.86625l-0.52874-0.675c-0.43875 0.32625-0.9225 0.64125-1.6538 0.64125-1.2037 0-2.1375-0.8775-2.1375-3.1162 0-2.34 0.97874-3.1275 2.1487-3.1275 0.54 0 1.0125 0.18 1.4962 0.57375l0.58499-0.68625c-0.61874-0.495-1.17-0.765-2.1487-0.765z"/>
   <path id="path15071" d="m467.58 70.364c-1.6875 0-2.655 1.2712-2.655 3.105 0 1.8787 0.95624 3.0937 2.6437 3.0937 1.6762 0 2.6437-1.2712 2.6437-3.105 0-1.8787-0.945-3.0937-2.6325-3.0937zm0 0.8325c0.97875 0 1.5187 0.72 1.5187 2.2612 0 1.5525-0.53999 2.2725-1.53 2.2725-0.98999 0-1.53-0.72-1.53-2.2612 0-1.5525 0.55125-2.2725 1.5412-2.2725z"/>
   <path id="path15073" d="m474.71 70.364c-0.77625 0-1.4062 0.405-1.8112 1.0125l-0.09-0.8775h-0.88875v5.9287h1.035v-4.2075c0.39375-0.63 0.84374-1.0462 1.5075-1.0462 0.57375 0 0.93374 0.25875 0.93374 1.1475v4.1062h1.035v-4.2525c0-1.125-0.63-1.8112-1.7212-1.8112z"/>
   <path id="path15075" d="m480.55 67.99c-1.44 0-2.0475 0.73125-2.0475 1.7325v0.77625h-0.945v0.79875h0.945v5.13h1.035v-5.13h2.2725v5.13h1.035v-5.9287h-3.3075v-0.7875c0-0.5625 0.21375-0.8775 1.0462-0.8775 0.46125 0 0.8775 0.10125 1.2488 0.28125l0.36-0.72c-0.48375-0.2475-0.97875-0.405-1.6425-0.405z"/>
   <path id="path15077" d="m489.45 69.835c-0.6975 0.315-1.2375 0.5625-2.7112 0.52875-1.305 0-2.2837 0.855-2.2837 2.07 0 0.765 0.315 1.2825 1.0012 1.6425-0.4275 0.28125-0.6525 0.66375-0.6525 1.0462 0 0.59625 0.4725 1.125 1.53 1.125h0.93375c0.7425 0 1.1925 0.28125 1.1925 0.84374 0 0.59625-0.44999 0.9225-1.7325 0.9225-1.305 0-1.6087-0.315-1.6087-0.99h-0.93374c0 1.2037 0.60749 1.8 2.5425 1.8 1.8337 0 2.7787-0.6525 2.7787-1.8 0-0.945-0.81-1.6425-2.025-1.6425h-0.945c-0.60749 0-0.77624-0.21375-0.77624-0.48375 0-0.21375 0.12375-0.4275 0.2925-0.55125 0.24749 0.07875 0.48374 0.1125 0.75374 0.1125 1.4175 0 2.2612-0.84375 2.2612-2.0137 0-0.68625-0.34875-1.1812-1.0462-1.4962 0.67499 0 1.2375-0.0225 1.7325-0.18l-0.30375-0.93374zm-2.7112 1.2712c0.84375 0 1.2712 0.45 1.2712 1.3162 0 0.855-0.43875 1.35-1.2488 1.35-0.80999 0-1.2487-0.55125-1.2487-1.3387 0-0.77625 0.4275-1.3275 1.2262-1.3275z"/>
   <path id="path15079" d="m495.12 70.499h-1.035v4.23c-0.36 0.59625-0.84375 1.0237-1.485 1.0237s-0.91125-0.30375-0.91125-1.1137v-4.14h-1.035v4.2525c0 1.1587 0.61874 1.8112 1.6537 1.8112 0.84374 0 1.395-0.3375 1.845-1.0575l0.0788 0.9225h0.88874v-5.9287z"/>
   <path id="path15081" d="m499.83 70.364c-0.72 0-1.2712 0.45-1.5862 1.3387l-0.10125-1.2037h-0.88875v5.9287h1.035v-3.3862c0.2475-1.1362 0.67499-1.665 1.4175-1.665 0.21375 0 0.3375 0.0225 0.5175 0.0675l0.19125-1.0125c-0.18-0.045-0.39375-0.0675-0.585-0.0675z"/>
   <path id="path15083" d="m505.21 75.044v-2.7112c0-1.2375-0.6525-1.9687-2.0812-1.9687-0.66375 0-1.3162 0.135-2.0475 0.405l0.25875 0.75375c0.6075-0.2025 1.1587-0.315 1.5975-0.315 0.82125 0 1.2375 0.315 1.2375 1.17v0.43875h-0.91124c-1.6537 0-2.61 0.68625-2.61 1.9575 0 1.0575 0.70875 1.7887 1.89 1.7887 0.72 0 1.35-0.27 1.7662-0.88874 0.18 0.585 0.5625 0.82124 1.1588 0.88874l0.23625-0.72c-0.30375-0.1125-0.495-0.28125-0.495-0.79875zm-2.43 0.7425c-0.675 0-1.0237-0.37125-1.0237-1.0687 0-0.81 0.55124-1.215 1.6425-1.215h0.77624v1.3612c-0.33749 0.61875-0.78749 0.9225-1.395 0.9225z"/>
   <path id="path15085" d="m514.81 73.289c0-1.8112-0.84374-2.925-2.4412-2.925-1.53 0-2.4637 1.3162-2.4637 3.1612 0 1.8787 0.96749 3.0375 2.6212 3.0375 0.82125 0 1.485-0.28125 2.07-0.7425l-0.44999-0.61875c-0.5175 0.36-0.95625 0.5175-1.5412 0.5175-0.85499 0-1.4962-0.52875-1.5975-1.9012h3.78c0.0112-0.135 0.0225-0.32625 0.0225-0.52875zm-1.0237-0.23625h-2.7787c0.0787-1.3162 0.59625-1.8675 1.3837-1.8675 0.93375 0 1.395 0.64125 1.395 1.8v0.0675z"/>
   <path id="path15087" d="m517.64 76.562c0.30374 0 0.59624-0.07875 0.82124-0.2025l-0.27-0.72c-0.1125 0.045-0.23625 0.0675-0.38249 0.0675-0.27 0-0.37125-0.1575-0.37125-0.4725v-7.245l-1.035 0.12375v7.1437c0 0.84374 0.48375 1.305 1.2375 1.305z"/>
   <path id="path15089" d="m474.37 84.426c-1.2262 0-2.1375 0.68625-2.1375 1.6312 0 0.8325 0.50625 1.3837 1.7887 1.7212 1.1475 0.30375 1.44 0.52875 1.44 1.1137 0 0.5625-0.495 0.9-1.2712 0.9-0.64124 0-1.1925-0.21375-1.665-0.57375l-0.55125 0.63c0.5175 0.45 1.2375 0.77625 2.2387 0.77625 1.2038 0 2.34-0.5625 2.34-1.8 0-1.035-0.72-1.53-1.9687-1.845-0.95625-0.2475-1.2712-0.4725-1.2712-0.95624 0-0.4725 0.41624-0.77625 1.0912-0.77625 0.55125 0 1.0125 0.16875 1.5412 0.50625l0.43875-0.6525c-0.5625-0.4275-1.1812-0.675-2.0137-0.675z"/>
   <path id="path15091" d="m482.49 87.351c0-1.8112-0.84374-2.925-2.4412-2.925-1.53 0-2.4637 1.3162-2.4637 3.1612 0 1.8787 0.96749 3.0375 2.6212 3.0375 0.82124 0 1.485-0.28125 2.07-0.7425l-0.44999-0.61875c-0.5175 0.36-0.95625 0.5175-1.5412 0.5175-0.85499 0-1.4962-0.52875-1.5975-1.9012h3.78c0.0112-0.135 0.0225-0.32625 0.0225-0.52875zm-1.0237-0.23625h-2.7787c0.0788-1.3162 0.59625-1.8675 1.3838-1.8675 0.93374 0 1.395 0.64125 1.395 1.8v0.0675z"/>
   <path id="path15093" d="m486.72 84.426c-0.71999 0-1.2712 0.45-1.5862 1.3387l-0.10125-1.2037h-0.88874v5.9287h1.035v-3.3862c0.2475-1.1362 0.675-1.665 1.4175-1.665 0.21375 0 0.3375 0.0225 0.5175 0.0675l0.19125-1.0125c-0.18-0.045-0.39375-0.0675-0.585-0.0675z"/>
   <path id="path15095" d="m492.85 84.561h-1.0912l-1.5412 5.0062-1.5525-5.0062h-1.125l2.0475 5.9287h1.2488l2.0137-5.9287z"/>
   <path id="path15097" d="m498.46 87.351c0-1.8112-0.84375-2.925-2.4412-2.925-1.53 0-2.4637 1.3162-2.4637 3.1612 0 1.8787 0.96749 3.0375 2.6212 3.0375 0.82125 0 1.485-0.28125 2.07-0.7425l-0.45-0.61875c-0.51749 0.36-0.95624 0.5175-1.5412 0.5175-0.85499 0-1.4962-0.52875-1.5975-1.9012h3.78c0.0113-0.135 0.0225-0.32625 0.0225-0.52875zm-1.0238-0.23625h-2.7787c0.0788-1.3162 0.59625-1.8675 1.3837-1.8675 0.93375 0 1.395 0.64125 1.395 1.8v0.0675z"/>
   <path id="path15099" d="m502.69 84.426c-0.72 0-1.2712 0.45-1.5862 1.3387l-0.10125-1.2037h-0.88875v5.9287h1.035v-3.3862c0.24749-1.1362 0.67499-1.665 1.4175-1.665 0.21375 0 0.3375 0.0225 0.5175 0.0675l0.19124-1.0125c-0.17999-0.045-0.39374-0.0675-0.58499-0.0675z"/>
   <path id="path15101" d="m503.83 89.061c-0.43875 0-0.77625 0.34875-0.77625 0.77625 0 0.27 0.12375 0.50625 0.315 0.6525l-0.45 1.8675h0.7425l0.75375-1.7212c0.14625-0.32625 0.2025-0.55125 0.2025-0.79875 0-0.4275-0.3375-0.77625-0.7875-0.77625z"/>
   <path id="path15103" d="m448.88 95.777c-0.4275 0-0.72 0.30375-0.72 0.70875 0 0.39375 0.2925 0.6975 0.72 0.6975 0.43874 0 0.73124-0.30375 0.73124-0.6975 0-0.405-0.2925-0.70875-0.73124-0.70875zm0.52874 2.8462h-1.035v5.9287h1.035v-5.9287z"/>
   <path id="path15105" d="m454.32 98.489c-0.77625 0-1.4062 0.405-1.8112 1.0125l-0.09-0.8775h-0.88874v5.9287h1.035v-4.2075c0.39375-0.63 0.84375-1.0462 1.5075-1.0462 0.57375 0 0.93375 0.25875 0.93375 1.1475v4.1062h1.035v-4.2525c0-1.125-0.63-1.8112-1.7212-1.8112z"/>
   <path id="path15107" d="m459.73 98.489c-1.2262 0-2.1375 0.68625-2.1375 1.6312 0 0.83249 0.50625 1.3837 1.7887 1.7212 1.1475 0.30375 1.44 0.52875 1.44 1.1137 0 0.5625-0.49499 0.9-1.2712 0.9-0.64125 0-1.1925-0.21375-1.665-0.57375l-0.55125 0.63c0.5175 0.45 1.2375 0.77624 2.2387 0.77624 1.2037 0 2.34-0.56249 2.34-1.8 0-1.035-0.72-1.53-1.9687-1.845-0.95625-0.2475-1.2712-0.47249-1.2712-0.95624 0-0.4725 0.41625-0.77625 1.0912-0.77625 0.55125 0 1.0125 0.16875 1.5412 0.50625l0.43875-0.6525c-0.5625-0.4275-1.1812-0.675-2.0137-0.675z"/>
   <path id="path15109" d="m465.98 103.6c-0.2925 0.1575-0.52875 0.23625-0.7875 0.23625-0.51749 0-0.70874-0.28125-0.70874-0.8775v-3.5325h1.2937l0.1125-0.79875h-1.4062v-1.4625l-1.035 0.12375v1.3387h-1.035v0.79875h1.035v3.5775c0 1.1025 0.59625 1.6875 1.5975 1.6875 0.50624 0 0.93374-0.135 1.3275-0.40499l-0.39375-0.68625z"/>
   <path id="path15111" d="m471.35 103.17v-2.7112c0-1.2375-0.65249-1.9687-2.0812-1.9687-0.66375 0-1.3162 0.135-2.0475 0.405l0.25874 0.75375c0.6075-0.2025 1.1588-0.315 1.5975-0.315 0.82124 0 1.2375 0.315 1.2375 1.17v0.43874h-0.91125c-1.6537 0-2.61 0.68625-2.61 1.9575 0 1.0575 0.70874 1.7887 1.89 1.7887 0.71999 0 1.35-0.26999 1.7662-0.88874 0.18 0.585 0.5625 0.82124 1.1587 0.88874l0.23625-0.71999c-0.30375-0.1125-0.495-0.28125-0.495-0.79875zm-2.43 0.7425c-0.675 0-1.0238-0.37125-1.0238-1.0688 0-0.80999 0.55125-1.215 1.6425-1.215h0.77625v1.3612c-0.3375 0.61875-0.7875 0.9225-1.395 0.9225z"/>
   <path id="path15113" d="m474.56 104.69c0.30375 0 0.59625-0.0787 0.82125-0.20249l-0.27-0.72c-0.1125 0.045-0.23625 0.0675-0.3825 0.0675-0.27 0-0.37124-0.1575-0.37124-0.4725v-7.245l-1.035 0.12375v7.1437c0 0.84375 0.48375 1.305 1.2375 1.305z"/>
   <path id="path15115" d="m480.6 103.17v-2.7112c0-1.2375-0.65249-1.9687-2.0812-1.9687-0.66374 0-1.3162 0.135-2.0475 0.405l0.25875 0.75375c0.6075-0.2025 1.1588-0.315 1.5975-0.315 0.82125 0 1.2375 0.315 1.2375 1.17v0.43874h-0.91125c-1.6537 0-2.61 0.68625-2.61 1.9575 0 1.0575 0.70874 1.7887 1.89 1.7887 0.71999 0 1.35-0.26999 1.7662-0.88874 0.18 0.585 0.56249 0.82124 1.1587 0.88874l0.23625-0.71999c-0.30375-0.1125-0.495-0.28125-0.495-0.79875zm-2.43 0.7425c-0.675 0-1.0238-0.37125-1.0238-1.0688 0-0.80999 0.55125-1.215 1.6425-1.215h0.77625v1.3612c-0.3375 0.61875-0.7875 0.9225-1.395 0.9225z"/>
   <path id="path15117" d="m486.9 104.69c0.30375 0 0.59625-0.0787 0.82125-0.20249l-0.27-0.72c-0.1125 0.045-0.23625 0.0675-0.3825 0.0675-0.27 0-0.37125-0.1575-0.37125-0.4725v-7.245l-1.035 0.12375v7.1437c0 0.84375 0.48374 1.305 1.2375 1.305z"/>
   <path id="path15119" d="m492.95 103.17v-2.7112c0-1.2375-0.6525-1.9687-2.0812-1.9687-0.66374 0-1.3162 0.135-2.0475 0.405l0.25875 0.75375c0.6075-0.2025 1.1588-0.315 1.5975-0.315 0.82125 0 1.2375 0.315 1.2375 1.17v0.43874h-0.91125c-1.6537 0-2.61 0.68625-2.61 1.9575 0 1.0575 0.70875 1.7887 1.89 1.7887 0.72 0 1.35-0.26999 1.7662-0.88874 0.17999 0.585 0.56249 0.82124 1.1587 0.88874l0.23625-0.71999c-0.30375-0.1125-0.495-0.28125-0.495-0.79875zm-2.43 0.7425c-0.67499 0-1.0237-0.37125-1.0237-1.0688 0-0.80999 0.55125-1.215 1.6425-1.215h0.77625v1.3612c-0.3375 0.61875-0.7875 0.9225-1.395 0.9225z"/>
   <path id="path15121" d="m496.58 98.489c-1.2262 0-2.1375 0.68625-2.1375 1.6312 0 0.83249 0.50625 1.3837 1.7887 1.7212 1.1475 0.30375 1.44 0.52875 1.44 1.1137 0 0.5625-0.49499 0.9-1.2712 0.9-0.64125 0-1.1925-0.21375-1.665-0.57375l-0.55125 0.63c0.5175 0.45 1.2375 0.77624 2.2387 0.77624 1.2038 0 2.34-0.56249 2.34-1.8 0-1.035-0.72-1.53-1.9687-1.845-0.95625-0.2475-1.2712-0.47249-1.2712-0.95624 0-0.4725 0.41624-0.77625 1.0912-0.77625 0.55125 0 1.0125 0.16875 1.5412 0.50625l0.43875-0.6525c-0.5625-0.4275-1.1812-0.675-2.0137-0.675z"/>
   <path id="path15123" d="m507.21 103.17v-2.7112c0-1.2375-0.6525-1.9687-2.0812-1.9687-0.66375 0-1.3162 0.135-2.0475 0.405l0.25875 0.75375c0.6075-0.2025 1.1587-0.315 1.5975-0.315 0.82125 0 1.2375 0.315 1.2375 1.17v0.43874h-0.91124c-1.6537 0-2.61 0.68625-2.61 1.9575 0 1.0575 0.70875 1.7887 1.89 1.7887 0.72 0 1.35-0.26999 1.7662-0.88874 0.18 0.585 0.5625 0.82124 1.1588 0.88874l0.23625-0.71999c-0.30375-0.1125-0.495-0.28125-0.495-0.79875zm-2.43 0.7425c-0.675 0-1.0237-0.37125-1.0237-1.0688 0-0.80999 0.55124-1.215 1.6425-1.215h0.77624v1.3612c-0.33749 0.61875-0.78749 0.9225-1.395 0.9225z"/>
   <path id="path15125" d="m512.07 98.489c-0.675 0-1.3162 0.32625-1.755 0.93374l-0.0787-0.79875h-0.88875v8.325l1.035-0.12375v-2.8125c0.3825 0.46125 0.91125 0.67499 1.5525 0.67499 1.53 0 2.3287-1.305 2.3287-3.105 0-1.8675-0.61874-3.0937-2.1937-3.0937zm-0.3825 5.355c-0.54 0-1.0012-0.25875-1.305-0.72v-2.8912c0.315-0.4725 0.79875-0.9225 1.4288-0.9225 0.88874 0 1.3387 0.73125 1.3387 2.2725 0 1.5525-0.5175 2.2612-1.4625 2.2612z"/>
   <path id="path15127" d="m518.75 98.489c-0.67499 0-1.3162 0.32625-1.755 0.93374l-0.0788-0.79875h-0.88874v8.325l1.035-0.12375v-2.8125c0.3825 0.46125 0.91125 0.67499 1.5525 0.67499 1.53 0 2.3287-1.305 2.3287-3.105 0-1.8675-0.61874-3.0937-2.1937-3.0937zm-0.38249 5.355c-0.54 0-1.0012-0.25875-1.305-0.72v-2.8912c0.315-0.4725 0.79875-0.9225 1.4288-0.9225 0.88874 0 1.3387 0.73125 1.3387 2.2725 0 1.5525-0.5175 2.2612-1.4625 2.2612z"/>
   <path id="path15129" d="m524.31 98.489c-1.2262 0-2.1375 0.68625-2.1375 1.6312 0 0.83249 0.50625 1.3837 1.7887 1.7212 1.1475 0.30375 1.44 0.52875 1.44 1.1137 0 0.5625-0.495 0.9-1.2712 0.9-0.64125 0-1.1925-0.21375-1.665-0.57375l-0.55125 0.63c0.5175 0.45 1.2375 0.77624 2.2387 0.77624 1.2037 0 2.34-0.56249 2.34-1.8 0-1.035-0.72-1.53-1.9687-1.845-0.95625-0.2475-1.2712-0.47249-1.2712-0.95624 0-0.4725 0.41625-0.77625 1.0912-0.77625 0.55124 0 1.0125 0.16875 1.5412 0.50625l0.43875-0.6525c-0.5625-0.4275-1.1812-0.675-2.0137-0.675z"/>
   <path id="path15131" d="m528.22 103.12c-0.43875 0-0.77625 0.34875-0.77625 0.77625 0 0.27 0.12375 0.50625 0.315 0.65249l-0.45 1.8675h0.7425l0.75375-1.7212c0.14625-0.32624 0.2025-0.55124 0.2025-0.79874 0-0.4275-0.3375-0.77625-0.7875-0.77625z"/>
   <path id="path15133" d="m462.36 115.48c0-1.8112-0.84375-2.925-2.4412-2.925-1.53 0-2.4637 1.3162-2.4637 3.1612 0 1.8787 0.9675 3.0375 2.6212 3.0375 0.82124 0 1.485-0.28125 2.07-0.7425l-0.45-0.61874c-0.5175 0.36-0.95625 0.51749-1.5412 0.51749-0.855 0-1.4962-0.52874-1.5975-1.9012h3.78c0.0112-0.13499 0.0225-0.32624 0.0225-0.52874zm-1.0238-0.23625h-2.7787c0.0788-1.3162 0.59624-1.8675 1.3837-1.8675 0.93374 0 1.395 0.64125 1.395 1.8v0.0675z"/>
   <path id="path15135" d="m466.8 112.55c-0.77624 0-1.4062 0.405-1.8112 1.0125l-0.09-0.8775h-0.88874v5.9287h1.035v-4.2075c0.39375-0.62999 0.84375-1.0462 1.5075-1.0462 0.57375 0 0.93375 0.25875 0.93375 1.1475v4.1062h1.035v-4.2525c0-1.125-0.62999-1.8112-1.7212-1.8112z"/>
   <path id="path15137" d="m474.87 112.69h-1.0912l-1.5412 5.0062-1.5525-5.0062h-1.125l2.0475 5.9287h1.2488l2.0137-5.9287z"/>
   <path id="path15139" d="m477.46 109.6-2.2387 1.2825 0.31499 0.55125 2.385-0.9675-0.46125-0.86624zm-0.37124 3.0825h-1.035v5.9287h1.035v-5.9287z"/>
   <path id="path15141" d="m483.21 117.23v-2.7112c0-1.2375-0.6525-1.9687-2.0812-1.9687-0.66375 0-1.3162 0.135-2.0475 0.405l0.25875 0.75375c0.60749-0.2025 1.1587-0.315 1.5975-0.315 0.82124 0 1.2375 0.315 1.2375 1.17v0.43875h-0.91124c-1.6538 0-2.61 0.68625-2.61 1.9575 0 1.0575 0.70875 1.7887 1.89 1.7887 0.72 0 1.35-0.27 1.7662-0.88875 0.18 0.585 0.5625 0.82125 1.1587 0.88875l0.23625-0.72c-0.30375-0.1125-0.49499-0.28124-0.49499-0.79874zm-2.43 0.74249c-0.675 0-1.0238-0.37124-1.0238-1.0687 0-0.81 0.55125-1.215 1.6425-1.215h0.77625v1.3612c-0.3375 0.61875-0.7875 0.92249-1.395 0.92249z"/>
   <path id="path15143" d="m490.5 112.55c-1.6087 0-2.5875 1.26-2.5875 3.15 0 1.9125 0.99 3.0487 2.5875 3.0487 0.68625 0 1.2825-0.225 1.8112-0.6525l-0.4725-0.67499c-0.45 0.2925-0.79874 0.44999-1.2937 0.44999-0.93375 0-1.5187-0.64124-1.5187-2.1937 0-1.5412 0.58499-2.2725 1.5187-2.2725 0.495 0 0.86624 0.14625 1.2712 0.43875l0.495-0.6525c-0.55125-0.46125-1.1137-0.64125-1.8112-0.64125z"/>
   <path id="path15145" d="m495.73 112.55c-1.6875 0-2.655 1.2712-2.655 3.105 0 1.8787 0.95625 3.0937 2.6437 3.0937 1.6762 0 2.6437-1.2712 2.6437-3.105 0-1.8787-0.94499-3.0937-2.6325-3.0937zm0 0.8325c0.97874 0 1.5187 0.71999 1.5187 2.2612 0 1.5525-0.54 2.2725-1.53 2.2725s-1.53-0.71999-1.53-2.2612c0-1.5525 0.55125-2.2725 1.5412-2.2725z"/>
   <path id="path15147" d="m502.65 112.55c-0.71999 0-1.2712 0.45-1.5862 1.3388l-0.10125-1.2038h-0.88874v5.9287h1.035v-3.3862c0.2475-1.1362 0.675-1.665 1.4175-1.665 0.21374 0 0.33749 0.0225 0.51749 0.0675l0.19125-1.0125c-0.18-0.045-0.39375-0.0675-0.585-0.0675z"/>
   <path id="path15149" d="m507 112.55c-0.72 0-1.2712 0.45-1.5862 1.3388l-0.10125-1.2038h-0.88875v5.9287h1.035v-3.3862c0.24749-1.1362 0.67499-1.665 1.4175-1.665 0.21375 0 0.3375 0.0225 0.5175 0.0675l0.19124-1.0125c-0.17999-0.045-0.39374-0.0675-0.58499-0.0675z"/>
   <path id="path15151" d="m512.92 115.48c0-1.8112-0.84374-2.925-2.4412-2.925-1.53 0-2.4637 1.3162-2.4637 3.1612 0 1.8787 0.96749 3.0375 2.6212 3.0375 0.82125 0 1.485-0.28125 2.07-0.7425l-0.45-0.61874c-0.51749 0.36-0.95624 0.51749-1.5412 0.51749-0.85499 0-1.4962-0.52874-1.5975-1.9012h3.78c0.0113-0.13499 0.0225-0.32624 0.0225-0.52874zm-1.0237-0.23625h-2.7787c0.0788-1.3162 0.59625-1.8675 1.3837-1.8675 0.93375 0 1.395 0.64125 1.395 1.8v0.0675z"/>
   <path id="path15153" d="m516.8 112.55c-1.6875 0-2.655 1.2712-2.655 3.105 0 1.8787 0.95624 3.0937 2.6437 3.0937 1.6762 0 2.6437-1.2712 2.6437-3.105 0-1.8787-0.945-3.0937-2.6325-3.0937zm0 0.8325c0.97875 0 1.5188 0.71999 1.5188 2.2612 0 1.5525-0.54 2.2725-1.53 2.2725-0.98999 0-1.53-0.71999-1.53-2.2612 0-1.5525 0.55125-2.2725 1.5412-2.2725z"/>
   <path id="path15155" d="m465.62 131.29v-2.7112c0-1.2375-0.6525-1.9687-2.0812-1.9687-0.66375 0-1.3162 0.135-2.0475 0.405l0.25875 0.75374c0.60749-0.2025 1.1587-0.315 1.5975-0.315 0.82124 0 1.2375 0.315 1.2375 1.17v0.43875h-0.91124c-1.6537 0-2.61 0.68624-2.61 1.9575 0 1.0575 0.70875 1.7887 1.89 1.7887 0.72 0 1.35-0.27 1.7662-0.88875 0.18 0.585 0.5625 0.82125 1.1588 0.88875l0.23624-0.72c-0.30374-0.1125-0.49499-0.28125-0.49499-0.79875zm-2.43 0.7425c-0.675 0-1.0238-0.37125-1.0238-1.0687 0-0.81 0.55125-1.215 1.6425-1.215h0.77624v1.3612c-0.3375 0.61874-0.78749 0.92249-1.395 0.92249z"/>
   <path id="path15157" d="m468.83 132.81c0.30375 0 0.59624-0.0787 0.82124-0.2025l-0.27-0.72c-0.11249 0.045-0.23624 0.0675-0.38249 0.0675-0.27 0-0.37125-0.1575-0.37125-0.4725v-7.245l-1.035 0.12375v7.1437c0 0.84375 0.48375 1.305 1.2375 1.305z"/>
   <path id="path15159" d="m478.34 126.75h-1.035v4.23c-0.36 0.59624-0.84374 1.0237-1.485 1.0237-0.64125 0-0.91124-0.30375-0.91124-1.1137v-4.14h-1.035v4.2525c0 1.1587 0.61875 1.8112 1.6537 1.8112 0.84375 0 1.395-0.3375 1.845-1.0575l0.0788 0.9225h0.88875v-5.9287z"/>
   <path id="path15161" d="m482.09 126.61c-1.2262 0-2.1375 0.68625-2.1375 1.6312 0 0.8325 0.50625 1.3837 1.7887 1.7212 1.1475 0.30375 1.44 0.52875 1.44 1.1138 0 0.56249-0.49499 0.89999-1.2712 0.89999-0.64125 0-1.1925-0.21375-1.665-0.57375l-0.55125 0.63c0.5175 0.45 1.2375 0.77625 2.2387 0.77625 1.2037 0 2.34-0.5625 2.34-1.8 0-1.035-0.72-1.53-1.9687-1.845-0.95625-0.2475-1.2712-0.4725-1.2712-0.95625 0-0.4725 0.41625-0.77625 1.0912-0.77625 0.55125 0 1.0125 0.16875 1.5412 0.50625l0.43875-0.65249c-0.5625-0.4275-1.1812-0.675-2.0137-0.675z"/>
   <path id="path15163" d="m490.14 126.75h-1.035v4.23c-0.36 0.59624-0.84375 1.0237-1.485 1.0237s-0.91125-0.30375-0.91125-1.1137v-4.14h-1.035v4.2525c0 1.1587 0.61874 1.8112 1.6537 1.8112 0.84374 0 1.395-0.3375 1.845-1.0575l0.0788 0.9225h0.88874v-5.9287z"/>
   <path id="path15165" d="m496.28 131.29v-2.7112c0-1.2375-0.65249-1.9687-2.0812-1.9687-0.66374 0-1.3162 0.135-2.0475 0.405l0.25875 0.75374c0.6075-0.2025 1.1588-0.315 1.5975-0.315 0.82125 0 1.2375 0.315 1.2375 1.17v0.43875h-0.91125c-1.6537 0-2.61 0.68624-2.61 1.9575 0 1.0575 0.70874 1.7887 1.89 1.7887 0.71999 0 1.35-0.27 1.7662-0.88875 0.18 0.585 0.56249 0.82125 1.1587 0.88875l0.23625-0.72c-0.30375-0.1125-0.495-0.28125-0.495-0.79875zm-2.43 0.7425c-0.67499 0-1.0237-0.37125-1.0237-1.0687 0-0.81 0.55125-1.215 1.6425-1.215h0.77625v1.3612c-0.3375 0.61874-0.7875 0.92249-1.395 0.92249z"/>
   <path id="path15167" d="m500.99 126.61c-0.72 0-1.2712 0.45-1.5862 1.3387l-0.10125-1.2037h-0.88874v5.9287h1.035v-3.3862c0.2475-1.1362 0.675-1.665 1.4175-1.665 0.21375 0 0.33749 0.0225 0.51749 0.0675l0.19125-1.0125c-0.18-0.045-0.39374-0.0675-0.58499-0.0675z"/>
   <path id="path15169" d="m503.27 123.9c-0.4275 0-0.72 0.30375-0.72 0.70875 0 0.39375 0.2925 0.6975 0.72 0.6975 0.43875 0 0.73125-0.30375 0.73125-0.6975 0-0.405-0.2925-0.70875-0.73125-0.70875zm0.52875 2.8462h-1.035v5.9287h1.035v-5.9287z"/>
   <path id="path15171" d="m510.78 124.79c-3.06 0-5.13 2.25-5.13 5.1862 0 3.1162 2.0925 5.0962 5.1187 5.0962 1.0238 0 1.71-0.17999 2.4525-0.43874l-0.28125-0.79875c-0.60749 0.21375-1.3162 0.3825-2.16 0.3825-2.6212 0-4.0837-1.755-4.0837-4.2412s1.5525-4.3312 4.0837-4.3312c2.4412 0 3.7237 1.4288 3.7237 3.6 0 1.755-0.42749 2.5312-1.1925 2.5312-0.48375 0-0.76499-0.30375-0.76499-1.2712v-2.9137c-0.63-0.33749-1.1588-0.44999-1.7662-0.44999-1.4175 0-2.4525 0.98999-2.4525 2.9362 0 1.485 0.74249 2.475 1.9462 2.475 0.88874 0 1.3725-0.57375 1.62-1.1362 0.1125 0.50625 0.50625 1.1588 1.44 1.1588 1.5187 0 2.2162-1.5187 2.2162-3.3525 0-2.3512-1.6425-4.4325-4.77-4.4325zm-0.38249 7.0087c-0.6975 0-1.0575-0.59625-1.0575-1.7212 0-1.4512 0.495-2.1937 1.4737-2.1937 0.3375 0 0.57375 0.0675 0.79875 0.16875v2.7787c-0.12375 0.32624-0.43875 0.96749-1.215 0.96749z"/>
  </g>
  <g id="text14606">
   <path id="path14990" d="m628.29 85.813h1.125l-2.475-7.7512h-1.35l-2.4862 7.7512h1.08l0.58499-1.9462h2.9362l0.585 1.9462zm-3.2625-2.8125 1.215-4.05 1.2037 4.05h-2.4187z"/>
   <path id="path14992" d="m632.7 79.749c-1.6087 0-2.5875 1.26-2.5875 3.15 0 1.9125 0.99 3.0487 2.5875 3.0487 0.68625 0 1.2825-0.225 1.8112-0.6525l-0.4725-0.675c-0.44999 0.2925-0.79874 0.45-1.2937 0.45-0.93374 0-1.5187-0.64125-1.5187-2.1937 0-1.5412 0.585-2.2725 1.5187-2.2725 0.495 0 0.86625 0.14625 1.2712 0.43875l0.495-0.6525c-0.55125-0.46125-1.1137-0.64125-1.8112-0.64125z"/>
   <path id="path14994" d="m638.52 84.857c-0.2925 0.1575-0.52875 0.23625-0.78749 0.23625-0.5175 0-0.70875-0.28125-0.70875-0.8775v-3.5325h1.2937l0.1125-0.79874h-1.4062v-1.4625l-1.035 0.12375v1.3387h-1.035v0.79874h1.035v3.5775c0 1.1025 0.59625 1.6875 1.5975 1.6875 0.50624 0 0.93374-0.135 1.3275-0.405l-0.39375-0.68625z"/>
   <path id="path14996" d="m640.49 77.038c-0.4275 0-0.71999 0.30375-0.71999 0.70875 0 0.39375 0.29249 0.6975 0.71999 0.6975 0.43875 0 0.73125-0.30375 0.73125-0.6975 0-0.405-0.2925-0.70875-0.73125-0.70875zm0.52875 2.8462h-1.035v5.9287h1.035v-5.9287z"/>
   <path id="path14998" d="m647.51 79.884h-1.0912l-1.5412 5.0062-1.5525-5.0062h-1.125l2.0475 5.9287h1.2487l2.0137-5.9287z"/>
   <path id="path15000" d="m652.51 84.429v-2.7112c0-1.2375-0.6525-1.9687-2.0812-1.9687-0.66375 0-1.3162 0.135-2.0475 0.405l0.25875 0.75375c0.6075-0.2025 1.1587-0.315 1.5975-0.315 0.82125 0 1.2375 0.315 1.2375 1.17v0.43875h-0.91125c-1.6537 0-2.61 0.68625-2.61 1.9575 0 1.0575 0.70875 1.7887 1.89 1.7887 0.72 0 1.35-0.27 1.7662-0.88875 0.18 0.585 0.5625 0.82125 1.1588 0.88875l0.23625-0.72c-0.30375-0.1125-0.495-0.28125-0.495-0.79875zm-2.43 0.7425c-0.67499 0-1.0237-0.37125-1.0237-1.0687 0-0.81 0.55125-1.215 1.6425-1.215h0.77625v1.3612c-0.3375 0.61875-0.7875 0.9225-1.395 0.9225z"/>
   <path id="path15002" d="m662.11 82.674c0-1.8112-0.84374-2.925-2.4412-2.925-1.53 0-2.4637 1.3162-2.4637 3.1612 0 1.8787 0.96749 3.0375 2.6212 3.0375 0.82125 0 1.485-0.28125 2.07-0.7425l-0.44999-0.61875c-0.5175 0.36-0.95625 0.5175-1.5412 0.5175-0.85499 0-1.4962-0.52875-1.5975-1.9012h3.78c0.0113-0.135 0.0225-0.32625 0.0225-0.52875zm-1.0237-0.23625h-2.7787c0.0787-1.3162 0.59625-1.8675 1.3837-1.8675 0.93375 0 1.395 0.64125 1.395 1.8v0.0675z"/>
   <path id="path15004" d="m664.94 85.948c0.30374 0 0.59624-0.07875 0.82124-0.2025l-0.27-0.72c-0.1125 0.045-0.23625 0.0675-0.38249 0.0675-0.27 0-0.37125-0.1575-0.37125-0.4725v-7.245l-1.035 0.12375v7.1437c0 0.84374 0.48375 1.305 1.2375 1.305z"/>
   <path id="path15006" d="m672.77 79.749c-0.675 0-1.3162 0.32625-1.755 0.93374l-0.0788-0.79874h-0.88875v8.325l1.035-0.12375v-2.8125c0.38249 0.46125 0.91124 0.675 1.5525 0.675 1.53 0 2.3287-1.305 2.3287-3.105 0-1.8675-0.61875-3.0937-2.1937-3.0937zm-0.3825 5.355c-0.54 0-1.0012-0.25875-1.305-0.72v-2.8912c0.31499-0.4725 0.79874-0.9225 1.4287-0.9225 0.88874 0 1.3387 0.73125 1.3387 2.2725 0 1.5525-0.5175 2.2612-1.4625 2.2612z"/>
   <path id="path15008" d="m680.61 84.429v-2.7112c0-1.2375-0.6525-1.9687-2.0812-1.9687-0.66374 0-1.3162 0.135-2.0475 0.405l0.25875 0.75375c0.6075-0.2025 1.1587-0.315 1.5975-0.315 0.82125 0 1.2375 0.315 1.2375 1.17v0.43875h-0.91125c-1.6537 0-2.61 0.68625-2.61 1.9575 0 1.0575 0.70875 1.7887 1.89 1.7887 0.72 0 1.35-0.27 1.7662-0.88875 0.17999 0.585 0.56249 0.82125 1.1587 0.88875l0.23625-0.72c-0.30375-0.1125-0.495-0.28125-0.495-0.79875zm-2.43 0.7425c-0.67499 0-1.0237-0.37125-1.0237-1.0687 0-0.81 0.55125-1.215 1.6425-1.215h0.77625v1.3612c-0.3375 0.61875-0.7875 0.9225-1.395 0.9225z"/>
   <path id="path15010" d="m685.54 79.749c-0.77624 0-1.4062 0.405-1.8112 1.0125l-0.09-0.8775h-0.88874v5.9287h1.035v-4.2075c0.39375-0.63 0.84375-1.0462 1.5075-1.0462 0.57374 0 0.93374 0.25875 0.93374 1.1475v4.1062h1.035v-4.2525c0-1.125-0.62999-1.8112-1.7212-1.8112z"/>
   <path id="path15012" d="m693.82 82.674c0-1.8112-0.84375-2.925-2.4412-2.925-1.53 0-2.4637 1.3162-2.4637 3.1612 0 1.8787 0.9675 3.0375 2.6212 3.0375 0.82125 0 1.485-0.28125 2.07-0.7425l-0.45-0.61875c-0.5175 0.36-0.95624 0.5175-1.5412 0.5175-0.855 0-1.4962-0.52875-1.5975-1.9012h3.78c0.0112-0.135 0.0225-0.32625 0.0225-0.52875zm-1.0238-0.23625h-2.7787c0.0788-1.3162 0.59624-1.8675 1.3837-1.8675 0.93375 0 1.395 0.64125 1.395 1.8v0.0675z"/>
   <path id="path15014" d="m696.65 85.948c0.30374 0 0.59624-0.07875 0.82124-0.2025l-0.27-0.72c-0.1125 0.045-0.23625 0.0675-0.3825 0.0675-0.26999 0-0.37124-0.1575-0.37124-0.4725v-7.245l-1.035 0.12375v7.1437c0 0.84374 0.48375 1.305 1.2375 1.305z"/>
   <path id="path15016" d="m638.93 91.438v3.105c-0.39375-0.41625-0.89999-0.73125-1.5975-0.73125-1.4512 0-2.3287 1.3162-2.3287 3.1275 0 1.845 0.79875 3.0712 2.2387 3.0712 0.73125 0 1.3275-0.36 1.71-0.95624l0.10125 0.82125h0.91125v-8.3137l-1.035-0.12375zm-1.4625 7.7512c-0.855 0-1.35-0.70875-1.35-2.2725 0-1.5412 0.55124-2.2837 1.44-2.2837 0.585 0 1.0012 0.30375 1.3725 0.77625v2.9025c-0.39375 0.55125-0.79874 0.8775-1.4625 0.8775z"/>
   <path id="path15018" d="m646.58 96.737c0-1.8112-0.84375-2.925-2.4412-2.925-1.53 0-2.4637 1.3162-2.4637 3.1612 0 1.8787 0.9675 3.0375 2.6212 3.0375 0.82124 0 1.485-0.28125 2.07-0.74249l-0.45-0.61875c-0.5175 0.36-0.95625 0.5175-1.5412 0.5175-0.855 0-1.4962-0.52875-1.5975-1.9012h3.78c0.0113-0.135 0.0225-0.32625 0.0225-0.52875zm-1.0238-0.23625h-2.7787c0.0787-1.3162 0.59624-1.8675 1.3837-1.8675 0.93374 0 1.395 0.64125 1.395 1.8v0.0675z"/>
   <path id="path15020" d="m653.38 93.812c-1.6087 0-2.5875 1.26-2.5875 3.15 0 1.9125 0.99 3.0487 2.5875 3.0487 0.68625 0 1.2825-0.225 1.8112-0.65249l-0.4725-0.675c-0.44999 0.2925-0.79874 0.45-1.2937 0.45-0.93374 0-1.5187-0.64125-1.5187-2.1937 0-1.5412 0.585-2.2725 1.5187-2.2725 0.495 0 0.86625 0.14625 1.2712 0.43875l0.495-0.6525c-0.55125-0.46125-1.1137-0.64125-1.8112-0.64125z"/>
   <path id="path15022" d="m658.61 93.812c-1.6875 0-2.655 1.2712-2.655 3.105 0 1.8787 0.95625 3.0937 2.6437 3.0937 1.6762 0 2.6437-1.2712 2.6437-3.105 0-1.8787-0.94499-3.0937-2.6325-3.0937zm0 0.8325c0.97874 0 1.5187 0.72 1.5187 2.2612 0 1.5525-0.54 2.2725-1.53 2.2725s-1.53-0.72-1.53-2.2612c0-1.5525 0.55124-2.2725 1.5412-2.2725z"/>
   <path id="path15024" d="m665.74 93.812c-0.77625 0-1.4062 0.405-1.8112 1.0125l-0.09-0.8775h-0.88875v5.9287h1.035v-4.2075c0.39375-0.63 0.84375-1.0462 1.5075-1.0462 0.57374 0 0.93374 0.25875 0.93374 1.1475v4.1062h1.035v-4.2525c0-1.125-0.63-1.8112-1.7212-1.8112z"/>
   <path id="path15026" d="m672.14 98.919c-0.2925 0.1575-0.52875 0.23625-0.7875 0.23625-0.51749 0-0.70874-0.28125-0.70874-0.8775v-3.5325h1.2937l0.1125-0.79875h-1.4062v-1.4625l-1.035 0.12375v1.3387h-1.035v0.79875h1.035v3.5775c0 1.1025 0.59625 1.6875 1.5975 1.6875 0.50625 0 0.93375-0.135 1.3275-0.405l-0.39375-0.68625z"/>
   <path id="path15028" d="m676.18 93.812c-0.72 0-1.2712 0.45-1.5862 1.3387l-0.10125-1.2037h-0.88875v5.9287h1.035v-3.3862c0.24749-1.1362 0.67499-1.665 1.4175-1.665 0.21375 0 0.3375 0.0225 0.5175 0.0675l0.19124-1.0125c-0.17999-0.045-0.39374-0.0675-0.58499-0.0675z"/>
   <path id="path15030" d="m679.85 93.812c-1.6875 0-2.655 1.2712-2.655 3.105 0 1.8787 0.95625 3.0937 2.6437 3.0937 1.6762 0 2.6437-1.2712 2.6437-3.105 0-1.8787-0.94499-3.0937-2.6325-3.0937zm0 0.8325c0.97874 0 1.5187 0.72 1.5187 2.2612 0 1.5525-0.54 2.2725-1.53 2.2725s-1.53-0.72-1.53-2.2612c0-1.5525 0.55125-2.2725 1.5412-2.2725z"/>
   <path id="path15032" d="m685.38 100.01c0.30375 0 0.59625-0.07875 0.82125-0.2025l-0.27-0.72c-0.1125 0.045-0.23625 0.0675-0.3825 0.0675-0.27 0-0.37125-0.1575-0.37125-0.4725v-7.245l-1.035 0.12375v7.1437c0 0.84374 0.48375 1.305 1.2375 1.305z"/>
   <path id="path15034" d="m629.52 112.98c-0.2925 0.1575-0.52875 0.23625-0.7875 0.23625-0.5175 0-0.70875-0.28125-0.70875-0.87749v-3.5325h1.2938l0.1125-0.79875h-1.4062v-1.4625l-1.035 0.12375v1.3387h-1.035v0.79875h1.035v3.5775c0 1.1025 0.59625 1.6875 1.5975 1.6875 0.50625 0 0.93375-0.135 1.3275-0.405l-0.39374-0.68625z"/>
   <path id="path15036" d="m633.57 107.87c-0.72 0-1.2712 0.45-1.5862 1.3387l-0.10125-1.2037h-0.88874v5.9287h1.035v-3.3862c0.2475-1.1362 0.675-1.665 1.4175-1.665 0.21375 0 0.33749 0.0225 0.51749 0.0675l0.19125-1.0125c-0.18-0.045-0.39375-0.0675-0.58499-0.0675z"/>
   <path id="path15038" d="m638.94 112.55v-2.7112c0-1.2375-0.6525-1.9687-2.0812-1.9687-0.66375 0-1.3162 0.135-2.0475 0.405l0.25875 0.75375c0.60749-0.2025 1.1587-0.315 1.5975-0.315 0.82124 0 1.2375 0.315 1.2375 1.17v0.43875h-0.91124c-1.6538 0-2.61 0.68625-2.61 1.9575 0 1.0575 0.70875 1.7887 1.89 1.7887 0.72 0 1.35-0.27 1.7662-0.88875 0.18 0.585 0.5625 0.82125 1.1587 0.88875l0.23625-0.72c-0.30375-0.1125-0.49499-0.28125-0.49499-0.79874zm-2.43 0.74249c-0.675 0-1.0238-0.37125-1.0238-1.0687 0-0.81 0.55125-1.215 1.6425-1.215h0.77624v1.3612c-0.3375 0.61874-0.78749 0.92249-1.395 0.92249z"/>
   <path id="path15040" d="m642.58 107.87c-1.2262 0-2.1375 0.68625-2.1375 1.6312 0 0.8325 0.50624 1.3838 1.7887 1.7212 1.1475 0.30375 1.44 0.52875 1.44 1.1138 0 0.5625-0.495 0.89999-1.2712 0.89999-0.64125 0-1.1925-0.21375-1.665-0.57374l-0.55124 0.62999c0.51749 0.45 1.2375 0.77625 2.2387 0.77625 1.2037 0 2.34-0.5625 2.34-1.8 0-1.035-0.71999-1.53-1.9687-1.845-0.95624-0.2475-1.2712-0.4725-1.2712-0.95625 0-0.47249 0.41625-0.77624 1.0912-0.77624 0.55125 0 1.0125 0.16875 1.5412 0.50624l0.43874-0.65249c-0.56249-0.4275-1.1812-0.675-2.0137-0.675z"/>
   <path id="path15042" d="m653.68 110.8c0-1.8112-0.84374-2.925-2.4412-2.925-1.53 0-2.4637 1.3162-2.4637 3.1612 0 1.8788 0.96749 3.0375 2.6212 3.0375 0.82125 0 1.485-0.28125 2.07-0.7425l-0.44999-0.61874c-0.5175 0.35999-0.95625 0.51749-1.5412 0.51749-0.85499 0-1.4962-0.52874-1.5975-1.9012h3.78c0.0113-0.135 0.0225-0.32624 0.0225-0.52874zm-1.0237-0.23625h-2.7787c0.0788-1.3162 0.59625-1.8675 1.3838-1.8675 0.93374 0 1.395 0.64124 1.395 1.8v0.0675z"/>
   <path id="path15044" d="m656.52 114.07c0.30375 0 0.59625-0.0787 0.82124-0.2025l-0.26999-0.72c-0.1125 0.045-0.23625 0.0675-0.3825 0.0675-0.27 0-0.37125-0.1575-0.37125-0.47249v-7.245l-1.035 0.12375v7.1437c0 0.84374 0.48374 1.305 1.2375 1.305z"/>
   <path id="path15046" d="m664.34 107.87c-0.675 0-1.3162 0.32625-1.755 0.93375l-0.0788-0.79875h-0.88875v8.325l1.035-0.12375v-2.8125c0.38249 0.46125 0.91124 0.675 1.5525 0.675 1.53 0 2.3287-1.305 2.3287-3.105 0-1.8675-0.61874-3.0937-2.1937-3.0937zm-0.3825 5.355c-0.54 0-1.0012-0.25875-1.305-0.71999v-2.8912c0.31499-0.4725 0.79874-0.92249 1.4287-0.92249 0.88874 0 1.3387 0.73124 1.3387 2.2725 0 1.5525-0.5175 2.2612-1.4625 2.2612z"/>
   <path id="path15048" d="m670.88 107.87c-0.72 0-1.2712 0.45-1.5862 1.3387l-0.10125-1.2037h-0.88875v5.9287h1.035v-3.3862c0.2475-1.1362 0.67499-1.665 1.4175-1.665 0.21375 0 0.3375 0.0225 0.5175 0.0675l0.19125-1.0125c-0.18-0.045-0.39375-0.0675-0.585-0.0675z"/>
   <path id="path15050" d="m673.16 105.16c-0.42749 0-0.71999 0.30374-0.71999 0.70874 0 0.39375 0.2925 0.6975 0.71999 0.6975 0.43875 0 0.73125-0.30375 0.73125-0.6975 0-0.405-0.2925-0.70874-0.73125-0.70874zm0.52875 2.8462h-1.035v5.9287h1.035v-5.9287z"/>
   <path id="path15052" d="m681.77 107.87c-0.79875 0-1.3387 0.4275-1.7662 1.0688-0.225-0.675-0.765-1.0688-1.4962-1.0688-0.77625 0-1.3162 0.405-1.71 1.0012l-0.09-0.86625h-0.88875v5.9287h1.035v-4.2075c0.39375-0.62999 0.75375-1.0462 1.395-1.0462 0.44999 0 0.83249 0.25875 0.83249 1.1475v4.1062h1.035v-4.2075c0.405-0.62999 0.75374-1.0462 1.395-1.0462 0.45 0 0.8325 0.25875 0.8325 1.1475v4.1062h1.035v-4.2525c0-1.1137-0.64125-1.8112-1.6087-1.8112z"/>
   <path id="path15054" d="m689.94 110.8c0-1.8112-0.84374-2.925-2.4412-2.925-1.53 0-2.4637 1.3162-2.4637 3.1612 0 1.8788 0.96749 3.0375 2.6212 3.0375 0.82124 0 1.485-0.28125 2.07-0.7425l-0.44999-0.61874c-0.5175 0.35999-0.95625 0.51749-1.5412 0.51749-0.85499 0-1.4962-0.52874-1.5975-1.9012h3.78c0.0113-0.135 0.0225-0.32624 0.0225-0.52874zm-1.0237-0.23625h-2.7787c0.0788-1.3162 0.59625-1.8675 1.3838-1.8675 0.93374 0 1.395 0.64124 1.395 1.8v0.0675z"/>
   <path id="path15056" d="m694.17 107.87c-0.72 0-1.2712 0.45-1.5862 1.3387l-0.10125-1.2037h-0.88875v5.9287h1.035v-3.3862c0.2475-1.1362 0.67499-1.665 1.4175-1.665 0.21375 0 0.3375 0.0225 0.5175 0.0675l0.19125-1.0125c-0.18-0.045-0.39375-0.0675-0.585-0.0675z"/>
   <path id="path15058" d="m649.91 128.14c0.30375 0 0.59625-0.0787 0.82125-0.2025l-0.27-0.72c-0.1125 0.045-0.23625 0.0675-0.3825 0.0675-0.27 0-0.37125-0.1575-0.37125-0.4725v-7.245l-1.035 0.12375v7.1437c0 0.84375 0.48374 1.305 1.2375 1.305z"/>
   <path id="path15060" d="m654.19 121.94c-1.6875 0-2.655 1.2712-2.655 3.105 0 1.8787 0.95625 3.0937 2.6437 3.0937 1.6762 0 2.6437-1.2712 2.6437-3.105 0-1.8787-0.94499-3.0937-2.6325-3.0937zm0 0.83249c0.97874 0 1.5187 0.72 1.5187 2.2612 0 1.5525-0.54 2.2725-1.53 2.2725s-1.53-0.72-1.53-2.2612c0-1.5525 0.55124-2.2725 1.5412-2.2725z"/>
   <path id="path15062" d="m663.01 121.41c-0.6975 0.315-1.2375 0.5625-2.7112 0.52875-1.305 0-2.2837 0.85499-2.2837 2.07 0 0.76499 0.315 1.2825 1.0012 1.6425-0.4275 0.28125-0.6525 0.66374-0.6525 1.0462 0 0.59625 0.4725 1.125 1.53 1.125h0.93375c0.74249 0 1.1925 0.28125 1.1925 0.84374 0 0.59625-0.45 0.9225-1.7325 0.9225-1.305 0-1.6087-0.315-1.6087-0.99h-0.93375c0 1.2038 0.6075 1.8 2.5425 1.8 1.8337 0 2.7787-0.65249 2.7787-1.8 0-0.94499-0.81-1.6425-2.025-1.6425h-0.945c-0.6075 0-0.77624-0.21375-0.77624-0.48375 0-0.21375 0.12374-0.42749 0.29249-0.55124 0.2475 0.0787 0.48375 0.1125 0.75375 0.1125 1.4175 0 2.2612-0.84375 2.2612-2.0137 0-0.68625-0.34875-1.1812-1.0462-1.4962 0.675 0 1.2375-0.0225 1.7325-0.17999l-0.30374-0.93375zm-2.7112 1.2712c0.84375 0 1.2712 0.45 1.2712 1.3162 0 0.85499-0.43874 1.35-1.2487 1.35-0.81 0-1.2487-0.55125-1.2487-1.3387 0-0.77625 0.42749-1.3275 1.2262-1.3275z"/>
   <path id="path15064" d="m664.88 119.23c-0.4275 0-0.71999 0.30375-0.71999 0.70875 0 0.39375 0.29249 0.69749 0.71999 0.69749 0.43875 0 0.73125-0.30374 0.73125-0.69749 0-0.405-0.2925-0.70875-0.73125-0.70875zm0.52875 2.8462h-1.035v5.9287h1.035v-5.9287z"/>
   <path id="path15066" d="m670.33 121.94c-0.77625 0-1.4062 0.405-1.8112 1.0125l-0.09-0.87749h-0.88875v5.9287h1.035v-4.2075c0.39374-0.63 0.84374-1.0462 1.5075-1.0462 0.57374 0 0.93374 0.25875 0.93374 1.1475v4.1062h1.035v-4.2525c0-1.125-0.63-1.8112-1.7212-1.8112z"/>
  </g>
  <g id="text14642">
   <path id="path14933" d="m273.66 196.18h-2.2625v8.6125h1.1875v-3.1625h1.0875c1.9 0 3.3375-0.81249 3.3375-2.7875 0-1.8125-1.275-2.6625-3.35-2.6625zm-0.0375 4.5125h-1.0375v-3.5875h1.0625c1.275 0 2.1 0.4625 2.1 1.75 0 1.4625-0.85 1.8375-2.125 1.8375z"/>
   <path id="path14935" d="m283.24 204.79h1.4125l-2.325-3.8625c1.2375-0.375 1.8625-1.1 1.8625-2.3125 0-1.6125-1.125-2.4375-3.275-2.4375h-2.2625v8.6125h1.1875v-3.65h1.3375l2.0625 3.65zm-3.4-4.5625v-3.125h1.0625c1.4125 0 2.025 0.4375 2.025 1.5125 0 1.1625-0.6875 1.6125-1.8875 1.6125h-1.2z"/>
   <path id="path14937" d="m289.17 196.03c-2.15 0-3.6375 1.6375-3.6375 4.475 0 2.8875 1.4875 4.4375 3.6375 4.4375 2.1625 0 3.6375-1.6 3.6375-4.45 0-2.9-1.475-4.4625-3.6375-4.4625zm0 0.975c1.475 0 2.375 1.0125 2.375 3.4875 0 2.5-0.92499 3.475-2.375 3.475-1.4 0-2.375-0.97499-2.375-3.4625s0.93749-3.5 2.375-3.5z"/>
   <path id="path14939" d="m297.75 196.03c-1.95 0-3.575 1.5375-3.575 4.45 0 2.9 1.5125 4.4625 3.6 4.4625 1.1625 0 1.9875-0.475 2.4625-0.9625l-0.58749-0.74999c-0.4875 0.36249-1.025 0.71249-1.8375 0.71249-1.3375 0-2.375-0.97499-2.375-3.4625 0-2.6 1.0875-3.475 2.3875-3.475 0.59999 0 1.125 0.2 1.6625 0.63749l0.64999-0.76249c-0.68749-0.55-1.3-0.85-2.3875-0.85z"/>
   <path id="path14941" d="m306.41 196.18h-4.6625v8.6125h4.7625v-0.95h-3.575v-2.95h2.9v-0.95h-2.9v-2.8125h3.3375l0.1375-0.95z"/>
   <path id="path14943" d="m310.44 196.03c-1.5875 0-2.7125 0.925-2.7125 2.25 0 1.3375 0.875 1.975 2.55 2.4875 1.4625 0.45 1.8625 0.82499 1.8625 1.6625 0 1.0375-0.8375 1.5375-1.85 1.5375-0.9375 0-1.6125-0.3375-2.2625-0.86249l-0.65 0.72499c0.7125 0.7 1.6875 1.1125 2.925 1.1125 1.9375 0 3.075-1.05 3.075-2.55 0-1.65-1.175-2.1875-2.55-2.6125-1.55-0.47499-1.8875-0.82499-1.8875-1.55 0-0.82499 0.68749-1.225 1.55-1.225 0.71249 0 1.3125 0.225 1.9625 0.74999l0.64999-0.72499c-0.72499-0.65-1.475-1-2.6625-1z"/>
   <path id="path14945" d="m318.2 196.03c-2.15 0-3.6375 1.6375-3.6375 4.475 0 2.8875 1.4875 4.4375 3.6375 4.4375 2.1625 0 3.6375-1.6 3.6375-4.45 0-2.9-1.475-4.4625-3.6375-4.4625zm0 0.975c1.475 0 2.375 1.0125 2.375 3.4875 0 2.5-0.925 3.475-2.375 3.475-1.4 0-2.375-0.97499-2.375-3.4625s0.9375-3.5 2.375-3.5z"/>
   <path id="path14947" d="m328.89 196.18h-1.8v8.6125h2.0625c1.8625 0 4.05-0.8375 4.05-4.35 0-3.575-2.1125-4.2625-4.3125-4.2625zm0.2625 0.95c1.375 0 2.7875 0.4 2.7875 3.3125 0 2.8375-1.35 3.4125-2.7 3.4125h-0.96249v-6.725h0.87499z"/>
   <path id="path14949" d="m339.81 196.18h-4.6625v8.6125h4.7625v-0.95h-3.575v-2.95h2.9v-0.95h-2.9v-2.8125h3.3375l0.1375-0.95z"/>
   <path id="path14951" d="m348.17 196.03c-1.95 0-3.575 1.5375-3.575 4.45 0 2.9 1.5125 4.4625 3.6 4.4625 1.1625 0 1.9875-0.475 2.4625-0.9625l-0.5875-0.74999c-0.4875 0.36249-1.025 0.71249-1.8375 0.71249-1.3375 0-2.375-0.97499-2.375-3.4625 0-2.6 1.0875-3.475 2.3875-3.475 0.6 0 1.125 0.2 1.6625 0.63749l0.65-0.76249c-0.6875-0.55-1.3-0.85-2.3875-0.85z"/>
   <path id="path14953" d="m356.75 204.79h1.4125l-2.325-3.8625c1.2375-0.375 1.8625-1.1 1.8625-2.3125 0-1.6125-1.125-2.4375-3.275-2.4375h-2.2625v8.6125h1.1875v-3.65h1.3375l2.0625 3.65zm-3.4-4.5625v-3.125h1.0625c1.4125 0 2.025 0.4375 2.025 1.5125 0 1.1625-0.6875 1.6125-1.8875 1.6125h-1.2z"/>
   <path id="path14955" d="m364.39 196.18h-4.6625v8.6125h4.7625v-0.95h-3.575v-2.95h2.9v-0.95h-2.9v-2.8125h3.3375l0.1375-0.95z"/>
   <path id="path14957" d="m371.01 204.79h1.25l-2.75-8.6125h-1.5l-2.7625 8.6125h1.2l0.64999-2.1625h3.2625l0.64999 2.1625zm-3.625-3.125 1.35-4.5 1.3375 4.5h-2.6875z"/>
   <path id="path14959" d="m376.46 196.03c-1.95 0-3.575 1.5375-3.575 4.45 0 2.9 1.5125 4.4625 3.6 4.4625 1.1625 0 1.9875-0.475 2.4625-0.9625l-0.5875-0.74999c-0.4875 0.36249-1.025 0.71249-1.8375 0.71249-1.3375 0-2.375-0.97499-2.375-3.4625 0-2.6 1.0875-3.475 2.3875-3.475 0.6 0 1.125 0.2 1.6625 0.63749l0.65-0.76249c-0.6875-0.55-1.3-0.85-2.3875-0.85z"/>
   <path id="path14961" d="m381.65 196.18h-1.1875v8.6125h1.1875v-8.6125z"/>
   <path id="path14963" d="m388.22 193.4-2.5 1.3375 0.3 0.6125 2.7-0.9875-0.5-0.96249zm-0.99999 2.625c-2.15 0-3.6375 1.6375-3.6375 4.475 0 2.8875 1.4875 4.4375 3.6375 4.4375 2.1625 0 3.6375-1.6 3.6375-4.45 0-2.9-1.475-4.4625-3.6375-4.4625zm0 0.975c1.475 0 2.375 1.0125 2.375 3.4875 0 2.5-0.925 3.475-2.375 3.475-1.4 0-2.375-0.97499-2.375-3.4625s0.9375-3.5 2.375-3.5z"/>
   <path id="path14965" d="m398.83 196.18h-1.1125v4.7c0 1.05 0.1375 2.425 0.1625 2.625l-3.5375-7.325h-1.55v8.6125h1.1125v-3.95c0-1.6-0.1-2.65-0.1625-3.3625l3.5 7.3125h1.5875v-8.6125z"/>
   <path id="path14967" d="m406.45 196.18h-1.8v8.6125h2.0625c1.8625 0 4.05-0.8375 4.05-4.35 0-3.575-2.1125-4.2625-4.3125-4.2625zm0.2625 0.95c1.375 0 2.7875 0.4 2.7875 3.3125 0 2.8375-1.35 3.4125-2.7 3.4125h-0.96249v-6.725h0.87499z"/>
   <path id="path14969" d="m417.37 196.18h-4.6625v8.6125h4.7625v-0.95h-3.575v-2.95h2.9v-0.95h-2.9v-2.8125h3.3375l0.1375-0.95z"/>
   <path id="path14971" d="m420.59 196.18h-1.1875v8.6125h4.5875l0.13749-1.0375h-3.5375v-7.575z"/>
   <path id="path14973" d="m431.07 196.03c-1.5875 0-2.7125 0.925-2.7125 2.25 0 1.3375 0.87499 1.975 2.55 2.4875 1.4625 0.45 1.8625 0.82499 1.8625 1.6625 0 1.0375-0.83749 1.5375-1.85 1.5375-0.93749 0-1.6125-0.3375-2.2625-0.86249l-0.64999 0.72499c0.71249 0.7 1.6875 1.1125 2.925 1.1125 1.9375 0 3.075-1.05 3.075-2.55 0-1.65-1.175-2.1875-2.55-2.6125-1.55-0.47499-1.8875-0.82499-1.8875-1.55 0-0.82499 0.6875-1.225 1.55-1.225 0.7125 0 1.3125 0.225 1.9625 0.74999l0.65-0.72499c-0.725-0.65-1.475-1-2.6625-1z"/>
   <path id="path14975" d="m440.42 196.18h-4.6625v8.6125h4.7625v-0.95h-3.575v-2.95h2.9v-0.95h-2.9v-2.8125h3.3375l0.1375-0.95z"/>
   <path id="path14977" d="m447.03 204.79h1.4125l-2.325-3.8625c1.2375-0.375 1.8625-1.1 1.8625-2.3125 0-1.6125-1.125-2.4375-3.275-2.4375h-2.2625v8.6125h1.1875v-3.65h1.3375l2.0625 3.65zm-3.4-4.5625v-3.125h1.0625c1.4125 0 2.025 0.4375 2.025 1.5125 0 1.1625-0.6875 1.6125-1.8875 1.6125h-1.2z"/>
   <path id="path14979" d="m455.54 196.18h-1.2l-2.1625 7.325-2.1625-7.325h-1.275l2.775 8.6125h1.275l2.75-8.6125z"/>
   <path id="path14981" d="m458.06 196.18h-1.1875v8.6125h1.1875v-8.6125z"/>
   <path id="path14983" d="m462.36 196.18h-1.8v8.6125h2.0625c1.8625 0 4.05-0.8375 4.05-4.35 0-3.575-2.1125-4.2625-4.3125-4.2625zm0.26249 0.95c1.375 0 2.7875 0.4 2.7875 3.3125 0 2.8375-1.35 3.4125-2.7 3.4125h-0.96249v-6.725h0.87499z"/>
   <path id="path14985" d="m471.69 196.03c-2.15 0-3.6375 1.6375-3.6375 4.475 0 2.8875 1.4875 4.4375 3.6375 4.4375 2.1625 0 3.6375-1.6 3.6375-4.45 0-2.9-1.475-4.4625-3.6375-4.4625zm0 0.975c1.475 0 2.375 1.0125 2.375 3.4875 0 2.5-0.92499 3.475-2.375 3.475-1.4 0-2.375-0.97499-2.375-3.4625s0.93749-3.5 2.375-3.5z"/>
   <path id="path14987" d="m481.85 204.79h1.4125l-2.325-3.8625c1.2375-0.375 1.8625-1.1 1.8625-2.3125 0-1.6125-1.125-2.4375-3.275-2.4375h-2.2625v8.6125h1.1875v-3.65h1.3375l2.0625 3.65zm-3.4-4.5625v-3.125h1.0625c1.4125 0 2.025 0.4375 2.025 1.5125 0 1.1625-0.6875 1.6125-1.8875 1.6125h-1.2z"/>
  </g>
 </g>
</svg>
