<svg id="svg4496" xmlns:rdf="http://www.w3.org/1999/02/22-rdf-syntax-ns#" xmlns="http://www.w3.org/2000/svg" height="312.5" viewBox="0 0 720.98645 312.49837" width="720.97" version="1.1" xmlns:cc="http://creativecommons.org/ns#" xmlns:dc="http://purl.org/dc/elements/1.1/">
 <path id="path4147" style="color-rendering:auto;color:#000000;isolation:auto;mix-blend-mode:normal;shape-rendering:auto;solid-color:#000000;image-rendering:auto" d="m36.189 187.53-33.365-57.79 33.365-57.789h66.731l33.366 57.791-33.366 57.791z" stroke="#990d2e" stroke-width="4.8909" fill="none"/>
 <g id="text4149" fill="#400015" transform="matrix(1.2227 0 0 1.2227 3.1106 -.52966)">
  <path id="path4938" d="m39.95 103.08h-1.64v4.5601c0 0.89002-0.32001 1.32-1.07 1.32-0.74002 0-1.06-0.43001-1.06-1.32v-4.5601h-1.64v4.6301c0 1.46 0.89002 2.4701 2.7001 2.4701 1.81 0 2.7101-1.07 2.7101-2.4701v-4.6301z"/>
  <path id="path4940" d="m43.316 102.91c-1.44 0-2.5001 0.78002-2.5001 2 0 1.03 0.57001 1.67 2.12 2.15 1.01 0.31 1.27 0.54001 1.27 1.05 0 0.53001-0.42001 0.85002-1.1 0.85002-0.69002 0-1.24-0.25001-1.75-0.68002l-0.83002 0.91002c0.57001 0.55002 1.43 0.99003 2.6301 0.99003 1.73 0 2.7501-0.90002 2.7501-2.19 0-1.28-0.75002-1.82-2.06-2.24-1.08-0.34001-1.34-0.52001-1.34-0.96002s0.36001-0.68002 0.93002-0.68002c0.56001 0 1.04 0.19 1.52 0.58001l0.76002-0.89002c-0.61001-0.58001-1.34-0.89002-2.4001-0.89002z"/>
  <path id="path4942" d="m52.119 103.08h-1.64v4.5601c0 0.89002-0.32001 1.32-1.07 1.32-0.74002 0-1.06-0.43001-1.06-1.32v-4.5601h-1.64v4.6301c0 1.46 0.89002 2.4701 2.7001 2.4701 1.81 0 2.7101-1.07 2.7101-2.4701v-4.6301z"/>
  <path id="path4944" d="m56.865 110.01h1.74l-2.09-6.9302h-1.99l-2.09 6.9302h1.7l0.35001-1.49h2.02l0.36001 1.49zm-2.1-2.6801 0.73002-3.0601 0.73002 3.0601h-1.46z"/>
  <path id="path4946" d="m62.813 110.01h1.85l-1.76-2.9501c0.90002-0.41001 1.33-0.96002 1.33-1.87 0-1.44-0.97002-2.11-2.8501-2.11h-2.2701v6.9302h1.64v-2.6501h0.64001l1.42 2.6501zm-2.06-5.7801h0.59001c0.81002 0 1.2 0.29001 1.2 0.96002 0 0.73002-0.38001 1.04-1.1 1.04h-0.69002v-2z"/>
  <path id="path4948" d="m66.925 103.08h-1.64v6.9302h1.64v-6.9302z"/>
  <path id="path4950" d="m71.015 102.91c-1.95 0-3.1201 1.37-3.1201 3.6301 0 2.31 1.17 3.6401 3.1201 3.6401 1.96 0 3.1301-1.37 3.1301-3.6401 0-2.3101-1.17-3.6301-3.1301-3.6301zm0 1.2c0.93002 0 1.41 0.68002 1.41 2.4301 0 1.76-0.47001 2.44-1.41 2.44-0.90002 0-1.4-0.68002-1.4-2.44 0-1.75 0.48001-2.4301 1.4-2.4301z"/>
 </g>
 <g>
  <path id="path4153" style="color-rendering:auto;text-decoration-color:#000000;color:#000000;isolation:auto;mix-blend-mode:normal;shape-rendering:auto;solid-color:#000000;block-progression:tb;text-decoration-line:none;text-decoration-style:solid;image-rendering:auto;white-space:normal;text-indent:0;text-transform:none" d="m182.87 97.177 3.0004 3.2097h-66.265v0.91704h66.265l-3.0004 3.2096 10.501-3.2096h1.5003v-0.45852-0.45852h-1.5003l-10.501-3.2097z" fill-rule="evenodd" fill="#990d2e"/>
  <path id="path4158" style="color-rendering:auto;text-decoration-color:#000000;color:#000000;isolation:auto;mix-blend-mode:normal;shape-rendering:auto;solid-color:#000000;block-progression:tb;text-decoration-line:none;text-decoration-style:solid;image-rendering:auto;white-space:normal;text-indent:0;text-transform:none" d="m138.5 154.97-10.228 3.2096h-1.4612v0.45851 0.45852h1.4612l10.228 3.2096-2.9224-3.2096h64.543v-0.91703h-64.543l2.9224-3.2096z" fill-rule="evenodd" fill="#990d2e"/>
  <path id="path4494" style="color-rendering:auto;color:#000000;isolation:auto;mix-blend-mode:normal;shape-rendering:auto;solid-color:#000000;image-rendering:auto" d="m254.83 51.274-14.45-25.028 14.45-25.028h28.899l14.45 25.028-14.45 25.028z" stroke="#990d2e" stroke-width="2.4454" fill="none"/>
 </g>
 <g id="text4502" fill="#400015" transform="matrix(1.2227 0 0 1.2227 -1.2052e-7 .0000038318)">
  <path id="path4931" d="m213.15 17.055c-1.7476 0-3.0341 0.94665-3.0341 2.4273 0 1.2501 0.69178 2.0268 2.5729 2.6093 1.2258 0.37623 1.5413 0.65537 1.5413 1.2743 0 0.64324-0.50973 1.0316-1.335 1.0316-0.83742 0-1.5049-0.30341-2.1239-0.82528l-1.0073 1.1044c0.69178 0.66751 1.7355 1.2015 3.1919 1.2015 2.0996 0 3.3375-1.0923 3.3375-2.6579 0-1.5535-0.91024-2.2088-2.5001-2.7186-1.3108-0.41264-1.6263-0.6311-1.6263-1.1651 0-0.53401 0.43691-0.82528 1.1287-0.82528 0.67964 0 1.2622 0.23059 1.8448 0.70392l0.92237-1.0801c-0.74032-0.70392-1.6263-1.0801-2.9128-1.0801z"/>
  <path id="path4933" d="m219.95 17.055c-1.7477 0-3.0341 0.94665-3.0341 2.4273 0 1.2501 0.69178 2.0268 2.5729 2.6093 1.2258 0.37623 1.5413 0.65537 1.5413 1.2743 0 0.64324-0.50974 1.0316-1.335 1.0316-0.83742 0-1.5049-0.30341-2.1239-0.82528l-1.0073 1.1044c0.69178 0.66751 1.7355 1.2015 3.1919 1.2015 2.0996 0 3.3375-1.0923 3.3375-2.6579 0-1.5535-0.91024-2.2088-2.5001-2.7186-1.3107-0.41264-1.6263-0.6311-1.6263-1.1651 0-0.53401 0.43692-0.82528 1.1287-0.82528 0.67964 0 1.2622 0.23059 1.8447 0.70392l0.92238-1.0801c-0.74033-0.70392-1.6263-1.0801-2.9128-1.0801z"/>
  <path id="path4935" d="m228.71 25.672h1.9904v-8.4106h-1.9904v3.2526h-2.5244v-3.2526h-1.9904v8.4106h1.9904v-3.6045h2.5244v3.6045z"/>
 </g>
 <path id="path4496" style="color-rendering:auto;color:#000000;isolation:auto;mix-blend-mode:normal;shape-rendering:auto;solid-color:#000000;image-rendering:auto" d="m254.83 120.27-14.45-25.028 14.45-25.028h28.899l14.45 25.028-14.45 25.028z" stroke="#990d2e" stroke-width="2.4454" fill="none"/>
 <g id="text4506" fill="#400015" transform="matrix(1.2227 0 0 1.2227 -1.2052e-7 .0000038318)">
  <path id="path4924" d="m216.66 73.691h-2.0389l-1.5049 6.8571-1.602-6.8571h-2.0996l2.4273 8.4106h2.4758l2.3424-8.4106z"/>
  <path id="path4926" d="m220.01 73.691h-2.7186v8.4106h1.9904v-2.8035h0.91024c1.9418 0 3.3254-0.91024 3.3254-2.8642 0-1.8447-1.335-2.7428-3.5074-2.7428zm0.0121 4.175h-0.74032v-2.755h0.70391c0.98306 0 1.4807 0.42478 1.4807 1.3229 0 1.0559-0.54614 1.4321-1.4442 1.4321z"/>
  <path id="path4928" d="m231.04 73.691h-1.7841v3.3982c0 1.3472 0.15777 2.4516 0.267 3.1312l-2.488-6.5294h-2.4758v8.4106h1.7719v-3.0827c0-1.5535-0.15778-2.67-0.25487-3.4346l2.4273 6.5173h2.5365v-8.4106z"/>
 </g>
 <path id="path4498" style="color-rendering:auto;color:#000000;isolation:auto;mix-blend-mode:normal;shape-rendering:auto;solid-color:#000000;image-rendering:auto" d="m254.83 189.27-14.45-25.028 14.45-25.028h28.899l14.45 25.028-14.45 25.028z" stroke="#990d2e" stroke-width="2.4454" fill="none"/>
 <g id="text4510" fill="#400015" transform="matrix(1.2227 0 0 1.2227 -1.2052e-7 .0000038318)">
  <path id="path4915" d="m210.56 131.78c-1.6263 0-2.6336 0.86169-2.6336 1.9661 0 0.9952 0.63109 1.6506 1.9054 2.0147 1.1651 0.32769 1.3593 0.46119 1.3593 0.8981 0 0.38837-0.35196 0.60683-0.93452 0.60683-0.63109 0-1.2258-0.25487-1.7112-0.6311l-0.93451 1.0437c0.6311 0.57041 1.5777 0.95878 2.6943 0.95878 1.602 0 2.8642-0.78887 2.8642-2.1239 0-1.153-0.71605-1.687-1.9904-2.0511-1.153-0.33982-1.3229-0.48546-1.3229-0.82528 0-0.29128 0.25487-0.48546 0.77674-0.48546 0.55828 0 1.0923 0.18204 1.5899 0.49759l0.70391-1.0802c-0.59468-0.48546-1.4321-0.78887-2.3666-0.78887z"/>
  <path id="path4917" d="m214.18 138.43h1.9904v-3.3375h2.4516v-1.42h-2.4516v-2.2331h2.8157l0.20632-1.42h-5.0124v8.4106z"/>
  <path id="path4919" d="m225.84 130.02h-6.4323v1.5292h2.1724v6.8814h1.9904v-6.8814h2.0753l0.19418-1.5292z"/>
  <path id="path4921" d="m229.34 130.02h-2.7186v8.4106h1.9904v-2.8035h0.91024c1.9418 0 3.3254-0.91024 3.3254-2.8642 0-1.8448-1.335-2.7428-3.5074-2.7428zm0.0121 4.175h-0.74033v-2.755h0.70392c0.98305 0 1.4806 0.42478 1.4806 1.3229 0 1.0559-0.54614 1.4321-1.4442 1.4321z"/>
 </g>
 <path id="path4500" style="color-rendering:auto;color:#000000;isolation:auto;mix-blend-mode:normal;shape-rendering:auto;solid-color:#000000;image-rendering:auto" d="m254.83 258.26-14.45-25.028 14.45-25.028h28.899l14.45 25.028-14.45 25.028z" stroke="#990d2e" stroke-width="2.4454" fill="none"/>
 <g id="text4514" fill="#400015" transform="matrix(1.2227 0 0 1.2227 -1.2052e-7 .0000038318)">
  <path id="path4908" d="m217.32 189.66c-0.61896 0-1.1044 0.4976-1.1044 1.0923 0 0.60683 0.48546 1.1044 1.1044 1.1044 0.60682 0 1.0923-0.4976 1.0923-1.1044 0-0.59468-0.48546-1.0923-1.0923-1.0923z"/>
  <path id="path4910" d="m220.24 189.66c-0.61896 0-1.1044 0.4976-1.1044 1.0923 0 0.60683 0.48546 1.1044 1.1044 1.1044 0.60683 0 1.0923-0.4976 1.0923-1.1044 0-0.59468-0.48546-1.0923-1.0923-1.0923z"/>
  <path id="path4912" d="m223.15 189.66c-0.61896 0-1.1044 0.4976-1.1044 1.0923 0 0.60683 0.48546 1.1044 1.1044 1.1044 0.60683 0 1.0923-0.4976 1.0923-1.1044 0-0.59468-0.48546-1.0923-1.0923-1.0923z"/>
 </g>
 <g stroke="#990d2e" fill="none">
  <g id="g10280" transform="matrix(1.2227 0 0 1.2227 2317.4 -590.19)" stroke-dasharray="2, 1">
   <path id="path4492" d="m-1731.6 504.15v169.29"/>
   <path id="path4556" d="m-1731.6 504.15 32.925 0.00001"/>
   <path id="path4558" d="m-1731.6 560.58 32.925 0.00001"/>
   <path id="path4560" d="m-1731.6 617.01 32.925 0.00001"/>
   <path id="path4562" d="m-1731.6 673.43 32.925 0.00001"/>
  </g>
  <g id="g10273" transform="matrix(1.2227 0 0 1.2227 2317.4 -590.19)" stroke-dasharray="2, 1">
   <path id="path4564" d="m-1618.5 504.15v169.29"/>
   <path id="path4566" d="m-1618.5 504.15-32.925 0.00001"/>
   <path id="path4568" d="m-1618.5 560.58-32.925 0.00001"/>
   <path id="path4570" d="m-1618.5 617.01-32.925 0.00001"/>
   <path id="path4572" d="m-1618.5 673.43-32.925 0.00001"/>
  </g>
  <path id="path4574" style="color-rendering:auto;color:#000000;isolation:auto;mix-blend-mode:normal;shape-rendering:auto;solid-color:#000000;image-rendering:auto" d="m436.23 187.53-33.366-57.791 33.366-57.791h66.731l33.366 57.791-33.366 57.791z" stroke-width="4.8909"/>
 </g>
 <g id="text5032" fill="#400015" transform="matrix(1.2227 0 0 1.2227 3.4675 -.52966)">
  <path id="path4846" d="m361.43 103.08h-2.24v6.9302h1.64v-2.31h0.75002c1.6 0 2.7401-0.75002 2.7401-2.36 0-1.52-1.1-2.26-2.8901-2.26zm0.01 3.4401h-0.61002v-2.27h0.58002c0.81001 0 1.22 0.35001 1.22 1.09 0 0.87002-0.45001 1.18-1.19 1.18z"/>
  <path id="path4848" d="m368.23 110.01h1.74l-2.09-6.9302h-1.99l-2.09 6.9302h1.7l0.35001-1.49h2.02l0.36 1.49zm-2.1-2.6801 0.73001-3.0601 0.73002 3.0601h-1.46z"/>
  <path id="path4850" d="m376.84 103.08h-2.08l-0.97002 4.7001-1.04-4.7001h-2.07l-0.52001 6.9302h1.6l0.12-2.6901c0.04-0.97002 0.04-1.83-0.03-2.8501l1.14 4.8101h1.55l1.07-4.8101c-0.05 0.86002-0.03 1.86 0.02 2.8301l0.12 2.7101h1.61l-0.52001-6.9302z"/>
  <path id="path4852" d="m382.34 103.08h-1.64v6.9302h4.1701l0.17001-1.3h-2.7001v-5.6301z"/>
  <path id="path4854" d="m387.76 103.08h-1.93v6.9302h2.08c1.77 0 3.4501-0.71001 3.4501-3.5001 0-2.8601-1.75-3.4301-3.6001-3.4301zm0.23001 1.19c0.96002 0 1.67 0.38001 1.67 2.24 0 1.84-0.66002 2.3101-1.65 2.3101h-0.54001v-4.5501h0.52001z"/>
  <path id="path4856" d="m395.89 110.01h1.74l-2.09-6.9302h-1.99l-2.09 6.9302h1.7l0.35-1.49h2.02l0.36001 1.49zm-2.1-2.6801 0.73002-3.0601 0.73001 3.0601h-1.46z"/>
  <path id="path4858" d="m400.38 103.08h-2.24v6.9302h1.64v-2.31h0.75002c1.6 0 2.7401-0.75002 2.7401-2.36 0-1.52-1.1-2.26-2.8901-2.26zm0.01 3.4401h-0.61002v-2.27h0.58002c0.81001 0 1.22 0.35001 1.22 1.09 0 0.87002-0.45001 1.18-1.19 1.18z"/>
 </g>
 <g>
  <path id="path5036" style="color-rendering:auto;color:#000000;isolation:auto;mix-blend-mode:normal;shape-rendering:auto;solid-color:#000000;image-rendering:auto" d="m660.09 196.47-57.791-33.366v-66.731l57.791-33.366 57.791 33.366v66.731z" stroke="#990d2e" stroke-width="4.8909" fill="none"/>
  <g fill-rule="evenodd" fill="#990d2e">
   <path id="path5080" style="color-rendering:auto;text-decoration-color:#000000;color:#000000;isolation:auto;mix-blend-mode:normal;shape-rendering:auto;solid-color:#000000;block-progression:tb;text-decoration-line:none;text-decoration-style:solid;image-rendering:auto;white-space:normal;text-indent:0;text-transform:none" d="m583.43 92.707 2.9422 3.2096h-69.306v0.91704h69.306l-2.9422 3.2097 10.298-3.2097h1.4711v-0.45852-0.45852h-1.4711l-10.298-3.2096z"/>
   <path id="path5082" style="color-rendering:auto;text-decoration-color:#000000;color:#000000;isolation:auto;mix-blend-mode:normal;shape-rendering:auto;solid-color:#000000;block-progression:tb;text-decoration-line:none;text-decoration-style:solid;image-rendering:auto;white-space:normal;text-indent:0;text-transform:none" d="m535.94 159.44-10.298 3.2096h-1.4711v0.45852 0.45852h1.4711l10.298 3.2096-2.9422-3.2096h69.306v-0.91704h-69.306l2.9422-3.2096z"/>
   <path id="path5580" style="color-rendering:auto;text-decoration-color:#000000;color:#000000;isolation:auto;mix-blend-mode:normal;shape-rendering:auto;solid-color:#000000;block-progression:tb;text-decoration-line:none;text-decoration-style:solid;image-rendering:auto;white-space:normal;text-indent:0;text-transform:none" d="m338.43 48.932v0.91704h130.7v6.9054l-3.2096-3.2096 3.2096 11.234v1.6048h0.45852 0.45852v-1.6048l3.2096-11.234-3.2096 3.2096v-7.8225z"/>
   <path id="path5582" style="color-rendering:auto;text-decoration-color:#000000;color:#000000;isolation:auto;mix-blend-mode:normal;shape-rendering:auto;solid-color:#000000;block-progression:tb;text-decoration-line:none;text-decoration-style:solid;image-rendering:auto;white-space:normal;text-indent:0;text-transform:none" d="m469.14 187.53v22.102h-113.36l3.2096-3.2096-11.234 3.2096h-1.6048v0.45853 0.45852h1.6048l11.234 3.2096-3.2096-3.2096h114.27v-23.019z"/>
   <path id="path5908" style="color-rendering:auto;text-decoration-color:#000000;color:#000000;isolation:auto;mix-blend-mode:normal;shape-rendering:auto;solid-color:#000000;block-progression:tb;text-decoration-line:none;text-decoration-style:solid;image-rendering:auto;white-space:normal;text-indent:0;text-transform:none" d="m201.99 290.93-3.458 3.458 3.458 3.458 3.4581-3.458zm515.54 0c-3.9634 3.4322-3.4708 3.4452 0 6.916l3.458-3.458zm-511.02 2.8466v1.2227h2.4454v-1.2227zm7.3363 0v1.2227h2.4454v-1.2227zm7.3364 0v1.2227h2.4454v-1.2227zm7.3363 0v1.2227h2.4454v-1.2227zm7.3363 0v1.2227h2.4454v-1.2227zm7.3363 0v1.2227h2.4455v-1.2227zm7.3364 0v1.2227h2.4454v-1.2227zm7.3363 0v1.2227h2.4454v-1.2227zm7.3363 0v1.2227h2.4454v-1.2227zm7.3363 0v1.2227h2.4454v-1.2227zm7.3363 0v1.2227h2.4454v-1.2227zm7.3363 0v1.2227h2.4454v-1.2227zm7.3363 0v1.2227h2.4454v-1.2227zm7.3363 0v1.2227h2.4454v-1.2227zm7.3363 0v1.2227h2.4454v-1.2227zm7.3363 0v1.2227h2.4454v-1.2227zm7.3364 0v1.2227h2.4454v-1.2227zm7.3363 0v1.2227h2.4454v-1.2227zm7.3363 0v1.2227h2.4454v-1.2227zm7.3363 0v1.2227h2.4455v-1.2227zm7.3364 0v1.2227h2.4454v-1.2227zm7.3363 0v1.2227h2.4454v-1.2227zm7.3363 0v1.2227h2.4454v-1.2227zm7.3363 0v1.2227h2.4455v-1.2227zm7.3364 0v1.2227h2.4454v-1.2227zm7.3363 0v1.2227h2.4454v-1.2227zm7.3363 0v1.2227h2.4455v-1.2227zm7.3364 0v1.2227h2.4454v-1.2227zm7.3363 0v1.2227h2.4454v-1.2227zm7.3363 0v1.2227h2.4454v-1.2227zm7.3363 0v1.2227h2.4454v-1.2227zm7.3363 0v1.2227h2.4454v-1.2227zm7.3363 0v1.2227h2.4454v-1.2227zm7.3364 0v1.2227h2.4454v-1.2227zm7.3363 0v1.2227h2.4454v-1.2227zm7.3363 0v1.2227h2.4454v-1.2227zm7.3363 0v1.2227h2.4454v-1.2227zm7.3364 0v1.2227h2.4454v-1.2227zm7.3363 0v1.2227h2.4454v-1.2227zm7.3363 0v1.2227h2.4454v-1.2227zm7.3363 0v1.2227h2.4455v-1.2227zm7.3364 0v1.2227h2.4454v-1.2227zm7.3363 0v1.2227h2.4454v-1.2227zm7.3363 0v1.2227h2.4454v-1.2227zm7.3363 0v1.2227h2.4454v-1.2227zm7.3363 0v1.2227h2.4454v-1.2227zm7.3363 0v1.2227h2.4454v-1.2227zm7.3363 0v1.2227h2.4454v-1.2227zm7.3363 0v1.2227h2.4454v-1.2227zm7.3363 0v1.2227h2.4454v-1.2227zm7.3363 0v1.2227h2.4454v-1.2227zm7.3364 0v1.2227h2.4454v-1.2227zm7.3363 0v1.2227h2.4454v-1.2227zm7.3363 0v1.2227h2.4454v-1.2227zm7.3364 0v1.2227h2.4454v-1.2227zm7.3363 0v1.2227h2.4454v-1.2227zm7.3363 0v1.2227h2.4454v-1.2227zm7.3363 0v1.2227h2.4455v-1.2227zm7.3364 0v1.2227h2.4454v-1.2227zm7.3363 0v1.2227h2.4454v-1.2227zm7.3363 0v1.2227h2.4454v-1.2227zm7.3363 0v1.2227h2.4454v-1.2227zm7.3363 0v1.2227h2.4454v-1.2227zm7.3363 0v1.2227h2.4454v-1.2227zm7.3364 0v1.2227h2.4454v-1.2227zm7.3363 0v1.2227h2.4454v-1.2227zm7.3363 0v1.2227h2.4454v-1.2227zm7.3363 0v1.2227h2.4455v-1.2227zm7.3364 0v1.2227h2.4454v-1.2227zm7.3363 0v1.2227h2.4454v-1.2227z"/>
  </g>
 </g>
 <g id="g14328" transform="matrix(1.2227 0 0 1.2227 -1.2052e-7 -.14145)">
  <g id="text5038" fill="#400015" transform="translate(.019675 -19.321)">
   <path id="path4809" d="m515.1 96.048h-1.93v6.9302h2.08c1.77 0 3.4501-0.71002 3.4501-3.5001 0-2.8601-1.75-3.4301-3.6001-3.4301zm0.23001 1.19c0.96002 0 1.67 0.38001 1.67 2.24 0 1.84-0.66001 2.31-1.65 2.31h-0.54002v-4.5501h0.52002z"/>
   <path id="path4811" d="m521.31 96.048h-1.64v6.9302h1.64v-6.9302z"/>
   <path id="path4813" d="m526.3 102.98h1.85l-1.76-2.9501c0.90002-0.41 1.33-0.96002 1.33-1.87 0-1.44-0.97002-2.11-2.8501-2.11h-2.27v6.9302h1.64v-2.6501h0.64001l1.42 2.6501zm-2.06-5.7801h0.59001c0.81002 0 1.2 0.29001 1.2 0.96002 0 0.73002-0.38001 1.04-1.1 1.04h-0.69002v-2z"/>
   <path id="path4815" d="m533.02 96.048h-4.2501v6.9302h4.2501v-1.18h-2.6101v-1.77h2.13v-1.15h-2.13v-1.66h2.4401l0.17-1.17z"/>
   <path id="path4817" d="m536.72 95.878c-1.8 0-3.1501 1.3-3.1501 3.6201 0 2.3701 1.27 3.6501 3.1701 3.6501 0.96003 0 1.71-0.43001 2.17-0.89002l-0.73001-0.94002c-0.41001 0.31001-0.81002 0.56002-1.36 0.56002-0.92002 0-1.53-0.71002-1.53-2.3801 0-1.7 0.62002-2.4101 1.51-2.4101 0.47001 0 0.86002 0.18 1.25 0.48001l0.78002-0.93002c-0.58001-0.49001-1.21-0.76002-2.11-0.76002z"/>
   <path id="path4819" d="m544.28 96.048h-5.3001v1.26h1.79v5.6701h1.64v-5.6701h1.71l0.16-1.26z"/>
   <path id="path4821" d="m547.38 95.878c-1.95 0-3.1201 1.37-3.1201 3.6301 0 2.31 1.17 3.6401 3.1201 3.6401 1.96 0 3.1301-1.37 3.1301-3.6401 0-2.3101-1.17-3.6301-3.1301-3.6301zm0 1.2c0.93002 0 1.41 0.68002 1.41 2.4301 0 1.76-0.47001 2.4401-1.41 2.4401-0.90002 0-1.4-0.68002-1.4-2.4401 0-1.75 0.48001-2.4301 1.4-2.4301z"/>
   <path id="path4823" d="m555.19 102.98h1.85l-1.76-2.9501c0.90002-0.41 1.33-0.96002 1.33-1.87 0-1.44-0.97002-2.11-2.8501-2.11h-2.27v6.9302h1.64v-2.6501h0.64001l1.42 2.6501zm-2.06-5.7801h0.59001c0.81002 0 1.2 0.29001 1.2 0.96002 0 0.73002-0.38001 1.04-1.1 1.04h-0.69001v-2z"/>
   <path id="path4825" d="m559.3 96.048h-1.64v6.9302h1.64v-6.9302z"/>
   <path id="path4827" d="m563.39 95.878c-1.95 0-3.1201 1.37-3.1201 3.6301 0 2.31 1.17 3.6401 3.1201 3.6401 1.96 0 3.1301-1.37 3.1301-3.6401 0-2.3101-1.17-3.6301-3.1301-3.6301zm0 1.2c0.93002 0 1.41 0.68002 1.41 2.4301 0 1.76-0.47002 2.4401-1.41 2.4401-0.90002 0-1.4-0.68002-1.4-2.4401 0-1.75 0.48001-2.4301 1.4-2.4301z"/>
   <path id="path4829" d="m519.03 108.38c-1.95 0-3.1201 1.37-3.1201 3.6301 0 2.3101 1.17 3.6401 3.1201 3.6401 1.96 0 3.1301-1.37 3.1301-3.6401 0-2.31-1.17-3.6301-3.1301-3.6301zm0 1.2c0.93002 0 1.41 0.68001 1.41 2.43 0 1.76-0.47001 2.4401-1.41 2.4401-0.90002 0-1.4-0.68002-1.4-2.4401 0-1.75 0.48001-2.43 1.4-2.43z"/>
   <path id="path4831" d="m525.38 108.55h-2.24v6.9302h1.64v-2.31h0.75002c1.6 0 2.7401-0.75002 2.7401-2.36 0-1.52-1.1-2.26-2.8901-2.26zm0.01 3.4401h-0.61002v-2.27h0.58001c0.81002 0 1.22 0.35001 1.22 1.09 0 0.87002-0.45001 1.18-1.19 1.18z"/>
   <path id="path4833" d="m533.39 108.55h-4.2501v6.9302h4.2501v-1.18h-2.6101v-1.77h2.13v-1.15h-2.13v-1.66h2.44l0.17001-1.17z"/>
   <path id="path4835" d="m539.73 108.55h-1.47v2.8001c0 1.11 0.13001 2.02 0.22001 2.5801l-2.05-5.3801h-2.04v6.9302h1.46v-2.5401c0-1.28-0.13-2.2-0.21-2.8301l2 5.3701h2.09v-6.9302z"/>
   <path id="path4837" d="m542.65 108.55h-1.64v6.9302h4.1701l0.17001-1.3h-2.7001v-5.6301z"/>
   <path id="path4839" d="m548.08 108.55h-1.93v6.9302h2.08c1.77 0 3.4501-0.71001 3.4501-3.5001 0-2.8601-1.75-3.4301-3.6001-3.4301zm0.23 1.19c0.96003 0 1.67 0.38001 1.67 2.24 0 1.84-0.66001 2.3101-1.65 2.3101h-0.54001v-4.5501h0.52001z"/>
   <path id="path4841" d="m556.2 115.48h1.74l-2.09-6.9302h-1.99l-2.09 6.9302h1.7l0.35001-1.49h2.02l0.36001 1.49zm-2.1-2.6801 0.73002-3.0601 0.73002 3.0601h-1.46z"/>
   <path id="path4843" d="m560.69 108.55h-2.24v6.9302h1.64v-2.31h0.75001c1.6 0 2.7401-0.75002 2.7401-2.36 0-1.52-1.1-2.26-2.8901-2.26zm0.01 3.4401h-0.61001v-2.27h0.58001c0.81002 0 1.22 0.35001 1.22 1.09 0 0.87002-0.45001 1.18-1.19 1.18z"/>
  </g>
  <g id="flowRoot5202" fill="#990d2e" transform="translate(-73.757 12.727)">
   <path id="path5215" d="m598.98 91.109h-1.33v4.5801c0 0.97002-0.39 1.45-1.25 1.45-0.85002 0-1.24-0.48001-1.24-1.45v-4.5801h-1.32v4.6501c0 1.42 0.86002 2.4101 2.5601 2.4101 1.69 0 2.58-1.02 2.58-2.4101v-4.6501z"/>
   <path id="path5217" d="m602.07 92.579c-1.23 0-2.04 0.66001-2.04 1.54 0 0.78002 0.48002 1.3 1.57 1.6 0.99002 0.28001 1.2 0.42001 1.2 0.86002 0 0.40001-0.37001 0.64002-0.94002 0.64002-0.54002 0-1.03-0.21-1.44-0.52001l-0.64001 0.72002c0.49001 0.44001 1.2 0.75002 2.11 0.75002 1.21 0 2.23-0.58001 2.23-1.68 0-0.94002-0.61002-1.38-1.69-1.67-0.90002-0.25001-1.11-0.41001-1.11-0.76002 0-0.32001 0.29001-0.53001 0.80002-0.53001 0.47001 0 0.89002 0.15 1.33 0.43001l0.50001-0.75002c-0.50001-0.39001-1.12-0.63001-1.88-0.63001z"/>
   <path id="path5219" d="m609.4 92.729h-1.28v3.7201c-0.28001 0.46001-0.64001 0.75002-1.07 0.75002-0.44001 0-0.65002-0.21-0.65002-0.83002v-3.6401h-1.28v3.8001c0 1.02 0.52001 1.64 1.48 1.64 0.72001 0 1.23-0.29001 1.62-0.89002l0.07 0.74002h1.11v-5.2901z"/>
   <path id="path5221" d="m614.84 96.619v-2.22c0-1.17-0.62001-1.82-2.03-1.82-0.60001 0-1.27 0.13-1.92 0.38001l0.30001 0.87002c0.53001-0.18 1.04-0.28001 1.4-0.28001 0.68001 0 0.99002 0.23 0.99002 0.92002v0.30001h-0.66001c-1.54 0-2.4101 0.62001-2.4101 1.77 0 0.96002 0.65002 1.63 1.71 1.63 0.63001 0 1.21-0.23 1.58-0.79002 0.21 0.51001 0.59001 0.72002 1.17 0.77002l0.27001-0.85002c-0.26001-0.1-0.40001-0.25-0.40001-0.68002zm-2.28 0.62001c-0.49001 0-0.75002-0.29001-0.75002-0.80002 0-0.62001 0.41001-0.92002 1.24-0.92002h0.53001v1.07c-0.24 0.42001-0.57001 0.65002-1.02 0.65002z"/>
   <path id="path5223" d="m619.01 92.589c-0.62001 0-1.13 0.42001-1.38 1.18l-0.12-1.04h-1.11v5.2901h1.28v-2.8201c0.20001-0.89002 0.53001-1.36 1.17-1.36 0.18 0 0.31001 0.02 0.47001 0.06l0.22-1.24c-0.17-0.05-0.34-0.07-0.53001-0.07z"/>
   <path id="path5225" d="m620.97 90.049c-0.47001 0-0.80002 0.34001-0.80002 0.78002 0 0.43001 0.33001 0.77002 0.80002 0.77002 0.48001 0 0.81002-0.34001 0.81002-0.77002 0-0.44001-0.33001-0.78002-0.81002-0.78002zm0.65001 2.6801h-1.28v5.2901h1.28v-5.2901z"/>
   <path id="path5227" d="m622.91 95.399h3.0201v-1.02h-3.0201v1.02z"/>
   <path id="path5229" d="m628.87 92.579c-1.23 0-2.04 0.66001-2.04 1.54 0 0.78002 0.48001 1.3 1.57 1.6 0.99002 0.28001 1.2 0.42001 1.2 0.86002 0 0.40001-0.37001 0.64002-0.94002 0.64002-0.54001 0-1.03-0.21-1.44-0.52001l-0.64001 0.72002c0.49001 0.44001 1.2 0.75002 2.11 0.75002 1.21 0 2.23-0.58001 2.23-1.68 0-0.94002-0.61001-1.38-1.69-1.67-0.90002-0.25001-1.11-0.41001-1.11-0.76002 0-0.32001 0.29001-0.53001 0.80002-0.53001 0.47001 0 0.89002 0.15 1.33 0.43001l0.50001-0.75002c-0.50001-0.39001-1.12-0.63001-1.88-0.63001z"/>
   <path id="path5231" d="m596.73 103.46c-1.73 0-3.1701 1.26-3.1701 3.6001 0 2.3701 1.08 3.6101 3.0501 3.6101 0.87002 0 1.69-0.26 2.38-0.68001v-3.3801h-2.48l0.14 0.98003h1.04v1.8c-0.33001 0.19-0.71002 0.27-1.1 0.27-1.08 0-1.64-0.71001-1.64-2.6001 0-1.86 0.84002-2.6001 1.82-2.6001 0.59002 0 0.98003 0.18001 1.45 0.55002l0.71001-0.74002c-0.58001-0.49001-1.24-0.81002-2.2-0.81002z"/>
   <path id="path5233" d="m602.89 105.09c-0.62001 0-1.13 0.42001-1.38 1.18l-0.12-1.04h-1.11v5.2901h1.28v-2.8201c0.20001-0.89002 0.53001-1.36 1.17-1.36 0.18 0 0.31 0.02 0.47001 0.06l0.22-1.24c-0.17-0.05-0.34001-0.07-0.53001-0.07z"/>
   <path id="path5235" d="m608.46 105.23h-1.28v3.7201c-0.28001 0.46001-0.64001 0.75001-1.07 0.75001-0.44001 0-0.65002-0.21-0.65002-0.83002v-3.6401h-1.28v3.8001c0 1.02 0.52001 1.64 1.48 1.64 0.72001 0 1.23-0.29 1.62-0.89002l0.07 0.74002h1.11v-5.2901z"/>
   <path id="path5237" d="m612.73 105.08c-0.57001 0-1.13 0.25-1.55 0.80002l-0.07-0.65002h-1.12v7.4702l1.28-0.14v-2.4701c0.33001 0.39001 0.79002 0.58001 1.33 0.58001 1.34 0 2.09-1.19 2.09-2.8101 0-1.69-0.58002-2.7801-1.96-2.7801zm-0.49001 4.6101c-0.40001 0-0.72001-0.18-0.97002-0.55001v-2.38c0.25001-0.41001 0.63001-0.72002 1.08-0.72002 0.64002 0 1 0.49001 1 1.83 0 1.28-0.41001 1.82-1.11 1.82z"/>
   <path id="path5239" d="m618.11 105.08c-1.57 0-2.5 1.13-2.5 2.7901 0 1.74 0.93002 2.8001 2.49 2.8001s2.4901-1.13 2.4901-2.8001c0-1.73-0.92002-2.7901-2.4801-2.7901zm0 0.97002c0.74002 0 1.13 0.56001 1.13 1.82s-0.39001 1.83-1.14 1.83c-0.75001 0-1.14-0.56001-1.14-1.83 0-1.25 0.40001-1.82 1.15-1.82z"/>
   <path id="path5241" d="m623.46 105.08c-1.23 0-2.04 0.66001-2.04 1.54 0 0.78002 0.48001 1.3 1.57 1.6 0.99002 0.28001 1.2 0.42001 1.2 0.86002 0 0.40001-0.37 0.64001-0.94002 0.64001-0.54001 0-1.03-0.21-1.44-0.52001l-0.64001 0.72002c0.49001 0.44001 1.2 0.75001 2.11 0.75001 1.21 0 2.23-0.58001 2.23-1.68 0-0.94002-0.61001-1.38-1.69-1.67-0.90002-0.25001-1.11-0.41001-1.11-0.76002 0-0.32001 0.29001-0.53001 0.80002-0.53001 0.47001 0 0.89002 0.15 1.33 0.43001l0.50001-0.75002c-0.50001-0.39001-1.12-0.63001-1.88-0.63001z"/>
   <path id="path5243" d="m595.93 115.96c-1.36 0-2.3501 0.76002-2.3501 1.91 0 1.05 0.63002 1.63 2.08 2.08 1.08 0.33001 1.37 0.59002 1.37 1.17 0 0.67002-0.53001 1.03-1.27 1.03-0.72001 0-1.27-0.26-1.78-0.69001l-0.68001 0.76002c0.57001 0.56001 1.39 0.95002 2.49 0.95002 1.65 0 2.6201-0.88002 2.6201-2.12 0-1.3-0.84002-1.8-2.05-2.18-1.15-0.36001-1.42-0.58001-1.42-1.08 0-0.54002 0.45001-0.82002 1.07-0.82002 0.57001 0 1.05 0.18 1.55 0.59001l0.65002-0.75002c-0.60002-0.55001-1.27-0.85002-2.28-0.85002z"/>
   <path id="path5245" d="m603.84 120.25c0-1.67-0.85002-2.6701-2.33-2.6701-1.5 0-2.35 1.22-2.35 2.8301 0 1.67 0.88002 2.7601 2.52 2.7601 0.80002 0 1.44-0.29001 1.96-0.71002l-0.53001-0.73002c-0.46001 0.32001-0.85002 0.47001-1.32 0.47001-0.70002 0-1.21-0.35-1.3-1.43h3.3201c0.01-0.14 0.03-0.35001 0.03-0.52001zm-1.27-0.31001h-2.08c0.07-1.05 0.45001-1.45 1.05-1.45 0.72002 0 1.03 0.52001 1.03 1.39v0.06z"/>
   <path id="path5247" d="m607.6 117.59c-0.62002 0-1.13 0.42001-1.38 1.18l-0.12001-1.04h-1.11v5.2901h1.28v-2.8201c0.2-0.89002 0.53001-1.36 1.17-1.36 0.18001 0 0.31001 0.02 0.47001 0.06l0.22001-1.24c-0.17001-0.05-0.34001-0.07-0.53001-0.07z"/>
   <path id="path5249" d="m613.19 117.73h-1.32l-1.16 4.2601-1.13-4.2601h-1.39l1.75 5.2901h1.53l1.72-5.2901z"/>
   <path id="path5251" d="m614.61 115.05c-0.47001 0-0.80002 0.34001-0.80002 0.78002 0 0.43001 0.33001 0.77002 0.80002 0.77002 0.48001 0 0.81002-0.34001 0.81002-0.77002 0-0.44001-0.33001-0.78002-0.81002-0.78002zm0.65001 2.6801h-1.28v5.2901h1.28v-5.2901z"/>
   <path id="path5253" d="m618.92 117.58c-1.52 0-2.4701 1.15-2.4701 2.8401 0 1.69 0.95002 2.7501 2.4801 2.7501 0.68001 0 1.23-0.22001 1.71-0.61002l-0.57001-0.81002c-0.39001 0.25001-0.67001 0.38001-1.07 0.38001-0.72002 0-1.19-0.45001-1.19-1.73 0-1.27 0.45001-1.81 1.19-1.81 0.40001 0 0.72001 0.12001 1.07 0.38001l0.57001-0.77001c-0.50001-0.43001-1.03-0.62002-1.72-0.62002z"/>
   <path id="path5255" d="m622.2 115.05c-0.47001 0-0.80002 0.34001-0.80002 0.78002 0 0.43001 0.33001 0.77002 0.80002 0.77002 0.48001 0 0.81001-0.34001 0.81001-0.77002 0-0.44001-0.33-0.78002-0.81001-0.78002zm0.65001 2.6801h-1.28v5.2901h1.28v-5.2901z"/>
   <path id="path5257" d="m626.55 117.58c-1.57 0-2.5 1.13-2.5 2.7901 0 1.74 0.93002 2.8001 2.49 2.8001s2.4901-1.13 2.4901-2.8001c0-1.73-0.92002-2.7901-2.4801-2.7901zm0 0.97002c0.74002 0 1.13 0.56002 1.13 1.82s-0.39001 1.83-1.14 1.83c-0.75001 0-1.14-0.56001-1.14-1.83 0-1.25 0.40001-1.82 1.15-1.82z"/>
   <path id="path5259" d="m631.9 117.58c-1.23 0-2.04 0.66002-2.04 1.54 0 0.78001 0.48001 1.3 1.57 1.6 0.99003 0.28001 1.2 0.42001 1.2 0.86002 0 0.40001-0.37001 0.64002-0.94002 0.64002-0.54001 0-1.03-0.21001-1.44-0.52002l-0.64002 0.72002c0.49001 0.44001 1.2 0.75002 2.11 0.75002 1.21 0 2.23-0.58002 2.23-1.68 0-0.94002-0.61001-1.38-1.69-1.67-0.90002-0.25-1.11-0.41001-1.11-0.76002 0-0.32 0.29001-0.53001 0.80002-0.53001 0.47001 0 0.89002 0.15001 1.33 0.43001l0.50001-0.75001c-0.50001-0.39001-1.12-0.63002-1.88-0.63002z"/>
  </g>
 </g>
 <g fill="#3f0015" fill-opacity=".99216">
  <g id="text14373">
   <path id="path14523" d="m528.27 71.15c-1.95 0-3.5751 1.5375-3.5751 4.4501 0 2.9001 1.5125 4.4626 3.6001 4.4626 1.1625 0 1.9875-0.47501 2.4626-0.96252l-0.58751-0.75002c-0.48751 0.36251-1.025 0.71252-1.8375 0.71252-1.3375 0-2.3751-0.97502-2.3751-3.4626 0-2.6001 1.0875-3.4751 2.3876-3.4751 0.60001 0 1.125 0.2 1.6625 0.63751l0.65002-0.76252c-0.68752-0.55001-1.3-0.85002-2.3876-0.85002z"/>
   <path id="path14525" d="m534.87 73.175c-0.80002 0-1.4125 0.50001-1.7625 1.4875l-0.1125-1.3375h-0.98753v6.5876h1.15v-3.7626c0.27501-1.2625 0.75002-1.85 1.575-1.85 0.23751 0 0.37501 0.025 0.57502 0.075l0.2125-1.125c-0.2-0.05-0.43751-0.075-0.65001-0.075z"/>
   <path id="path14527" d="m541.45 76.425c0-2.0125-0.93752-3.2501-2.7126-3.2501-1.7 0-2.7376 1.4625-2.7376 3.5126 0 2.0875 1.075 3.3751 2.9126 3.3751 0.91252 0 1.65-0.31251 2.3-0.82502l-0.50001-0.68752c-0.57501 0.40001-1.0625 0.57501-1.7125 0.57501-0.95002 0-1.6625-0.58751-1.775-2.1125h4.2001c0.0125-0.15 0.025-0.36251 0.025-0.58751zm-1.1375-0.26251h-3.0876c0.0875-1.4625 0.66252-2.075 1.5375-2.075 1.0375 0 1.55 0.71252 1.55 2v0.075z"/>
   <path id="path14529" d="m547.24 70.538v3.4501c-0.43751-0.46251-1-0.81252-1.775-0.81252-1.6125 0-2.5876 1.4625-2.5876 3.4751 0 2.05 0.88752 3.4126 2.4876 3.4126 0.81252 0 1.475-0.40001 1.9-1.0625l0.11251 0.91252h1.0125v-9.2377l-1.15-0.1375zm-1.625 8.6127c-0.95002 0-1.5-0.78752-1.5-2.5251 0-1.7125 0.61252-2.5376 1.6-2.5376 0.65001 0 1.1125 0.33751 1.525 0.86252v3.2251c-0.43751 0.61251-0.88752 0.97502-1.625 0.97502z"/>
   <path id="path14531" d="m555.74 76.425c0-2.0125-0.93752-3.2501-2.7126-3.2501-1.7 0-2.7376 1.4625-2.7376 3.5126 0 2.0875 1.075 3.3751 2.9126 3.3751 0.91252 0 1.65-0.31251 2.3-0.82502l-0.5-0.688c-0.57501 0.40001-1.0625 0.57501-1.7125 0.57501-0.95002 0-1.6625-0.58751-1.775-2.1125h4.2001c0.0125-0.15 0.025-0.36251 0.025-0.58751zm-1.1375-0.26251h-3.0876c0.0875-1.4625 0.66252-2.075 1.5375-2.075 1.0375 0 1.55 0.71252 1.55 2v0.075z"/>
   <path id="path14533" d="m560.67 73.175c-0.86252 0-1.5625 0.45001-2.0125 1.125l-0.10001-0.97502h-0.98752v6.5876h1.15v-4.6751c0.43751-0.70002 0.93752-1.1625 1.675-1.1625 0.63751 0 1.0375 0.28751 1.0375 1.275v4.5626h1.15v-4.7251c0-1.25-0.70001-2.0125-1.9125-2.0125z"/>
   <path id="path14535" d="m567.3 73.175c-1.7875 0-2.8751 1.4-2.8751 3.5001 0 2.125 1.1 3.3876 2.8751 3.3876 0.76252 0 1.425-0.25 2.0125-0.72502l-0.52501-0.75002c-0.50001 0.32501-0.88752 0.50001-1.4375 0.50001-1.0375 0-1.6875-0.71252-1.6875-2.4376 0-1.7125 0.65002-2.5251 1.6875-2.5251 0.55001 0 0.96252 0.1625 1.4125 0.48751l0.55001-0.72502c-0.61251-0.51251-1.2375-0.71252-2.0125-0.71252z"/>
   <path id="path14537" d="m571.44 70.163c-0.47501 0-0.80002 0.33751-0.80002 0.78752 0 0.43751 0.32501 0.77502 0.80002 0.77502 0.48751 0 0.81252-0.33751 0.81252-0.77502 0-0.45001-0.32501-0.78752-0.81252-0.78752zm0.58751 3.1626h-1.15v6.5876h1.15v-6.5876z"/>
   <path id="path14539" d="m578.83 78.375v-3.0126c0-1.375-0.72502-2.1875-2.3126-2.1875-0.73752 0-1.4625 0.15-2.275 0.45001l0.2875 0.83752c0.67502-0.225 1.2875-0.35001 1.775-0.35001 0.91252 0 1.375 0.35001 1.375 1.3v0.48751h-1.0125c-1.8375 0-2.9001 0.76252-2.9001 2.175 0 1.175 0.78752 1.9875 2.1 1.9875 0.80002 0 1.5-0.30001 1.9626-0.98752 0.2 0.65002 0.62501 0.91252 1.2875 0.98752l0.2625-0.80002c-0.33751-0.125-0.55001-0.31251-0.55001-0.88752zm-2.7001 0.82502c-0.75002 0-1.1375-0.41251-1.1375-1.1875 0-0.90002 0.61252-1.35 1.825-1.35h0.86252v1.5125c-0.37501 0.68752-0.87502 1.025-1.55 1.025z"/>
   <path id="path14541" d="m582.4 80.063c0.33751 0 0.66252-0.0875 0.91252-0.225l-0.3-0.80002c-0.12501 0.05-0.26251 0.075-0.42501 0.075-0.30001 0-0.41251-0.175-0.41251-0.52501v-8.0502l-1.15 0.1375v7.9377c0 0.93752 0.53752 1.45 1.375 1.45z"/>
   <path id="path14543" d="m589.65 76.425c0-2.0125-0.93752-3.2501-2.7126-3.2501-1.7 0-2.7376 1.4625-2.7376 3.5126 0 2.0875 1.075 3.3751 2.9126 3.3751 0.91252 0 1.65-0.31251 2.3-0.82502l-0.50001-0.68752c-0.57502 0.40001-1.0625 0.57501-1.7125 0.57501-0.95002 0-1.6625-0.58751-1.775-2.1125h4.2001c0.0125-0.15 0.025-0.36251 0.025-0.58751zm-1.1375-0.26251h-3.0876c0.0875-1.4625 0.66251-2.075 1.5375-2.075 1.0375 0 1.55 0.71252 1.55 2v0.075z"/>
   <path id="path14545" d="m593.27 73.175c-1.3625 0-2.375 0.76252-2.375 1.8125 0 0.92502 0.56251 1.5375 1.9875 1.9125 1.275 0.33751 1.6 0.58751 1.6 1.2375 0 0.62501-0.55001 1-1.4125 1-0.71252 0-1.325-0.2375-1.85-0.63751l-0.61252 0.70002c0.57501 0.50001 1.375 0.86252 2.4876 0.86252 1.3375 0 2.6001-0.62501 2.6001-2 0-1.15-0.80002-1.7-2.1876-2.05-1.0625-0.27501-1.4125-0.52501-1.4125-1.0625 0-0.52501 0.46251-0.86252 1.2125-0.86252 0.61252 0 1.125 0.1875 1.7125 0.56251l0.48751-0.72502c-0.62501-0.47501-1.3125-0.75002-2.2376-0.75002z"/>
  </g>
  <g id="text14377">
   <path id="path14478" d="m536.91 182.09h-1.2l-2.1626 7.3252-2.1626-7.3252h-1.275l2.7751 8.6127h1.275l2.7501-8.6127z"/>
   <path id="path14480" d="m542.13 189.16v-3.0126c0-1.375-0.72502-2.1876-2.3126-2.1876-0.73752 0-1.4625 0.15001-2.275 0.45001l0.2875 0.83752c0.67502-0.225 1.2875-0.35001 1.775-0.35001 0.91252 0 1.375 0.35001 1.375 1.3v0.48751h-1.0125c-1.8375 0-2.9001 0.76252-2.9001 2.175 0 1.175 0.78751 1.9876 2.1 1.9876 0.80002 0 1.5-0.30001 1.9626-0.98752 0.2 0.65001 0.62501 0.91252 1.2875 0.98752l0.2625-0.80002c-0.33751-0.125-0.55001-0.31251-0.55001-0.88752zm-2.7001 0.82502c-0.75002 0-1.1375-0.41251-1.1375-1.1875 0-0.90002 0.61252-1.35 1.825-1.35h0.86252v1.5125c-0.375 0.68751-0.87502 1.025-1.55 1.025z"/>
   <path id="path14482" d="m545.69 190.85c0.33751 0 0.66252-0.0875 0.91252-0.22501l-0.3-0.80002c-0.12501 0.05-0.26251 0.075-0.42501 0.075-0.30001 0-0.41251-0.17501-0.41251-0.52502v-8.0502l-1.15 0.13751v7.9377c0 0.93752 0.53751 1.45 1.375 1.45z"/>
   <path id="path14484" d="m548.6 180.95c-0.47501 0-0.80002 0.3375-0.80002 0.78751 0 0.43751 0.32501 0.77502 0.80002 0.77502 0.48751 0 0.81252-0.33751 0.81252-0.77502 0-0.45001-0.32501-0.78751-0.81252-0.78751zm0.58751 3.1626h-1.15v6.5876h1.15v-6.5876z"/>
   <path id="path14486" d="m555.51 181.32v3.4501c-0.43751-0.46251-1-0.81252-1.775-0.81252-1.6125 0-2.5876 1.4625-2.5876 3.4751 0 2.05 0.88752 3.4126 2.4876 3.4126 0.81251 0 1.475-0.40001 1.9-1.0625l0.1125 0.91252h1.0125v-9.2377l-1.15-0.13751zm-1.625 8.6127c-0.95002 0-1.5-0.78752-1.5-2.5251 0-1.7125 0.61251-2.5376 1.6-2.5376 0.65002 0 1.1125 0.33751 1.525 0.86252v3.2251c-0.43751 0.61251-0.88752 0.97502-1.625 0.97502z"/>
   <path id="path14488" d="m563.46 189.16v-3.0126c0-1.375-0.72502-2.1876-2.3126-2.1876-0.73752 0-1.4625 0.15001-2.275 0.45001l0.2875 0.83752c0.67502-0.225 1.2875-0.35001 1.775-0.35001 0.91252 0 1.375 0.35001 1.375 1.3v0.48751h-1.0125c-1.8375 0-2.9001 0.76252-2.9001 2.175 0 1.175 0.78751 1.9876 2.1 1.9876 0.80002 0 1.5-0.30001 1.9626-0.98752 0.2 0.65001 0.62501 0.91252 1.2875 0.98752l0.2625-0.80002c-0.3375-0.125-0.55001-0.31251-0.55001-0.88752zm-2.7001 0.82502c-0.75002 0-1.1375-0.41251-1.1375-1.1875 0-0.90002 0.61252-1.35 1.825-1.35h0.86251v1.5125c-0.375 0.68751-0.87501 1.025-1.55 1.025z"/>
   <path id="path14490" d="m568.24 183.96c-1.7875 0-2.8751 1.4-2.8751 3.5001 0 2.125 1.1 3.3876 2.8751 3.3876 0.76252 0 1.425-0.25001 2.0126-0.72502l-0.52502-0.75002c-0.50001 0.32501-0.88752 0.50002-1.4375 0.50002-1.0375 0-1.6875-0.71252-1.6875-2.4376 0-1.7125 0.65002-2.5251 1.6875-2.5251 0.55001 0 0.96252 0.16251 1.4125 0.48752l0.55002-0.72502c-0.61252-0.51251-1.2375-0.71252-2.0126-0.71252z"/>
   <path id="path14492" d="m572.38 180.95c-0.47501 0-0.80002 0.3375-0.80002 0.78751 0 0.43751 0.32501 0.77502 0.80002 0.77502 0.48751 0 0.81252-0.33751 0.81252-0.77502 0-0.45001-0.32501-0.78751-0.81252-0.78751zm0.58752 3.1626h-1.15v6.5876h1.15v-6.5876z"/>
   <path id="path14494" d="m578.79 180.69-2.4876 1.425 0.35001 0.61252 2.6501-1.075-0.51251-0.96252zm-0.97502 3.2751c-1.875 0-2.9501 1.4125-2.9501 3.4501 0 2.0876 1.0625 3.4376 2.9376 3.4376 1.8625 0 2.9376-1.4125 2.9376-3.4501 0-2.0876-1.05-3.4376-2.9251-3.4376zm0 0.92502c1.0875 0 1.6875 0.80002 1.6875 2.5126 0 1.725-0.60001 2.5251-1.7 2.5251s-1.7-0.80002-1.7-2.5126c0-1.725 0.61251-2.5251 1.7125-2.5251z"/>
   <path id="path14496" d="m585.74 183.96c-0.86252 0-1.5625 0.45001-2.0125 1.125l-0.1-0.97502h-0.98753v6.5876h1.15v-4.6751c0.43751-0.70002 0.93752-1.1625 1.675-1.1625 0.63751 0 1.0375 0.28751 1.0375 1.275v4.5626h1.15v-4.7251c0-1.25-0.70002-2.0126-1.9126-2.0126z"/>
   <path id="path14498" d="m527.34 199.59c-1.7875 0-2.8751 1.4-2.8751 3.5001 0 2.125 1.1 3.3876 2.8751 3.3876 0.76251 0 1.425-0.25001 2.0125-0.72502l-0.52501-0.75001c-0.50001 0.325-0.88752 0.50001-1.4375 0.50001-1.0375 0-1.6875-0.71252-1.6875-2.4376 0-1.7125 0.65001-2.525 1.6875-2.525 0.55001 0 0.96252 0.1625 1.4125 0.48751l0.55001-0.72502c-0.61251-0.51251-1.2375-0.71252-2.0125-0.71252z"/>
   <path id="path14500" d="m533.79 199.59c-0.80002 0-1.4125 0.50002-1.7625 1.4875l-0.11251-1.3375h-0.98752v6.5876h1.15v-3.7626c0.275-1.2625 0.75002-1.85 1.575-1.85 0.23751 0 0.37501 0.025 0.57502 0.075l0.2125-1.125c-0.2-0.05-0.43751-0.075-0.65001-0.075z"/>
   <path id="path14502" d="m540.37 202.84c0-2.0126-0.93752-3.2501-2.7126-3.2501-1.7 0-2.7376 1.4625-2.7376 3.5126 0 2.0876 1.075 3.3751 2.9126 3.3751 0.91252 0 1.65-0.31251 2.3-0.82502l-0.50001-0.68751c-0.57501 0.4-1.0625 0.57501-1.7125 0.57501-0.95002 0-1.6625-0.58751-1.775-2.1126h4.2001c0.0125-0.15 0.025-0.36251 0.025-0.58751zm-1.1375-0.26251h-3.0876c0.0875-1.4625 0.66252-2.075 1.5375-2.075 1.0375 0 1.55 0.71251 1.55 2v0.075z"/>
   <path id="path14504" d="m546.16 196.95v3.4501c-0.43751-0.46251-1-0.81252-1.775-0.81252-1.6125 0-2.5876 1.4625-2.5876 3.4751 0 2.05 0.88752 3.4126 2.4876 3.4126 0.81252 0 1.475-0.40001 1.9-1.0625l0.11251 0.91252h1.0125v-9.2377l-1.15-0.1375zm-1.625 8.6127c-0.95002 0-1.5-0.78752-1.5-2.5251 0-1.7125 0.61252-2.5376 1.6-2.5376 0.65001 0 1.1125 0.3375 1.525 0.86251v3.2251c-0.43751 0.61251-0.88752 0.97502-1.625 0.97502z"/>
   <path id="path14506" d="m554.65 202.84c0-2.0126-0.93752-3.2501-2.7126-3.2501-1.7 0-2.7376 1.4625-2.7376 3.5126 0 2.0876 1.075 3.3751 2.9126 3.3751 0.91252 0 1.65-0.31251 2.3-0.82502l-0.50001-0.68751c-0.57501 0.4-1.0625 0.57501-1.7125 0.57501-0.95002 0-1.6625-0.58751-1.775-2.1126h4.2001c0.0125-0.15 0.025-0.36251 0.025-0.58751zm-1.1375-0.26251h-3.0876c0.0875-1.4625 0.66252-2.075 1.5375-2.075 1.0375 0 1.55 0.71251 1.55 2v0.075z"/>
   <path id="path14508" d="m559.59 199.59c-0.86252 0-1.5625 0.45001-2.0125 1.125l-0.10001-0.97502h-0.98752v6.5876h1.15v-4.6751c0.43751-0.70001 0.93752-1.1625 1.675-1.1625 0.63752 0 1.0375 0.28751 1.0375 1.275v4.5626h1.15v-4.7251c0-1.25-0.70001-2.0126-1.9125-2.0126z"/>
   <path id="path14510" d="m566.21 199.59c-1.7875 0-2.8751 1.4-2.8751 3.5001 0 2.125 1.1 3.3876 2.8751 3.3876 0.76252 0 1.425-0.25001 2.0126-0.72502l-0.52501-0.75001c-0.50002 0.325-0.88752 0.50001-1.4375 0.50001-1.0375 0-1.6875-0.71252-1.6875-2.4376 0-1.7125 0.65002-2.525 1.6875-2.525 0.55002 0 0.96252 0.1625 1.4125 0.48751l0.55002-0.72502c-0.61252-0.51251-1.2375-0.71252-2.0126-0.71252z"/>
   <path id="path14512" d="m570.36 196.57c-0.47501 0-0.80002 0.3375-0.80002 0.78751 0 0.43751 0.32501 0.77502 0.80002 0.77502 0.48751 0 0.81252-0.33751 0.81252-0.77502 0-0.45001-0.32501-0.78751-0.81252-0.78751zm0.58751 3.1626h-1.15v6.5876h1.15v-6.5876z"/>
   <path id="path14514" d="m577.75 204.79v-3.0126c0-1.375-0.72501-2.1876-2.3126-2.1876-0.73752 0-1.4625 0.15001-2.275 0.45001l0.2875 0.83752c0.67502-0.225 1.2875-0.35 1.775-0.35 0.91253 0 1.375 0.35 1.375 1.3v0.48752h-1.0125c-1.8375 0-2.9001 0.76251-2.9001 2.175 0 1.175 0.78752 1.9876 2.1 1.9876 0.80002 0 1.5-0.30001 1.9626-0.98752 0.2 0.65001 0.62501 0.91252 1.2875 0.98752l0.2625-0.80002c-0.3375-0.125-0.55001-0.31251-0.55001-0.88752zm-2.7001 0.82502c-0.75002 0-1.1375-0.41251-1.1375-1.1875 0-0.90002 0.61251-1.35 1.825-1.35h0.86252v1.5125c-0.37501 0.68751-0.87502 1.025-1.55 1.025z"/>
   <path id="path14516" d="m581.31 206.47c0.33751 0 0.66252-0.0875 0.91252-0.22501l-0.3-0.80001c-0.12501 0.05-0.26251 0.075-0.42501 0.075-0.30001 0-0.41251-0.17501-0.41251-0.52501v-8.0502l-1.15 0.1375v7.9377c0 0.93752 0.53751 1.45 1.375 1.45z"/>
   <path id="path14518" d="m588.56 202.84c0-2.0126-0.93752-3.2501-2.7126-3.2501-1.7 0-2.7376 1.4625-2.7376 3.5126 0 2.0876 1.075 3.3751 2.9126 3.3751 0.91252 0 1.65-0.31251 2.3-0.82502l-0.50001-0.68751c-0.57502 0.4-1.0625 0.57501-1.7125 0.57501-0.95002 0-1.6625-0.58751-1.775-2.1126h4.2001c0.0125-0.15 0.025-0.36251 0.025-0.58751zm-1.1375-0.26251h-3.0876c0.0875-1.4625 0.66251-2.075 1.5375-2.075 1.0375 0 1.55 0.71251 1.55 2v0.075z"/>
   <path id="path14520" d="m592.19 199.59c-1.3625 0-2.3751 0.76252-2.3751 1.8126 0 0.92502 0.56252 1.5375 1.9876 1.9125 1.275 0.33751 1.6 0.58751 1.6 1.2375 0 0.62501-0.55001 1-1.4125 1-0.71251 0-1.325-0.23751-1.85-0.63752l-0.61251 0.70002c0.57501 0.50001 1.375 0.86252 2.4876 0.86252 1.3375 0 2.6001-0.62501 2.6001-2 0-1.15-0.80002-1.7-2.1876-2.05-1.0625-0.27501-1.4125-0.52501-1.4125-1.0625 0-0.52501 0.46251-0.86251 1.2125-0.86251 0.61251 0 1.125 0.1875 1.7125 0.56251l0.48751-0.72502c-0.62502-0.47501-1.3125-0.75002-2.2376-0.75002z"/>
  </g>
  <g id="text14383">
   <path id="path14591" d="m136.9 59.129c-1.5875 0-2.7126 0.92502-2.7126 2.2501 0 1.3375 0.87502 1.975 2.5501 2.4876 1.4625 0.45001 1.8625 0.82502 1.8625 1.6625 0 1.0375-0.83752 1.5375-1.85 1.5375-0.93752 0-1.6125-0.33751-2.2626-0.86252l-0.65001 0.72502c0.71251 0.70002 1.6875 1.1125 2.9251 1.1125 1.9376 0 3.0751-1.05 3.0751-2.5501 0-1.65-1.175-2.1875-2.5501-2.6126-1.55-0.47501-1.8875-0.82502-1.8875-1.55 0-0.82502 0.68752-1.225 1.55-1.225 0.71251 0 1.3125 0.225 1.9625 0.75002l0.65001-0.72502c-0.72501-0.65002-1.475-1-2.6626-1z"/>
   <path id="path14593" d="m144 61.154c-1.875 0-2.9501 1.4125-2.9501 3.4501 0 2.0875 1.0625 3.4376 2.9376 3.4376 1.8625 0 2.9376-1.4125 2.9376-3.4501 0-2.0875-1.05-3.4376-2.9251-3.4376zm0 0.92502c1.0875 0 1.6875 0.80002 1.6875 2.5126 0 1.725-0.60002 2.5251-1.7 2.5251s-1.7-0.80002-1.7-2.5126c0-1.725 0.61251-2.5251 1.7125-2.5251z"/>
   <path id="path14595" d="m150.13 68.042c0.33751 0 0.66252-0.0875 0.91252-0.225l-0.3-0.80002c-0.12501 0.05-0.26251 0.075-0.42501 0.075-0.30001 0-0.41251-0.175-0.41251-0.52501v-8.0502l-1.15 0.1375v7.9377c0 0.93752 0.53751 1.45 1.375 1.45z"/>
   <path id="path14597" d="m153.05 58.142c-0.47501 0-0.80002 0.33751-0.80002 0.78752 0 0.43751 0.32501 0.77502 0.80002 0.77502 0.48751 0 0.81251-0.33751 0.81251-0.77502 0-0.45001-0.325-0.78752-0.81251-0.78752zm0.58751 3.1626h-1.15v6.5876h1.15v-6.5876z"/>
   <path id="path14599" d="m158.4 61.154c-1.7875 0-2.8751 1.4-2.8751 3.5001 0 2.125 1.1 3.3876 2.8751 3.3876 0.76252 0 1.425-0.25001 2.0126-0.72502l-0.52501-0.75002c-0.50001 0.32501-0.88752 0.50001-1.4375 0.50001-1.0375 0-1.6875-0.71252-1.6875-2.4376 0-1.7125 0.65001-2.5251 1.6875-2.5251 0.55002 0 0.96253 0.1625 1.4125 0.48751l0.55001-0.72502c-0.61252-0.51251-1.2375-0.71252-2.0126-0.71252z"/>
   <path id="path14601" d="m162.54 58.142c-0.47501 0-0.80002 0.33751-0.80002 0.78752 0 0.43751 0.32501 0.77502 0.80002 0.77502 0.48751 0 0.81252-0.33751 0.81252-0.77502 0-0.45001-0.32501-0.78752-0.81252-0.78752zm0.58751 3.1626h-1.15v6.5876h1.15v-6.5876z"/>
   <path id="path14603" d="m168.39 66.829c-0.32501 0.175-0.58752 0.26251-0.87502 0.26251-0.57501 0-0.78752-0.31251-0.78752-0.97502v-3.9251h1.4375l0.12501-0.88752h-1.5625v-1.625l-1.15 0.1375v1.4875h-1.15v0.88752h1.15v3.9751c0 1.225 0.66252 1.875 1.775 1.875 0.56252 0 1.0375-0.15 1.475-0.45001l-0.43751-0.76252z"/>
   <path id="path14605" d="m174.91 61.304h-1.15v4.7001c-0.40001 0.66252-0.93752 1.1375-1.65 1.1375-0.71252 0-1.0125-0.33751-1.0125-1.2375v-4.6001h-1.15v4.7251c0 1.2875 0.68752 2.0125 1.8375 2.0125 0.93752 0 1.55-0.37501 2.05-1.175l0.0875 1.025h0.98752v-6.5876z"/>
   <path id="path14607" d="m181.24 58.517v3.4501c-0.43751-0.46251-1-0.81252-1.775-0.81252-1.6125 0-2.5876 1.4625-2.5876 3.4751 0 2.05 0.88752 3.4126 2.4876 3.4126 0.81252 0 1.475-0.40001 1.9-1.0625l0.1125 0.91252h1.0125v-9.2377l-1.15-0.1375zm-1.625 8.6127c-0.95002 0-1.5-0.78752-1.5-2.5251 0-1.7125 0.61251-2.5376 1.6-2.5376 0.65002 0 1.1125 0.33751 1.525 0.86252v3.2251c-0.43751 0.61251-0.88752 0.97502-1.625 0.97502z"/>
   <path id="path14609" d="m129.04 81.98v-3.0126c0-1.375-0.72502-2.1875-2.3126-2.1875-0.73751 0-1.4625 0.15-2.275 0.45001l0.28751 0.83752c0.67501-0.225 1.2875-0.35001 1.775-0.35001 0.91252 0 1.375 0.35001 1.375 1.3v0.48751h-1.0125c-1.8375 0-2.9001 0.76252-2.9001 2.175 0 1.175 0.78752 1.9875 2.1 1.9875 0.80002 0 1.5-0.30001 1.9625-0.98752 0.20001 0.65002 0.62502 0.91252 1.2875 0.98752l0.26251-0.80002c-0.33751-0.125-0.55001-0.31251-0.55001-0.88752zm-2.7001 0.82502c-0.75002 0-1.1375-0.41251-1.1375-1.1875 0-0.90002 0.61251-1.35 1.825-1.35h0.86252v1.5125c-0.37501 0.68752-0.87502 1.025-1.55 1.025z"/>
   <path id="path14611" d="m136.31 76.93h-1.15v4.7001c-0.40001 0.66252-0.93752 1.1375-1.65 1.1375-0.71252 0-1.0125-0.33751-1.0125-1.2375v-4.6001h-1.15v4.7251c0 1.2875 0.68752 2.0125 1.8375 2.0125 0.93752 0 1.55-0.37501 2.05-1.175l0.0875 1.025h0.98752v-6.5876z"/>
   <path id="path14613" d="m141.58 82.455c-0.32501 0.175-0.58751 0.26251-0.87502 0.26251-0.57501 0-0.78752-0.31251-0.78752-0.97502v-3.9251h1.4375l0.125-0.88752h-1.5625v-1.625l-1.15 0.1375v1.4875h-1.15v0.88752h1.15v3.9751c0 1.225 0.66251 1.875 1.775 1.875 0.56251 0 1.0375-0.15 1.475-0.45001l-0.43751-0.76252z"/>
   <path id="path14615" d="m145.49 76.78c-1.875 0-2.9501 1.4125-2.9501 3.4501 0 2.0875 1.0625 3.4376 2.9376 3.4376 1.8625 0 2.9376-1.4125 2.9376-3.4501 0-2.0875-1.05-3.4376-2.9251-3.4376zm0 0.92502c1.0875 0 1.6875 0.80002 1.6875 2.5126 0 1.725-0.60002 2.5251-1.7 2.5251s-1.7-0.80002-1.7-2.5126c0-1.725 0.61251-2.5251 1.7125-2.5251z"/>
   <path id="path14617" d="m153.17 76.78c-0.80002 0-1.4125 0.50001-1.7625 1.4875l-0.1125-1.3375h-0.98753v6.5876h1.15v-3.7626c0.27501-1.2625 0.75002-1.85 1.575-1.85 0.2375 0 0.375 0.025 0.57501 0.075l0.2125-1.125c-0.2-0.05-0.43751-0.075-0.65001-0.075z"/>
   <path id="path14619" d="m155.71 73.767c-0.47501 0-0.80002 0.33751-0.80002 0.78752 0 0.43751 0.32501 0.77502 0.80002 0.77502 0.48751 0 0.81252-0.33751 0.81252-0.77502 0-0.45001-0.32501-0.78752-0.81252-0.78752zm0.58751 3.1626h-1.15v6.5876h1.15v-6.5876z"/>
   <path id="path14621" d="m162.52 76.93h-4.4501v0.97502h3.1376l-3.4251 4.7501v0.86252h4.6376l0.13751-0.96252h-3.4751l3.4376-4.7501v-0.87502z"/>
   <path id="path14623" d="m168.37 81.98v-3.0126c0-1.375-0.72502-2.1875-2.3126-2.1875-0.73751 0-1.4625 0.15-2.275 0.45001l0.28751 0.83752c0.67501-0.225 1.2875-0.35001 1.775-0.35001 0.91252 0 1.375 0.35001 1.375 1.3v0.48751h-1.0125c-1.8375 0-2.9001 0.76252-2.9001 2.175 0 1.175 0.78752 1.9875 2.1 1.9875 0.80002 0 1.5-0.30001 1.9625-0.98752 0.20001 0.65002 0.62502 0.91252 1.2875 0.98752l0.26251-0.80002c-0.33751-0.125-0.55001-0.31251-0.55001-0.88752zm-2.7001 0.82502c-0.75002 0-1.1375-0.41251-1.1375-1.1875 0-0.90002 0.61251-1.35 1.825-1.35h0.86252v1.5125c-0.37501 0.68752-0.87502 1.025-1.55 1.025z"/>
   <path id="path14625" d="m173.15 76.78c-1.7875 0-2.8751 1.4-2.8751 3.5001 0 2.125 1.1 3.3876 2.8751 3.3876 0.76251 0 1.425-0.25 2.0125-0.72502l-0.52501-0.75002c-0.50001 0.32501-0.88752 0.50001-1.4375 0.50001-1.0375 0-1.6875-0.71252-1.6875-2.4376 0-1.7125 0.65001-2.5251 1.6875-2.5251 0.55001 0 0.96252 0.1625 1.4125 0.48751l0.55001-0.72502c-0.61251-0.51251-1.2375-0.71252-2.0125-0.71252z"/>
   <path id="path14627" d="m177.29 73.767c-0.47501 0-0.80002 0.33751-0.80002 0.78752 0 0.43751 0.32501 0.77502 0.80002 0.77502 0.48751 0 0.81252-0.33751 0.81252-0.77502 0-0.45001-0.32501-0.78752-0.81252-0.78752zm0.58751 3.1626h-1.15v6.5876h1.15v-6.5876z"/>
   <path id="path14629" d="m183.69 73.505-2.4876 1.425 0.35001 0.61251 2.6501-1.075-0.51252-0.96252zm-0.97502 3.2751c-1.875 0-2.9501 1.4125-2.9501 3.4501 0 2.0875 1.0625 3.4376 2.9376 3.4376 1.8625 0 2.9376-1.4125 2.9376-3.4501 0-2.0875-1.05-3.4376-2.9251-3.4376zm0 0.92502c1.0875 0 1.6875 0.80002 1.6875 2.5126 0 1.725-0.60001 2.5251-1.7 2.5251s-1.7-0.80002-1.7-2.5126c0-1.725 0.61252-2.5251 1.7125-2.5251z"/>
   <path id="path14631" d="m190.64 76.78c-0.86252 0-1.5625 0.45001-2.0126 1.125l-0.1-0.97502h-0.98752v6.5876h1.15v-4.6751c0.43751-0.70002 0.93753-1.1625 1.675-1.1625 0.63752 0 1.0375 0.28751 1.0375 1.275v4.5626h1.15v-4.7251c0-1.25-0.70001-2.0125-1.9125-2.0125z"/>
  </g>
  <g id="text14389">
   <path id="path14548" d="m129.08 186.33h1.25l-2.7501-8.6127h-1.5l-2.7626 8.6127h1.2l0.65001-2.1626h3.2626l0.65002 2.1626zm-3.6251-3.1251 1.35-4.5001 1.3375 4.5001h-2.6876z"/>
   <path id="path14550" d="m136.49 179.75h-1.15v4.7001c-0.40001 0.66252-0.93752 1.1375-1.65 1.1375-0.71251 0-1.0125-0.33751-1.0125-1.2375v-4.6001h-1.15v4.7251c0 1.2875 0.68752 2.0126 1.8376 2.0126 0.93752 0 1.55-0.37501 2.05-1.175l0.0875 1.025h0.98753v-6.5876z"/>
   <path id="path14552" d="m141.75 185.27c-0.325 0.17501-0.58751 0.26251-0.87502 0.26251-0.57501 0-0.78751-0.31251-0.78751-0.97502v-3.9251h1.4375l0.125-0.88752h-1.5625v-1.625l-1.15 0.1375v1.4875h-1.15v0.88752h1.15v3.9751c0 1.225 0.66252 1.875 1.775 1.875 0.56251 0 1.0375-0.15 1.475-0.45001l-0.43751-0.76252z"/>
   <path id="path14554" d="m145.66 179.6c-1.875 0-2.9501 1.4125-2.9501 3.4501 0 2.0876 1.0625 3.4376 2.9376 3.4376 1.8625 0 2.9376-1.4125 2.9376-3.4501 0-2.0876-1.05-3.4376-2.9251-3.4376zm0 0.92502c1.0875 0 1.6875 0.80002 1.6875 2.5126 0 1.725-0.60001 2.5251-1.7 2.5251s-1.7-0.80002-1.7-2.5126c0-1.725 0.61252-2.5251 1.7125-2.5251z"/>
   <path id="path14556" d="m153.35 179.6c-0.80002 0-1.4125 0.50001-1.7625 1.4875l-0.1125-1.3375h-0.98752v6.5876h1.15v-3.7626c0.27501-1.2625 0.75002-1.85 1.575-1.85 0.2375 0 0.37501 0.025 0.57501 0.075l0.21251-1.125c-0.20001-0.05-0.43751-0.075-0.65002-0.075z"/>
   <path id="path14558" d="m155.88 176.58c-0.47501 0-0.80002 0.3375-0.80002 0.78751 0 0.43751 0.32501 0.77502 0.80002 0.77502 0.48751 0 0.81252-0.33751 0.81252-0.77502 0-0.45001-0.32501-0.78751-0.81252-0.78751zm0.58751 3.1626h-1.15v6.5876h1.15v-6.5876z"/>
   <path id="path14560" d="m162.69 179.75h-4.4501v0.97502h3.1376l-3.4251 4.7501v0.86252h4.6376l0.1375-0.96253h-3.4751l3.4376-4.7501v-0.87502z"/>
   <path id="path14562" d="m168.54 184.8v-3.0126c0-1.375-0.72502-2.1876-2.3126-2.1876-0.73752 0-1.4625 0.15001-2.2751 0.45001l0.28751 0.83752c0.67502-0.225 1.2875-0.35001 1.775-0.35001 0.91252 0 1.375 0.35001 1.375 1.3v0.48751h-1.0125c-1.8375 0-2.9001 0.76252-2.9001 2.175 0 1.175 0.78752 1.9876 2.1 1.9876 0.80002 0 1.5-0.30001 1.9626-0.98752 0.2 0.65001 0.62501 0.91252 1.2875 0.98752l0.26251-0.80002c-0.33751-0.125-0.55001-0.31251-0.55001-0.88752zm-2.7001 0.82502c-0.75002 0-1.1375-0.41251-1.1375-1.1875 0-0.90002 0.61252-1.35 1.825-1.35h0.86252v1.5125c-0.37501 0.68751-0.87502 1.025-1.55 1.025z"/>
   <path id="path14564" d="m173.32 179.6c-1.7875 0-2.8751 1.4-2.8751 3.5001 0 2.125 1.1 3.3876 2.8751 3.3876 0.76252 0 1.425-0.25001 2.0125-0.72502l-0.52501-0.75001c-0.50001 0.325-0.88752 0.50001-1.4375 0.50001-1.0375 0-1.6875-0.71252-1.6875-2.4376 0-1.7125 0.65002-2.5251 1.6875-2.5251 0.55001 0 0.96252 0.16251 1.4125 0.48752l0.55001-0.72502c-0.61251-0.51251-1.2375-0.71252-2.0125-0.71252z"/>
   <path id="path14566" d="m177.46 176.58c-0.47501 0-0.80002 0.3375-0.80002 0.78751 0 0.43751 0.32501 0.77502 0.80002 0.77502 0.48751 0 0.81252-0.33751 0.81252-0.77502 0-0.45001-0.32501-0.78751-0.81252-0.78751zm0.58751 3.1626h-1.15v6.5876h1.15v-6.5876z"/>
   <path id="path14568" d="m183.86 176.32-2.4876 1.425 0.35001 0.61252 2.6501-1.075-0.51251-0.96252zm-0.97503 3.2751c-1.875 0-2.9501 1.4125-2.9501 3.4501 0 2.0876 1.0625 3.4376 2.9376 3.4376 1.8626 0 2.9376-1.4125 2.9376-3.4501 0-2.0876-1.05-3.4376-2.9251-3.4376zm0 0.92502c1.0875 0 1.6875 0.80002 1.6875 2.5126 0 1.725-0.60001 2.5251-1.7 2.5251s-1.7-0.80002-1.7-2.5126c0-1.725 0.61251-2.5251 1.7125-2.5251z"/>
   <path id="path14570" d="m190.81 179.6c-0.86252 0-1.5625 0.45001-2.0125 1.125l-0.10001-0.97502h-0.98752v6.5876h1.15v-4.6751c0.43751-0.70002 0.93752-1.1625 1.675-1.1625 0.63752 0 1.0375 0.28751 1.0375 1.275v4.5626h1.15v-4.7251c0-1.25-0.70001-2.0126-1.9125-2.0126z"/>
   <path id="path14572" d="m133.05 195.22c-1.7875 0-2.8751 1.4-2.8751 3.5001 0 2.125 1.1 3.3876 2.8751 3.3876 0.76251 0 1.425-0.25001 2.0125-0.72502l-0.52501-0.75001c-0.50001 0.325-0.88752 0.50001-1.4375 0.50001-1.0375 0-1.6875-0.71252-1.6875-2.4376 0-1.7125 0.65001-2.525 1.6875-2.525 0.55001 0 0.96252 0.1625 1.4125 0.48751l0.55001-0.72502c-0.61251-0.51251-1.2375-0.71251-2.0125-0.71251z"/>
   <path id="path14574" d="m138.86 195.22c-1.875 0-2.9501 1.4125-2.9501 3.4501 0 2.0876 1.0625 3.4376 2.9376 3.4376 1.8625 0 2.9376-1.4125 2.9376-3.4501 0-2.0875-1.05-3.4376-2.9251-3.4376zm0 0.92502c1.0875 0 1.6875 0.80001 1.6875 2.5126 0 1.725-0.60001 2.5251-1.7 2.5251s-1.7-0.80002-1.7-2.5126c0-1.725 0.61252-2.525 1.7125-2.525z"/>
   <path id="path14576" d="m146.78 195.22c-0.86252 0-1.5625 0.45001-2.0126 1.125l-0.1-0.97502h-0.98752v6.5876h1.15v-4.6751c0.43751-0.70001 0.93752-1.1625 1.675-1.1625 0.63751 0 1.0375 0.2875 1.0375 1.275v4.5626h1.15v-4.7251c0-1.25-0.70002-2.0125-1.9125-2.0125z"/>
   <path id="path14578" d="m153.41 195.22c-1.7875 0-2.8751 1.4-2.8751 3.5001 0 2.125 1.1 3.3876 2.8751 3.3876 0.76252 0 1.425-0.25001 2.0126-0.72502l-0.52501-0.75001c-0.50002 0.325-0.88752 0.50001-1.4375 0.50001-1.0375 0-1.6875-0.71252-1.6875-2.4376 0-1.7125 0.65001-2.525 1.6875-2.525 0.55002 0 0.96253 0.1625 1.4125 0.48751l0.55001-0.72502c-0.61252-0.51251-1.2375-0.71251-2.0126-0.71251z"/>
   <path id="path14580" d="m161.72 198.47c0-2.0126-0.93753-3.2501-2.7126-3.2501-1.7 0-2.7376 1.4625-2.7376 3.5126 0 2.0876 1.075 3.3751 2.9126 3.3751 0.91252 0 1.65-0.31251 2.3-0.82502l-0.50001-0.68751c-0.57501 0.40001-1.0625 0.57501-1.7125 0.57501-0.95002 0-1.6625-0.58751-1.775-2.1126h4.2001c0.0125-0.15 0.025-0.36251 0.025-0.58751zm-1.1375-0.26251h-3.0876c0.0875-1.4625 0.66251-2.075 1.5375-2.075 1.0375 0 1.55 0.71251 1.55 2v0.075z"/>
   <path id="path14582" d="m167.51 192.59v3.4501c-0.43751-0.46251-1-0.81251-1.775-0.81251-1.6125 0-2.5876 1.4625-2.5876 3.4751 0 2.05 0.88752 3.4126 2.4876 3.4126 0.81251 0 1.475-0.40001 1.9-1.0625l0.1125 0.91252h1.0125v-9.2377l-1.15-0.1375zm-1.625 8.6127c-0.95002 0-1.5-0.78752-1.5-2.5251 0-1.7125 0.61251-2.5376 1.6-2.5376 0.65002 0 1.1125 0.3375 1.525 0.86252v3.2251c-0.43751 0.61251-0.88752 0.97502-1.625 0.97502z"/>
   <path id="path14584" d="m171.59 192.21c-0.47501 0-0.80002 0.3375-0.80002 0.78752 0 0.4375 0.32501 0.77501 0.80002 0.77501 0.48751 0 0.81252-0.33751 0.81252-0.77501 0-0.45002-0.32501-0.78752-0.81252-0.78752zm0.58752 3.1626h-1.15v6.5876h1.15v-6.5876z"/>
   <path id="path14586" d="m178.49 192.59v3.4501c-0.43751-0.46251-1-0.81251-1.775-0.81251-1.6125 0-2.5876 1.4625-2.5876 3.4751 0 2.05 0.88752 3.4126 2.4876 3.4126 0.81252 0 1.475-0.40001 1.9-1.0625l0.11251 0.91252h1.0125v-9.2377l-1.15-0.1375zm-1.625 8.6127c-0.95002 0-1.5-0.78752-1.5-2.5251 0-1.7125 0.61252-2.5376 1.6-2.5376 0.65001 0 1.1125 0.3375 1.525 0.86252v3.2251c-0.43751 0.61251-0.88752 0.97502-1.625 0.97502z"/>
   <path id="path14588" d="m186.45 200.42v-3.0126c0-1.375-0.72502-2.1875-2.3126-2.1875-0.73751 0-1.4625 0.15-2.275 0.45001l0.28751 0.83751c0.67501-0.225 1.2875-0.35 1.775-0.35 0.91252 0 1.375 0.35 1.375 1.3v0.48751h-1.0125c-1.8375 0-2.9001 0.76251-2.9001 2.175 0 1.175 0.78752 1.9875 2.1 1.9875 0.80002 0 1.5-0.30001 1.9625-0.98752 0.20001 0.65001 0.62502 0.91252 1.2875 0.98752l0.26251-0.80002c-0.33751-0.125-0.55001-0.3125-0.55001-0.88752zm-2.7001 0.82502c-0.75002 0-1.1375-0.41251-1.1375-1.1875 0-0.90002 0.61251-1.35 1.825-1.35h0.86252v1.5125c-0.37501 0.68751-0.87502 1.025-1.55 1.025z"/>
  </g>
  <g id="text14401">
   <path id="path14431" d="m378.42 302.44c-1.5875 0-2.7126 0.92502-2.7126 2.25 0 1.3375 0.87502 1.975 2.5501 2.4876 1.4625 0.45001 1.8625 0.82502 1.8625 1.6625 0 1.0375-0.83751 1.5375-1.85 1.5375-0.93752 0-1.6125-0.33751-2.2626-0.86252l-0.65001 0.72502c0.71251 0.70001 1.6875 1.1125 2.9251 1.1125 1.9376 0 3.0751-1.05 3.0751-2.55 0-1.65-1.175-2.1876-2.5501-2.6126-1.55-0.47501-1.8875-0.82502-1.8875-1.55 0-0.82502 0.68752-1.225 1.55-1.225 0.71251 0 1.3125 0.22501 1.9625 0.75002l0.65002-0.72501c-0.72502-0.65002-1.475-1-2.6626-1z"/>
   <path id="path14433" d="m387.77 302.59h-4.6626v8.6127h4.7626v-0.95002h-3.5751v-2.9501h2.9001v-0.95002h-2.9001v-2.8126h3.3376l0.1375-0.95002z"/>
   <path id="path14435" d="m394.39 311.2h1.4125l-2.325-3.8626c1.2375-0.37501 1.8625-1.1 1.8625-2.3126 0-1.6125-1.125-2.4376-3.2751-2.4376h-2.2626v8.6127h1.1875v-3.6501h1.3375l2.0625 3.6501zm-3.4001-4.5626v-3.1251h1.0625c1.4125 0 2.025 0.43751 2.025 1.5125 0 1.1625-0.68752 1.6125-1.8876 1.6125h-1.2z"/>
   <path id="path14437" d="m402.89 302.59h-1.2l-2.1626 7.3252-2.1626-7.3252h-1.275l2.7751 8.6127h1.275l2.7501-8.6127z"/>
   <path id="path14439" d="m405.41 302.59h-1.1875v8.6127h1.1875v-8.6127z"/>
   <path id="path14441" d="m409.71 302.59h-1.8v8.6127h2.0626c1.8625 0 4.0501-0.83752 4.0501-4.3501 0-3.5751-2.1126-4.2626-4.3126-4.2626zm0.26251 0.95002c1.375 0 2.7876 0.40001 2.7876 3.3126 0 2.8376-1.35 3.4126-2.7001 3.4126h-0.96252v-6.7252h0.87502z"/>
   <path id="path14443" d="m419.05 302.44c-2.15 0-3.6376 1.6375-3.6376 4.4751 0 2.8876 1.4875 4.4376 3.6376 4.4376 2.1626 0 3.6376-1.6 3.6376-4.4501 0-2.9001-1.475-4.4626-3.6376-4.4626zm0 0.97502c1.475 0 2.375 1.0125 2.375 3.4876 0 2.5001-0.92502 3.4751-2.375 3.4751-1.4 0-2.375-0.97502-2.375-3.4626s0.93752-3.5001 2.375-3.5001z"/>
   <path id="path14445" d="m429.2 311.2h1.4125l-2.325-3.8626c1.2375-0.37501 1.8625-1.1 1.8625-2.3126 0-1.6125-1.125-2.4376-3.2751-2.4376h-2.2626v8.6127h1.1875v-3.6501h1.3375l2.0626 3.6501zm-3.4001-4.5626v-3.1251h1.0625c1.4125 0 2.025 0.43751 2.025 1.5125 0 1.1625-0.68751 1.6125-1.8875 1.6125h-1.2z"/>
   <path id="path14447" d="m438.46 301.11-2.9001 11.15 0.98752 0.23751 2.8876-11.163-0.97502-0.22501z"/>
   <path id="path14449" d="m452.3 302.59h-1.6125l-1.725 6.2626-1.8125-6.2626h-1.6l-0.71251 8.6127h1.125l0.28751-3.8001c0.1-1.2625 0.1625-2.6 0.1625-3.6126l1.9626 6.4376h1.1125l1.8625-6.4252c0.0125 0.71252 0.10001 2.1626 0.21251 3.5126l0.30001 3.8876h1.15l-0.71251-8.6127z"/>
   <path id="path14451" d="m458.87 300.78-0.50002-0.96253-2.5 1.3375 0.30001 0.61252 2.7001-0.98752zm0.75001 10.425h1.25l-2.7501-8.6127h-1.5l-2.7626 8.6127h1.2l0.65001-2.1626h3.2626l0.65001 2.1626zm-3.6251-3.1251 1.35-4.5001 1.3375 4.5001h-2.6876z"/>
   <path id="path14453" d="m466.8 310.71c1.225-0.63752 1.975-1.7 1.975-3.8126 0-2.9001-1.475-4.4626-3.6376-4.4626-2.15 0-3.6376 1.6375-3.6376 4.4751 0 2.8876 1.4875 4.4126 3.6126 4.4126 1.5625 0 2.275 0.28751 3.2501 1.1625l0.77502-1c-0.61251-0.42501-1.35-0.77502-2.3376-0.77502zm-4.0376-3.8001c0-2.4876 0.93752-3.5001 2.375-3.5001 1.475 0 2.375 1.0125 2.375 3.4876 0 2.5001-0.92502 3.4751-2.375 3.4751-1.4 0-2.375-0.97502-2.375-3.4626z"/>
   <path id="path14455" d="m476.61 302.59h-1.2v5.7626c0 1.3375-0.58751 2-1.825 2-1.225 0-1.8125-0.66251-1.8125-2v-5.7626h-1.1875v5.8501c0 1.7125 1.0375 2.9126 3.0001 2.9126 1.9376 0 3.0251-1.2 3.0251-2.9126v-5.8501z"/>
   <path id="path14457" d="m480.17 302.59h-1.1875v8.6127h1.1875v-8.6127z"/>
   <path id="path14459" d="m488.71 302.59h-1.1125v4.7001c0 1.05 0.13751 2.4251 0.16251 2.6251l-3.5376-7.3252h-1.55v8.6127h1.1125v-3.9501c0-1.6-0.1-2.6501-0.1625-3.3626l3.5001 7.3127h1.5875v-8.6127z"/>
   <path id="path14461" d="m495.8 311.2h1.25l-2.7501-8.6127h-1.5l-2.7626 8.6127h1.2l0.65001-2.1626h3.2626l0.65001 2.1626zm-3.6251-3.1251 1.35-4.5001 1.3375 4.5001h-2.6876z"/>
   <path id="path14463" d="m507.31 302.59h-1.2l-2.1626 7.3252-2.1626-7.3252h-1.275l2.7751 8.6127h1.275l2.7501-8.6127z"/>
   <path id="path14465" d="m509.84 302.59h-1.1875v8.6127h1.1875v-8.6127z"/>
   <path id="path14467" d="m516.92 311.2h1.4125l-2.3251-3.8626c1.2375-0.37501 1.8626-1.1 1.8626-2.3126 0-1.6125-1.125-2.4376-3.2751-2.4376h-2.2626v8.6127h1.1875v-3.6501h1.3375l2.0625 3.6501zm-3.4001-4.5626v-3.1251h1.0625c1.4125 0 2.025 0.43751 2.025 1.5125 0 1.1625-0.68752 1.6125-1.8875 1.6125h-1.2z"/>
   <path id="path14469" d="m524.75 302.59h-6.1501v1.0125h2.45v7.6002h1.1875v-7.6002h2.3876l0.12501-1.0125z"/>
   <path id="path14471" d="m532.03 302.59h-1.2v5.7626c0 1.3375-0.58752 2-1.825 2-1.225 0-1.8125-0.66251-1.8125-2v-5.7626h-1.1875v5.8501c0 1.7125 1.0375 2.9126 3.0001 2.9126 1.9375 0 3.0251-1.2 3.0251-2.9126v-5.8501z"/>
   <path id="path14473" d="m538.87 311.2h1.25l-2.7501-8.6127h-1.5l-2.7626 8.6127h1.2l0.65002-2.1626h3.2626l0.65002 2.1626zm-3.6251-3.1251 1.35-4.5001 1.3375 4.5001h-2.6876z"/>
   <path id="path14475" d="m542.62 302.59h-1.1875v8.6127h4.5876l0.13751-1.0375h-3.5376v-7.5752z"/>
  </g>
 </g>
</svg>
