<svg id="svg4558" xmlns:rdf="http://www.w3.org/1999/02/22-rdf-syntax-ns#" xmlns="http://www.w3.org/2000/svg" height="32.239mm" viewBox="0 0 236.28224 114.23256" width="66.684mm" version="1.1" xmlns:cc="http://creativecommons.org/ns#" xmlns:dc="http://purl.org/dc/elements/1.1/">
 <g id="layer1" transform="translate(-253.91 -469.06)">
  <g id="g5140" transform="translate(-288.81 70.23)" fill="#360012">
   <g id="g4384" transform="matrix(.21766 0 0 .21766 676.01 395.99)">
    <path id="path4386" d="m344.59 276.96h-58.997v-30.291c0-24.191-19.685-43.876-43.876-43.876s-43.876 19.685-43.876 43.876v30.291h-58.997v-30.291c0-56.724 46.149-102.87 102.87-102.87 56.724 0 102.87 46.149 102.87 102.87v30.291z"/>
    <path id="path4388" d="m368.39 276.96h-253.34c-10.816 0-19.665 8.85-19.665 19.665v187.41c0 10.816 8.849 19.666 19.665 19.666h253.34c10.816 0 19.665-8.85 19.665-19.666v-187.41c0-10.816-8.849-19.665-19.665-19.665zm-113.83 123.04v25.393c0 7.087-5.749 12.837-12.837 12.837s-12.837-5.749-12.837-12.837v-25.389c-7.897-4.481-13.233-12.947-13.233-22.674 0-14.396 11.671-26.067 26.067-26.067s26.067 11.671 26.067 26.067c0 9.727-5.335 18.192-13.227 22.67z"/>
    <path id="path4390" d="m89.367 249.02h-61.132c-9.911 0-17.948-8.036-17.948-17.948s8.036-17.948 17.948-17.948h61.132c9.911 0 17.948 8.036 17.948 17.948s-8.037 17.948-17.948 17.948z"/>
    <path id="path4392" d="m132.43 152.85c-4.01 0-8.048-1.338-11.389-4.085l-48.355-39.75c-7.656-6.296-8.758-17.606-2.462-25.262 6.294-7.654 17.601-8.762 25.262-2.464l48.356 39.761c7.656 6.296 8.758 17.606 2.462 25.262-3.547 4.315-8.69 6.549-13.873 6.549z"/>
    <path id="path4394" d="m241.72 110.59c-9.911 0-17.948-8.036-17.948-17.948v-61.613c0-9.912 8.036-17.948 17.948-17.948 9.911 0 17.948 8.036 17.948 17.948v61.613c-0.001 9.912-8.037 17.948-17.948 17.948z"/>
    <g id="g4396">
     <g id="g4398" fill="#360012">
      <path id="path4400" fill="#360012" d="m351.01 152.85c-5.186 0-10.326-2.233-13.873-6.55-6.296-7.656-5.194-18.966 2.462-25.262l48.356-39.761c7.664-6.299 18.971-5.19 25.262 2.464 6.296 7.656 5.194 18.966-2.462 25.262l-48.356 39.761c-3.342 2.747-7.379 4.086-11.389 4.086z"/>
     </g>
    </g>
    <path id="path4402" d="m455.2 249.02h-61.713c-9.911 0-17.948-8.036-17.948-17.948s8.036-17.948 17.948-17.948h61.713c9.911 0 17.948 8.036 17.948 17.948-0.001 9.912-8.037 17.948-17.948 17.948z"/>
   </g>
   <path id="path4521" d="m588.79 507.48c-3.1968-0.57374-6.3749-1.2776-6.7136-1.487-0.30006-0.18546 0.28421-4.2161 2.3181-15.992 1.4956-8.659 2.719-16.032 2.7185-16.383 0-0.43947-0.60375-0.95078-1.9276-1.634-2.3495-1.2125-5.6355-4.4399-6.8634-6.7411-4.3525-8.1567-1.1075-18.362 7.1157-22.378 6.2032-3.0297 13.255-2.0687 18.238 2.4855 8.5398 7.8049 6.653 21.74-3.6291 26.802-1.2128 0.59704-2.205 1.2342-2.205 1.4159 0 0.18171 1.1428 7.4961 2.5397 16.254 1.3968 8.7581 2.4151 16.044 2.2628 16.191-1.0104 0.9733-10.818 2.0116-13.854 1.4667zm-24.317-8.9277c-3.5926-2.3517-10.518-9.3092-12.944-13.003-3.625-5.5208-6.1113-11.316-7.335-17.097-0.40983-1.936-0.91142-3.876-1.1147-4.3113-0.47975-1.0274-0.48664-13.075-0.008-13.395 0.1873-0.12546 0.53655-1.3595 0.7761-2.7423 1.3325-7.6916 5.3965-16.162 10.961-22.845 6.9529-8.3508 18.079-14.763 28.724-16.555 1.6927-0.28485 3.8426-0.68063 4.7776-0.87951 2.2899-0.4871 8.1504-0.17154 12.832 0.69092 15.794 2.9098 28.997 12.73 36.08 26.834 2.5221 5.0225 3.5674 8.521 5.1688 17.3 0.45812 2.5115 0.48246 8.029 0.0439 9.9481-0.17968 0.78624-0.56775 2.7872-0.86241 4.4466-1.8234 10.269-7.7051 20.704-15.583 27.646-3.2088 2.8275-7.672 5.8727-8.0489 5.4916-0.56208-0.56844-11.08-18.963-10.982-19.207 0.0554-0.13767 1.2982-1.2164 2.7619-2.3972 4.491-3.623 7.8043-8.7272 9.292-14.315 0.82396-3.0945 0.978-8.9313 0.31592-11.969-2.2636-10.385-9.8214-18.279-20.116-21.011-1.8186-0.48268-3.6464-0.68046-6.4007-0.69259-7.5063-0.0331-13.945 2.6066-19.19 7.8679-11.807 11.842-10.307 31.16 3.192 41.106l1.9364 1.4267-0.84364 1.4076c-0.464 0.77421-2.9904 5.1413-5.6141 9.7046-2.6238 4.5633-4.856 8.2969-4.9604 8.2969-0.10444 0-1.3911-0.78632-2.8592-1.7474z"/>
  </g>
 </g>
</svg>
