<svg id="svg4558" xmlns:rdf="http://www.w3.org/1999/02/22-rdf-syntax-ns#" xmlns="http://www.w3.org/2000/svg" height="40.18mm" viewBox="0 0 142.02 142.37082" width="40.081mm" version="1.1" xmlns:cc="http://creativecommons.org/ns#" xmlns:dc="http://purl.org/dc/elements/1.1/">
 <g id="layer1" fill="#360012" transform="translate(-301.04 -455)">
  <path id="path4420" d="m365.89 596.8c-12.229-1.1821-23.266-5.0851-33.563-11.87-5.1755-3.4101-13.316-11.218-17.391-16.682-15.896-21.311-18.365-50.264-6.3335-74.272 4.5878-9.1551 12.715-18.788 21.174-25.097 24.815-18.509 59.714-18.509 84.53 0 22.791 16.999 33.325 45.742 26.886 73.357-6.0755 26.056-26.839 46.822-52.889 52.896-3.898 0.90889-16.358 2.4852-17.405 2.2018-0.15715-0.0426-2.4111-0.28283-5.0087-0.53392zm47.072-45.343c4.0568-1.8573 7.3287-4.9886 9.2052-8.8098 1.3619-2.7732 1.5873-3.9274 1.5804-8.0917-0.007-4.1351-0.23196-5.2818-1.5145-7.7143-1.9183-3.6381-5.1251-6.8449-8.7632-8.7632-2.4436-1.2884-3.5601-1.5053-7.7143-1.4982-3.2438 0.006-5.5524 0.31848-6.9503 0.94208l-2.0932 0.93375 0.92997 2.4785c0.63171 1.6836 0.93004 4.3112 0.93019 8.1928 0.00026 6.5788-1.2067 10.463-4.6542 14.98-2.4104 3.1577-2.2447 3.649 2.1202 6.2903 5.4578 3.3026 11.235 3.6644 16.924 1.0599zm-77.605-0.3361c1.6335-0.7027 2.97-1.3431 2.97-1.4232s-0.40309-1.1103-0.89575-2.2894-0.82783-3.2483-0.74481-4.5983c0.13481-2.1922-0.11079-2.7384-2.2983-5.1116-1.3471-1.4614-3.1333-4.1164-3.9695-5.9-1.2839-2.7388-1.5199-4.0202-1.5182-8.243 0.002-5.7289 0.026-5.7104-5.2895-4.1318-6.4734 1.9224-11.458 8.0613-11.99 14.768-0.33965 4.2775 0.42607 7.3134 2.7169 10.772 4.7045 7.1025 13.103 9.5627 21.019 6.1572zm16.073 0.88362c1.5948-0.8247 4.6111-3.9827 4.6111-4.8277 0-0.23859-0.93061-1.6283-2.068-3.0882s-2.65-4.2664-3.3612-6.2366c-1.1826-3.2757-1.4479-3.5977-3.1013-3.7633-4.1838-0.41891-8.8268 3.5384-9.5772 8.1629-0.37024 2.2815 0.99122 6.4906 2.5581 7.9086 2.9352 2.6564 7.7865 3.4743 10.938 1.8444zm30.897-0.83067c15.499-5.9487 20.333-25.616 9.2984-37.83-5.0448-5.5839-11.374-8.1844-19.013-7.8122-3.9716 0.1935-5.5421 0.56547-8.614 2.0402-10.495 5.0385-15.979 16.956-12.835 27.893 2.2899 7.9664 8.6037 14.175 16.878 16.596 3.5346 1.0342 10.39 0.6088 14.286-0.88644zm49.562-0.53673c2.0003-1.0705 4.2307-4.4242 4.5562-6.8508 0.61903-4.6152-2.4029-8.9858-7.2083-10.426-3.1456-0.94244-4.0524-0.44659-4.0524 2.2159 0 3.228-1.4586 7.5973-3.4575 10.357-1.4322 1.9771-1.6255 2.5772-1.0526 3.2676 2.2985 2.7695 7.4828 3.4335 11.215 1.4364zm-93.084-13.791c1.6501-2.2319 5.1927-4.0046 8.0028-4.0046h2.2403l0.23634-5.4036c0.21141-4.8337 0.45306-5.826 2.2914-9.409l2.055-4.0054-1.6294-3.3052c-0.89617-1.8179-1.7736-3.7906-1.9498-4.3839-0.27897-0.93929-0.71937-1.0375-3.4081-0.76-9.4462 0.97493-16.546 8.878-16.539 18.41 0.002 2.8945 0.35217 4.7771 1.2668 6.8116 1.2569 2.796 4.9314 7.7598 5.7443 7.7598 0.23414 0 0.99451-0.76934 1.6897-1.7096zm60.665-20.862c1.3362-0.47142 3.0335-0.85714 3.7718-0.85714 1.2007 0 1.3079-0.1961 1.0154-1.8571-1.2862-7.3026-7.5679-13.233-14.808-13.981l-3.0179-0.31147-0.21913 3.9317c-0.17021 3.0538-0.0223 4.0858 0.66222 4.622 0.48475 0.37963 1.85 1.3965 3.0338 2.2597 1.1838 0.86318 2.9838 2.7959 4 4.295s2.1367 2.7322 2.49 2.7403c0.35334 0.008 1.7357-0.37098 3.0718-0.84241zm-36.098-9.5638c3.2446-1.5973 4.435-1.8609 9.2832-2.0556 4.1683-0.16742 6.2876 0.0179 8.4608 0.73967 1.5947 0.52968 3.1944 0.78075 3.555 0.55794 0.43441-0.26848 0.56292-1.699 0.38101-4.2414-0.87922-12.288-13.515-19.663-24.384-14.231-8.6407 4.3178-11.954 14.006-7.7374 22.625l1.4887 3.0427 2.6157-2.3024c1.4386-1.2663 4.2905-3.1269 6.3375-4.1347zm-20.526-1.3621c1.3857-0.43365 3.5071-0.78845 4.7143-0.78845 2.1646 0 2.1949-0.0303 2.1949-2.1949 0-1.2072 0.36687-3.4139 0.81526-4.9038l0.81526-2.7089-1.9398-0.81049c-2.6786-1.1192-4.1775-1.0194-7.1388 0.47523-4.1441 2.0917-6.1184 6.8801-4.5441 11.021 0.43428 1.1422 0.82781 1.4206 1.5714 1.1114 0.54563-0.22687 2.1258-0.7673 3.5114-1.201z" fill="#360012"/>
 </g>
</svg>
