<svg id="svg8406" xmlns:rdf="http://www.w3.org/1999/02/22-rdf-syntax-ns#" xmlns="http://www.w3.org/2000/svg" height="52.247mm" width="48.901mm" version="1.1" xmlns:cc="http://creativecommons.org/ns#" xmlns:dc="http://purl.org/dc/elements/1.1/" viewBox="0 0 173.27061 185.12848">
 <g id="layer1" transform="translate(-285.41 -433.62)">
  <path id="path7452" stroke-linejoin="round" style="color-rendering:auto;color:#000000;isolation:auto;mix-blend-mode:normal;shape-rendering:auto;solid-color:#000000;image-rendering:auto" d="m454.26 555.56-82.208 58.758-82.208-58.758v-117.52h164.42z" stroke="#360012" stroke-linecap="round" stroke-width="8.8551" fill="none"/>
  <g id="text8383" fill="#360012" transform="matrix(-1 0 0 1 -962.24 118.86)">
   <path id="path8554" d="m-1337.1 365.95q-16.233 0-16.233 25.204 0 11.249 4.2718 17.657 4.4143 6.4077 11.961 6.4077 5.8381 0 9.1132-3.1327 3.2751-3.2751 5.1262-10.68h19.081q-1.4239 13.812-10.537 21.929-8.9708 7.9741-22.925 7.9741-17.087 0-26.628-10.537-9.398-10.537-9.398-29.618 0-19.65 9.5404-30.472 9.5405-10.822 26.77-10.822 14.382 0 23.21 7.9741 8.9709 7.9741 9.9676 22.071h-19.081q-1.7087-7.5469-4.9838-10.68-3.1327-3.2751-9.2556-3.2751z" fill="#360012"/>
  </g>
 </g>
</svg>
