<svg id="svg4558" xmlns:rdf="http://www.w3.org/1999/02/22-rdf-syntax-ns#" xmlns="http://www.w3.org/2000/svg" height="44.678mm" viewBox="0 0 92.621628 158.30952" width="26.14mm" version="1.1" xmlns:cc="http://creativecommons.org/ns#" xmlns:dc="http://purl.org/dc/elements/1.1/">
 <g id="layer1" fill="#360012" transform="translate(-325.74 -447.03)">
  <path id="path4422" d="m347.74 592.36c-11.951-7.0906-21.852-13.252-22.002-13.692-0.1504-0.43995 9.5334-20.131 21.52-43.758l21.793-42.958v-7.0701c0-6.0088-0.2509-7.2972-1.6715-8.5828-2.2399-2.0271-2.121-5.5542 0.2628-7.7936 5.7728-5.4232 12.961 2.2524 8.0074 8.5501-1.5316 1.9471-1.7116 3.0665-1.3956 8.6788l0.3628 6.4433 21.871 43.943c12.029 24.169 21.871 44.193 21.871 44.498 0 0.30501-7.0513 4.0863-15.67 8.4028-8.6183 4.3165-19.205 9.7714-23.525 12.122-4.3207 2.3506-8.2695 4.2369-8.775 4.1917-0.5056-0.0452-10.697-5.8835-22.648-12.974zm21.311-9.0333v-15.404l-2.4273-1.7283c-1.3349-0.95058-2.9788-1.7283-3.6531-1.7283-0.6742 0-7.7326 3.119-15.685 6.9311l-14.459 6.9311 17.068 10.125c9.3873 5.5689 17.538 10.159 18.112 10.201 0.8007 0.058 1.0447-3.5218 1.0447-15.328zm23.782 5.7931c9.882-5.0561 17.976-9.4068 17.986-9.6682 0.027-0.7094-23.912-16.657-25.004-16.657-1.3029 0-9.3406 4.0881-11.122 5.6569-1.2876 1.1339-1.4625 3.0292-1.4625 15.853 0 9.1315 0.3052 14.461 0.818 14.287 0.4498-0.15322 8.9032-4.4154 18.785-9.4714zm-47.164-21.855c6.425-3.057 11.682-5.8418 11.682-6.1884 0-0.62977-12.613-8.3105-13.647-8.3105-0.3008 0-2.8091 4.5129-5.5741 10.029-2.7649 5.5157-4.828 10.029-4.5847 10.029s5.6992-2.5012 12.124-5.5582zm63.496 4.2895c0-0.23817-1.8853-4.1899-4.1895-8.7815l-4.1895-8.3485-5.1064 2.5777c-2.8293 1.4282-4.781 2.8916-4.3766 3.2815 1.3607 1.312 16.604 11.632 17.235 11.668 0.3447 0.0198 0.6268-0.15886 0.6268-0.39703zm-28.464-11.856c0.2025-0.15772-0.2537-0.90861-1.0137-1.6686-2.4784-2.4783-7.4356 1.0115-6.1597 4.3363 0.4028 1.0499 0.9691 0.9614 3.6412-0.56884 1.7403-0.99664 3.3298-1.9411 3.5322-2.0988zm-14.116-2.3577 2.4657-1.275v-23.836l-5.3952-3.103c-2.9673-1.7066-5.7851-3.103-6.2618-3.103-1.0323 0-12.056 21.695-11.371 22.379 0.9159 0.91583 16.769 10.2 17.428 10.207 0.3676 0.004 1.7778-0.56672 3.1339-1.268zm26.075-3.7266c3.1026-1.5832 5.6411-3.1789 5.6411-3.546 0-1.2463-11.707-24.045-12.347-24.045-0.4901 0-5.8632 3.3056-7.5756 4.6607-0.3156 0.24972 1.3713 18.127 1.977 20.952 0.3475 1.621 5.2285 5.5814 6.2459 5.068 0.2298-0.11597 2.9563-1.5062 6.0589-3.0894zm-17.331-7.284c-0.9317-11.185-1.9851-12.066-2.0462-1.7126-0.046 7.7422 0.134 8.9839 1.2995 8.9839 1.1888 0 1.2791-0.87934 0.7467-7.2714zm-6.3206-31.798-0.043-12.327-4.5107 8.775c-2.4809 4.8262-4.5301 9.2375-4.5536 9.8027-0.032 0.77211 7.7027 6.0215 8.9411 6.068 0.1149 0.004 0.1896-5.5392 0.1661-12.319zm12.271 8.9158c1.5481-0.95677 2.7956-1.991 2.7723-2.2982-0.023-0.30725-1.9193-4.1313-4.2132-8.4979l-4.1707-7.9393 0.4646 6.2679c0.6261 8.4461 1.4013 14.207 1.9118 14.207 0.2313 0 1.6871-0.78282 3.2352-1.7396zm-33.957-52.492c0-7.4363 6.8767-17.661 14.522-21.591 5.6469-2.9033 14.123-3.1306 19.801-0.53108 7.2487 3.319 13.664 12.217 14.774 20.492 0.423 3.1536 0.3298 3.3429-1.5163 3.0775-1.4878-0.21389-2.2052-1.1082-2.9446-3.6711-3.2162-11.148-10.237-17.372-19.564-17.342-10.236 0.0322-17.522 6.3765-20.449 17.806-0.7316 2.8566-1.4029 3.8249-2.7926 4.0278-1.5387 0.2246-1.8295-0.13579-1.8295-2.2669z" fill="#360012"/>
 </g>
</svg>
