<svg id="svg4558" xmlns:rdf="http://www.w3.org/1999/02/22-rdf-syntax-ns#" xmlns="http://www.w3.org/2000/svg" height="37.127mm" viewBox="0 0 197.02533 131.55265" width="55.605mm" version="1.1" xmlns:cc="http://creativecommons.org/ns#" xmlns:dc="http://purl.org/dc/elements/1.1/">
 <g stroke="#360012" fill="none">
  <g id="g4311" transform="matrix(.60831 0 0 .60831 2630.2 -301.28)" stroke-width="7.6236">
   <path id="path4313" stroke-linejoin="round" d="m-4093 517.88 27.603 47.809-4.7944 8.3041h8.2057l23.961 41.498-23.961 41.498h-23.961-23.961-67.089-4.5964-38.09l-21.343-36.964 21.343-36.964h11.583l-6.3515-11 17.482-30.277h34.964l13.801-23.904h55.205z" stroke="#360012" stroke-linecap="round" stroke-width="7.6236" fill="none"/>
  </g>
  <path id="path4315" d="m105.77 48.693-5.4126 9.3746 5.4126 9.3747-5.4128 9.3747h21.65l-5.4128-9.3747 5.4128-9.3747-5.4128-9.3746h-10.825z" stroke-width="2"/>
  <g id="g45" transform="translate(-1591 -375.92)" stroke-width="7.6236">
   <g id="g4317" transform="matrix(.38239 0 0 .38239 3234.8 179.35)">
    <path id="path4319" stroke-linejoin="round" d="m-4093 517.88 27.603 47.809-4.7944 8.3041h8.2057l23.961 41.498-23.961 41.498h-23.961-23.961-67.089-4.5964-38.09l-21.343-36.964 21.343-36.964h11.583l-6.3515-11 17.482-30.277h34.964l13.801-23.904h55.205z" stroke="#360012" stroke-linecap="round" stroke-width="7.6236" fill="none"/>
   </g>
   <g id="g4321" transform="matrix(-.33355 0 0 .33355 371.14 287.06)">
    <path id="path4323" stroke-linejoin="round" d="m-4093 517.88 27.603 47.809-4.7944 8.3041h8.2057l23.961 41.498-23.961 41.498h-23.961-23.961-67.089-4.5964-38.09l-21.343-36.964 21.343-36.964h11.583l-6.3515-11 17.482-30.277h34.964l13.801-23.904h55.205z" stroke="#360012" stroke-linecap="round" stroke-width="7.6236" fill="none"/>
   </g>
   <g id="g4325" transform="matrix(-.33355 0 0 .33355 245.41 229.91)">
    <path id="path4327" stroke-linejoin="round" d="m-4093 517.88 27.603 47.809-4.7944 8.3041h8.2057l23.961 41.498-23.961 41.498h-23.961-23.961-67.089-4.5964-38.09l-21.343-36.964 21.343-36.964h11.583l-6.3515-11 17.482-30.277h34.964l13.801-23.904h55.205z" stroke="#360012" stroke-linecap="round" stroke-width="7.6236" fill="none"/>
   </g>
   <g id="g4329" transform="matrix(.27333 0 0 .27333 2890.7 242.27)">
    <path id="path4331" stroke-linejoin="round" d="m-4093 517.88 27.603 47.809-4.7944 8.3041h8.2057l23.961 41.498-23.961 41.498h-23.961-23.961-67.089-4.5964-38.09l-21.343-36.964 21.343-36.964h11.583l-6.3515-11 17.482-30.277h34.964l13.801-23.904h55.205z" stroke="#360012" stroke-linecap="round" stroke-width="7.6236" fill="none"/>
   </g>
   <g id="g4333" transform="matrix(-.25565 0 0 .25565 600.83 322.54)">
    <path id="path4335" stroke-linejoin="round" d="m-4093 517.88 27.603 47.809-4.7944 8.3041h8.2057l23.961 41.498-23.961 41.498h-23.961-23.961-67.089-4.5964-38.09l-21.343-36.964 21.343-36.964h11.583l-6.3515-11 17.482-30.277h34.964l13.801-23.904h55.205z" stroke="#360012" stroke-linecap="round" stroke-width="7.6236" fill="none"/>
   </g>
  </g>
 </g>
</svg>
